Truculenta-72ptThin.ufo
<glyph name="exclam" format="2">
  <advance width="262"/>
  <unicode hex="0021"/>
  <outline>
    <contour>
      <point x="117" y="216" type="curve"/>
      <point x="145" y="216" type="line"/>
      <point x="146" y="250"/>
      <point x="147" y="367"/>
      <point x="148" y="425" type="curve" smooth="yes"/>
      <point x="149" y="487"/>
      <point x="155" y="655"/>
      <point x="157" y="708" type="curve"/>
      <point x="105" y="705" type="line"/>
      <point x="106" y="659"/>
      <point x="111" y="513"/>
      <point x="113" y="423" type="curve" smooth="yes"/>
      <point x="115" y="346"/>
      <point x="116" y="244"/>
    </contour>
    <contour>
      <point x="155" y="0" type="line"/>
      <point x="150" y="101" type="line"/>
      <point x="113" y="99" type="line"/>
      <point x="110" y="0" type="line"/>
    </contour>
  </outline>
</glyph>
<glyph name="numbersign" format="2">
  <advance width="815"/>
  <unicode hex="0023"/>
  <outline>
    <contour>
      <point x="160" y="1" type="line"/>
      <point x="196" y="3" type="line"/>
      <point x="279" y="378" type="line"/>
      <point x="362" y="695" type="line"/>
      <point x="327" y="693" type="line"/>
      <point x="258" y="381" type="line"/>
    </contour>
    <contour>
      <point x="80" y="192" type="line"/>
      <point x="128" y="194"/>
      <point x="303" y="197"/>
      <point x="401" y="196" type="curve" smooth="yes"/>
      <point x="499" y="195"/>
      <point x="646" y="194"/>
      <point x="688" y="194" type="curve"/>
      <point x="686" y="223" type="line"/>
      <point x="646" y="222"/>
      <point x="497" y="220"/>
      <point x="404" y="220" type="curve" smooth="yes"/>
      <point x="312" y="220"/>
      <point x="129" y="222"/>
      <point x="80" y="223" type="curve"/>
    </contour>
    <contour>
      <point x="451" y="0" type="line"/>
      <point x="487" y="1" type="line"/>
      <point x="567" y="367" type="line"/>
      <point x="650" y="682" type="line"/>
      <point x="615" y="683" type="line"/>
      <point x="549" y="381" type="line"/>
    </contour>
    <contour>
      <point x="127" y="479" type="line"/>
      <point x="173" y="481"/>
      <point x="352" y="484"/>
      <point x="452" y="483" type="curve" smooth="yes"/>
      <point x="550" y="482"/>
      <point x="695" y="481"/>
      <point x="735" y="480" type="curve"/>
      <point x="735" y="510" type="line"/>
      <point x="694" y="509"/>
      <point x="546" y="507"/>
      <point x="454" y="507" type="curve" smooth="yes"/>
      <point x="363" y="507"/>
      <point x="176" y="509"/>
      <point x="123" y="510" type="curve"/>
    </contour>
  </outline>
</glyph>
<glyph name="percent" format="2">
  <advance width="800"/>
  <unicode hex="0025"/>
  <outline>
    <contour>
      <point x="188" y="0" type="curve"/>
      <point x="225" y="0" type="line"/>
      <point x="247" y="43"/>
      <point x="350" y="235"/>
      <point x="422" y="363" type="curve" smooth="yes"/>
      <point x="488" y="480"/>
      <point x="572" y="638"/>
      <point x="607" y="693" type="curve"/>
      <point x="569" y="693" type="line"/>
      <point x="547" y="654"/>
      <point x="450" y="475"/>
      <point x="380" y="350" type="curve" smooth="yes"/>
      <point x="315" y="234"/>
      <point x="220" y="57"/>
    </contour>
    <contour>
      <point x="196" y="368" type="curve" smooth="yes"/>
      <point x="272" y="368"/>
      <point x="310" y="433"/>
      <point x="310" y="539" type="curve" smooth="yes"/>
      <point x="310" y="638"/>
      <point x="279" y="700"/>
      <point x="201" y="700" type="curve" smooth="yes"/>
      <point x="119" y="700"/>
      <point x="82" y="639"/>
      <point x="82" y="540" type="curve" smooth="yes"/>
      <point x="82" y="432"/>
      <point x="115" y="368"/>
    </contour>
    <contour>
      <point x="193" y="398" type="curve" smooth="yes"/>
      <point x="136" y="398"/>
      <point x="111" y="455"/>
      <point x="111" y="538" type="curve" smooth="yes"/>
      <point x="111" y="619"/>
      <point x="136" y="671"/>
      <point x="198" y="671" type="curve" smooth="yes"/>
      <point x="258" y="671"/>
      <point x="281" y="622"/>
      <point x="281" y="543" type="curve" smooth="yes"/>
      <point x="281" y="451"/>
      <point x="258" y="398"/>
    </contour>
    <contour>
      <point x="603" y="-1" type="curve" smooth="yes"/>
      <point x="679" y="-1"/>
      <point x="717" y="64"/>
      <point x="717" y="170" type="curve" smooth="yes"/>
      <point x="717" y="269"/>
      <point x="686" y="331"/>
      <point x="608" y="331" type="curve" smooth="yes"/>
      <point x="526" y="331"/>
      <point x="489" y="270"/>
      <point x="489" y="171" type="curve" smooth="yes"/>
      <point x="489" y="63"/>
      <point x="522" y="-1"/>
    </contour>
    <contour>
      <point x="600" y="29" type="curve" smooth="yes"/>
      <point x="543" y="29"/>
      <point x="518" y="86"/>
      <point x="518" y="169" type="curve" smooth="yes"/>
      <point x="518" y="250"/>
      <point x="543" y="302"/>
      <point x="605" y="302" type="curve" smooth="yes"/>
      <point x="665" y="302"/>
      <point x="688" y="253"/>
      <point x="688" y="174" type="curve" smooth="yes"/>
      <point x="688" y="82"/>
      <point x="665" y="29"/>
    </contour>
  </outline>
</glyph>
<glyph name="ampersand" format="2">
  <advance width="500"/>
  <unicode hex="0026"/>
  <outline>
    <contour>
      <point x="211" y="-10" type="curve" smooth="yes"/>
      <point x="408" y="-10"/>
      <point x="439" y="219"/>
      <point x="439" y="380" type="curve"/>
      <point x="406" y="383" type="line"/>
      <point x="410" y="172"/>
      <point x="348" y="23"/>
      <point x="217" y="23" type="curve" smooth="yes"/>
      <point x="119" y="23"/>
      <point x="75" y="87"/>
      <point x="75" y="183" type="curve" smooth="yes"/>
      <point x="75" y="279"/>
      <point x="132" y="320"/>
      <point x="187" y="361" type="curve" smooth="yes"/>
      <point x="268" y="421"/>
      <point x="350" y="486"/>
      <point x="350" y="581" type="curve" smooth="yes"/>
      <point x="350" y="651"/>
      <point x="309" y="702"/>
      <point x="232" y="702" type="curve" smooth="yes"/>
      <point x="140" y="702"/>
      <point x="100" y="629"/>
      <point x="100" y="550" type="curve" smooth="yes"/>
      <point x="100" y="420"/>
      <point x="205" y="279"/>
      <point x="341" y="62" type="curve" smooth="yes"/>
      <point x="367" y="20"/>
      <point x="407" y="-7"/>
      <point x="486" y="-7" type="curve"/>
      <point x="491" y="28" type="line"/>
      <point x="416" y="25"/>
      <point x="382" y="60"/>
      <point x="364" y="89" type="curve" smooth="yes"/>
      <point x="213" y="332"/>
      <point x="138" y="425"/>
      <point x="138" y="556" type="curve" smooth="yes"/>
      <point x="138" y="627"/>
      <point x="173" y="668"/>
      <point x="229" y="668" type="curve" smooth="yes"/>
      <point x="280" y="668"/>
      <point x="312" y="635"/>
      <point x="312" y="580" type="curve" smooth="yes"/>
      <point x="312" y="489"/>
      <point x="245" y="442"/>
      <point x="166" y="385" type="curve" smooth="yes"/>
      <point x="108" y="343"/>
      <point x="38" y="293"/>
      <point x="38" y="182" type="curve" smooth="yes"/>
      <point x="38" y="55"/>
      <point x="104" y="-10"/>
    </contour>
  </outline>
</glyph>
<glyph name="quotesingle" format="2">
  <advance width="254"/>
  <unicode hex="0027"/>
  <outline>
    <contour>
      <point x="108" y="496" type="curve"/>
      <point x="139" y="504" type="line"/>
      <point x="140" y="531"/>
      <point x="142" y="568"/>
      <point x="145" y="604" type="curve" smooth="yes"/>
      <point x="148" y="646"/>
      <point x="151" y="684"/>
      <point x="154" y="702" type="curve"/>
      <point x="100" y="698" type="line"/>
      <point x="101" y="679"/>
      <point x="104" y="634"/>
      <point x="105" y="602" type="curve" smooth="yes"/>
      <point x="107" y="568"/>
      <point x="107" y="518"/>
    </contour>
  </outline>
</glyph>
<glyph name="parenleft" format="2">
  <advance width="366"/>
  <unicode hex="0028"/>
  <outline>
    <contour>
      <point x="253" y="-139" type="curve"/>
      <point x="261" y="-117" type="line"/>
      <point x="158" y="-57"/>
      <point x="132" y="111"/>
      <point x="132" y="281" type="curve" smooth="yes"/>
      <point x="132" y="452"/>
      <point x="155" y="619"/>
      <point x="261" y="680" type="curve"/>
      <point x="253" y="702" type="line"/>
      <point x="155" y="650"/>
      <point x="105" y="528"/>
      <point x="105" y="281" type="curve" smooth="yes"/>
      <point x="105" y="35"/>
      <point x="153" y="-86"/>
    </contour>
  </outline>
</glyph>
<glyph name="parenright" format="2">
  <advance width="366"/>
  <unicode hex="0029"/>
  <outline>
    <contour>
      <point x="113" y="702" type="curve"/>
      <point x="105" y="680" type="line"/>
      <point x="208" y="620"/>
      <point x="234" y="452"/>
      <point x="234" y="282" type="curve" smooth="yes"/>
      <point x="234" y="111"/>
      <point x="211" y="-56"/>
      <point x="105" y="-117" type="curve"/>
      <point x="113" y="-139" type="line"/>
      <point x="211" y="-87"/>
      <point x="261" y="35"/>
      <point x="261" y="282" type="curve" smooth="yes"/>
      <point x="261" y="528"/>
      <point x="213" y="649"/>
    </contour>
  </outline>
</glyph>
<glyph name="asterisk" format="2">
  <advance width="555"/>
  <unicode hex="002A"/>
  <outline>
    <contour>
      <point x="423" y="436" type="curve"/>
      <point x="450" y="460" type="line"/>
      <point x="412" y="483"/>
      <point x="312" y="544"/>
      <point x="276" y="565" type="curve" smooth="yes"/>
      <point x="236" y="588"/>
      <point x="157" y="648"/>
      <point x="130" y="668" type="curve"/>
      <point x="105" y="638" type="line"/>
      <point x="140" y="621"/>
      <point x="230" y="570"/>
      <point x="272" y="546" type="curve" smooth="yes"/>
      <point x="313" y="522"/>
      <point x="397" y="457"/>
    </contour>
    <contour>
      <point x="124" y="428" type="line"/>
      <point x="158" y="454"/>
      <point x="248" y="523"/>
      <point x="289" y="546" type="curve" smooth="yes"/>
      <point x="332" y="570"/>
      <point x="421" y="625"/>
      <point x="449" y="640" type="curve"/>
      <point x="440" y="673" type="line"/>
      <point x="406" y="649"/>
      <point x="322" y="587"/>
      <point x="285" y="565" type="curve" smooth="yes"/>
      <point x="247" y="542"/>
      <point x="144" y="477"/>
      <point x="112" y="457" type="curve"/>
    </contour>
    <contour>
      <point x="302" y="361" type="line"/>
      <point x="298" y="400"/>
      <point x="291" y="509"/>
      <point x="291" y="562" type="curve" smooth="yes"/>
      <point x="291" y="616"/>
      <point x="297" y="704"/>
      <point x="300" y="736" type="curve"/>
      <point x="263" y="739" type="line"/>
      <point x="265" y="704"/>
      <point x="269" y="611"/>
      <point x="270" y="561" type="curve" smooth="yes"/>
      <point x="271" y="511"/>
      <point x="266" y="401"/>
      <point x="264" y="364" type="curve"/>
    </contour>
  </outline>
</glyph>
<glyph name="comma" format="2">
  <advance width="262"/>
  <unicode hex="002C"/>
  <outline>
    <contour>
      <point x="133" y="-100" type="line"/>
      <point x="149" y="-73"/>
      <point x="157" y="-38"/>
      <point x="157" y="5" type="curve" smooth="yes"/>
      <point x="157" y="98" type="line"/>
      <point x="105" y="93" type="line"/>
      <point x="107" y="1" type="line"/>
      <point x="129" y="-1" type="line"/>
      <point x="130" y="-33"/>
      <point x="122" y="-61"/>
      <point x="109" y="-91" type="curve"/>
    </contour>
  </outline>
</glyph>
<glyph name="hyphen" format="2">
  <advance width="369"/>
  <unicode hex="002D"/>
  <outline>
    <contour>
      <point x="60" y="272" type="line"/>
      <point x="60" y="272"/>
      <point x="121" y="274"/>
      <point x="180" y="274" type="curve" smooth="yes"/>
      <point x="236" y="274"/>
      <point x="309" y="272"/>
      <point x="309" y="272" type="curve"/>
      <point x="306" y="310" type="line"/>
      <point x="306" y="310"/>
      <point x="248" y="306"/>
      <point x="186" y="307" type="curve" smooth="yes"/>
      <point x="124" y="308"/>
      <point x="66" y="310"/>
      <point x="66" y="310" type="curve"/>
    </contour>
  </outline>
</glyph>
<glyph name="period" format="2">
  <advance width="252"/>
  <unicode hex="002E"/>
  <outline>
    <contour>
      <point x="147" y="1" type="line"/>
      <point x="147" y="104" type="line"/>
      <point x="105" y="99" type="line"/>
      <point x="108" y="1" type="line"/>
    </contour>
  </outline>
</glyph>
<glyph name="slash" format="2">
  <advance width="258"/>
  <unicode hex="002F"/>
  <outline>
    <contour>
      <point x="10" y="0" type="curve"/>
      <point x="43" y="1" type="line"/>
      <point x="76" y="116"/>
      <point x="113" y="242"/>
      <point x="148" y="361" type="curve" smooth="yes"/>
      <point x="184" y="486"/>
      <point x="219" y="603"/>
      <point x="248" y="694" type="curve"/>
      <point x="215" y="695" type="line"/>
      <point x="193" y="612"/>
      <point x="160" y="491"/>
      <point x="123" y="365" type="curve" smooth="yes"/>
      <point x="87" y="238"/>
      <point x="45" y="105"/>
    </contour>
  </outline>
</glyph>
<glyph name="one" format="2">
  <advance width="290"/>
  <unicode hex="0031"/>
  <outline>
    <contour>
      <point x="151" y="0" type="curve"/>
      <point x="190" y="0" type="line"/>
      <point x="188" y="48"/>
      <point x="186" y="202"/>
      <point x="186" y="341" type="curve" smooth="yes"/>
      <point x="186" y="481"/>
      <point x="190" y="644"/>
      <point x="191" y="694" type="curve"/>
      <point x="176" y="694" type="line"/>
      <point x="155" y="638" type="line"/>
      <point x="156" y="562"/>
      <point x="155" y="418"/>
      <point x="155" y="342" type="curve" smooth="yes"/>
      <point x="155" y="245"/>
      <point x="153" y="55"/>
    </contour>
    <contour>
      <point x="38" y="619" type="line"/>
      <point x="76" y="620"/>
      <point x="151" y="631"/>
      <point x="178" y="642" type="curve"/>
      <point x="176" y="694" type="line"/>
      <point x="151" y="667"/>
      <point x="83" y="652"/>
      <point x="37" y="646" type="curve"/>
    </contour>
  </outline>
</glyph>
<glyph name="two" format="2">
  <advance width="461"/>
  <unicode hex="0032"/>
  <outline>
    <contour>
      <point x="95" y="20" type="line"/>
      <point x="193" y="137"/>
      <point x="385" y="341"/>
      <point x="385" y="529" type="curve" smooth="yes"/>
      <point x="385" y="637"/>
      <point x="326" y="700"/>
      <point x="238" y="700" type="curve" smooth="yes"/>
      <point x="145" y="700"/>
      <point x="82" y="633"/>
      <point x="82" y="503" type="curve" smooth="yes"/>
      <point x="82" y="485"/>
      <point x="84" y="466"/>
      <point x="86" y="447" type="curve"/>
      <point x="120" y="448" type="line"/>
      <point x="117" y="468"/>
      <point x="115" y="488"/>
      <point x="115" y="506" type="curve" smooth="yes"/>
      <point x="115" y="614"/>
      <point x="162" y="671"/>
      <point x="234" y="671" type="curve" smooth="yes"/>
      <point x="308" y="671"/>
      <point x="350" y="623"/>
      <point x="350" y="521" type="curve" smooth="yes"/>
      <point x="350" y="349"/>
      <point x="181" y="168"/>
      <point x="65" y="27" type="curve"/>
    </contour>
    <contour>
      <point x="65" y="-3" type="line"/>
      <point x="86" y="-2"/>
      <point x="185" y="0"/>
      <point x="229" y="0" type="curve" smooth="yes"/>
      <point x="283" y="0"/>
      <point x="336" y="0"/>
      <point x="390" y="0" type="curve"/>
      <point x="389" y="32" type="line"/>
      <point x="356" y="30"/>
      <point x="282" y="28"/>
      <point x="240" y="28" type="curve" smooth="yes"/>
      <point x="182" y="28"/>
      <point x="123" y="27"/>
      <point x="65" y="27" type="curve"/>
    </contour>
  </outline>
</glyph>
<glyph name="three" format="2">
  <advance width="425"/>
  <unicode hex="0033"/>
  <outline>
    <contour>
      <point x="206" y="-10" type="curve" smooth="yes"/>
      <point x="312" y="-10"/>
      <point x="362" y="48"/>
      <point x="362" y="147" type="curve" smooth="yes"/>
      <point x="362" y="223"/>
      <point x="320" y="279"/>
      <point x="240" y="296" type="curve"/>
      <point x="314" y="333"/>
      <point x="356" y="412"/>
      <point x="356" y="522" type="curve" smooth="yes"/>
      <point x="356" y="612"/>
      <point x="323" y="697"/>
      <point x="208" y="697" type="curve" smooth="yes"/>
      <point x="88" y="697"/>
      <point x="62" y="600"/>
      <point x="60" y="527" type="curve"/>
      <point x="90" y="529" type="line"/>
      <point x="93" y="595"/>
      <point x="110" y="671"/>
      <point x="203" y="671" type="curve" smooth="yes"/>
      <point x="300" y="671"/>
      <point x="324" y="608"/>
      <point x="324" y="512" type="curve" smooth="yes"/>
      <point x="324" y="385"/>
      <point x="259" y="306"/>
      <point x="174" y="306" type="curve" smooth="yes"/>
      <point x="164" y="306"/>
      <point x="130" y="306"/>
      <point x="122" y="307" type="curve"/>
      <point x="123" y="280" type="line"/>
      <point x="134" y="281"/>
      <point x="170" y="281"/>
      <point x="178" y="281" type="curve" smooth="yes"/>
      <point x="280" y="281"/>
      <point x="331" y="234"/>
      <point x="331" y="139" type="curve" smooth="yes"/>
      <point x="331" y="62"/>
      <point x="302" y="16"/>
      <point x="207" y="16" type="curve" smooth="yes"/>
      <point x="116" y="16"/>
      <point x="88" y="75"/>
      <point x="87" y="117" type="curve"/>
      <point x="59" y="118" type="line"/>
      <point x="60" y="61"/>
      <point x="97" y="-10"/>
    </contour>
  </outline>
</glyph>
<glyph name="four" format="2">
  <advance width="464"/>
  <unicode hex="0034"/>
  <outline>
    <contour>
      <point x="69" y="177" type="line"/>
      <point x="96" y="237"/>
      <point x="134" y="319"/>
      <point x="173" y="401" type="curve" smooth="yes"/>
      <point x="218" y="496"/>
      <point x="263" y="590"/>
      <point x="292" y="647" type="curve"/>
      <point x="299" y="664"/>
      <point x="309" y="683"/>
      <point x="320" y="697" type="curve"/>
      <point x="280" y="698" type="line"/>
      <point x="244" y="620"/>
      <point x="195" y="515"/>
      <point x="148" y="415" type="curve" smooth="yes"/>
      <point x="109" y="330"/>
      <point x="70" y="249"/>
      <point x="41" y="191" type="curve"/>
    </contour>
    <contour>
      <point x="47" y="162" type="line"/>
      <point x="74" y="163"/>
      <point x="184" y="165"/>
      <point x="231" y="166" type="curve" smooth="yes"/>
      <point x="279" y="167"/>
      <point x="387" y="166"/>
      <point x="417" y="166" type="curve"/>
      <point x="417" y="198" type="line"/>
      <point x="387" y="196"/>
      <point x="281" y="192"/>
      <point x="231" y="190" type="curve" smooth="yes"/>
      <point x="183" y="188"/>
      <point x="72" y="190"/>
      <point x="41" y="191" type="curve"/>
    </contour>
    <contour>
      <point x="283" y="-1" type="curve"/>
      <point x="319" y="0" type="line"/>
      <point x="318" y="53"/>
      <point x="316" y="236"/>
      <point x="316" y="378" type="curve" smooth="yes"/>
      <point x="316" y="512"/>
      <point x="318" y="651"/>
      <point x="320" y="697" type="curve"/>
      <point x="287" y="692" type="line"/>
      <point x="287" y="645"/>
      <point x="287" y="477"/>
      <point x="287" y="380" type="curve" smooth="yes"/>
      <point x="287" y="282"/>
      <point x="284" y="61"/>
    </contour>
  </outline>
</glyph>
<glyph name="five" format="2">
  <advance width="447"/>
  <unicode hex="0035"/>
  <outline>
    <contour>
      <point x="214" y="-10" type="curve" smooth="yes"/>
      <point x="333" y="-10"/>
      <point x="390" y="78"/>
      <point x="390" y="225" type="curve" smooth="yes"/>
      <point x="390" y="346"/>
      <point x="339" y="427"/>
      <point x="235" y="427" type="curve" smooth="yes"/>
      <point x="161" y="427"/>
      <point x="112" y="389"/>
      <point x="88" y="320" type="curve"/>
      <point x="111" y="318" type="line"/>
      <point x="134" y="373"/>
      <point x="176" y="398"/>
      <point x="232" y="398" type="curve" smooth="yes"/>
      <point x="318" y="398"/>
      <point x="357" y="328"/>
      <point x="357" y="235" type="curve" smooth="yes"/>
      <point x="357" y="94"/>
      <point x="316" y="18"/>
      <point x="218" y="18" type="curve" smooth="yes"/>
      <point x="136" y="18"/>
      <point x="102" y="56"/>
      <point x="98" y="116" type="curve"/>
      <point x="66" y="114" type="line"/>
      <point x="72" y="44"/>
      <point x="119" y="-10"/>
    </contour>
    <contour>
      <point x="111" y="318" type="line"/>
      <point x="112" y="360"/>
      <point x="114" y="446"/>
      <point x="116" y="503" type="curve" smooth="yes"/>
      <point x="118" y="565"/>
      <point x="121" y="661"/>
      <point x="123" y="695" type="curve"/>
      <point x="87" y="698" type="line"/>
      <point x="88" y="663"/>
      <point x="89" y="569"/>
      <point x="87" y="505" type="curve" smooth="yes"/>
      <point x="85" y="438"/>
      <point x="80" y="349"/>
      <point x="78" y="317" type="curve"/>
    </contour>
    <contour>
      <point x="105" y="666" type="line"/>
      <point x="124" y="667"/>
      <point x="193" y="668"/>
      <point x="230" y="668" type="curve" smooth="yes"/>
      <point x="263" y="668"/>
      <point x="347" y="666"/>
      <point x="369" y="665" type="curve"/>
      <point x="371" y="695" type="line"/>
      <point x="347" y="695"/>
      <point x="264" y="695"/>
      <point x="228" y="696" type="curve" smooth="yes"/>
      <point x="194" y="697"/>
      <point x="123" y="698"/>
      <point x="94" y="698" type="curve"/>
    </contour>
  </outline>
</glyph>
<glyph name="seven" format="2">
  <advance width="369"/>
  <unicode hex="0037"/>
  <outline>
    <contour>
      <point x="118" y="-1" type="curve"/>
      <point x="155" y="0" type="line"/>
      <point x="146" y="123"/>
      <point x="159" y="245"/>
      <point x="193" y="360" type="curve" smooth="yes"/>
      <point x="224" y="465"/>
      <point x="273" y="565"/>
      <point x="339" y="657" type="curve"/>
      <point x="339" y="698" type="line"/>
      <point x="265" y="614"/>
      <point x="207" y="505"/>
      <point x="166" y="380" type="curve" smooth="yes"/>
      <point x="129" y="268"/>
      <point x="110" y="141"/>
    </contour>
    <contour>
      <point x="27" y="665" type="line"/>
      <point x="48" y="665"/>
      <point x="126" y="666"/>
      <point x="158" y="666" type="curve" smooth="yes"/>
      <point x="193" y="666"/>
      <point x="308" y="667"/>
      <point x="336" y="668" type="curve"/>
      <point x="339" y="698" type="line"/>
      <point x="311" y="698"/>
      <point x="205" y="697"/>
      <point x="171" y="697" type="curve" smooth="yes"/>
      <point x="137" y="697"/>
      <point x="51" y="698"/>
      <point x="26" y="699" type="curve"/>
    </contour>
  </outline>
</glyph>
<glyph name="nine" format="2">
  <advance width="472"/>
  <unicode hex="0039"/>
  <outline>
    <contour>
      <point x="215" y="-10" type="curve" smooth="yes"/>
      <point x="334" y="-10"/>
      <point x="395" y="87"/>
      <point x="395" y="382" type="curve" smooth="yes"/>
      <point x="395" y="621"/>
      <point x="355" y="713"/>
      <point x="232" y="713" type="curve" smooth="yes"/>
      <point x="115" y="713"/>
      <point x="73" y="603"/>
      <point x="73" y="487" type="curve" smooth="yes"/>
      <point x="73" y="367"/>
      <point x="110" y="275"/>
      <point x="223" y="275" type="curve" smooth="yes"/>
      <point x="296" y="275"/>
      <point x="356" y="320"/>
      <point x="375" y="389" type="curve"/>
      <point x="360" y="440" type="line"/>
      <point x="360" y="372"/>
      <point x="310" y="304"/>
      <point x="225" y="304" type="curve" smooth="yes"/>
      <point x="129" y="304"/>
      <point x="106" y="385"/>
      <point x="106" y="488" type="curve" smooth="yes"/>
      <point x="106" y="587"/>
      <point x="131" y="685"/>
      <point x="230" y="685" type="curve" smooth="yes"/>
      <point x="359" y="685"/>
      <point x="361" y="558"/>
      <point x="361" y="333" type="curve" smooth="yes"/>
      <point x="361" y="131"/>
      <point x="322" y="17"/>
      <point x="216" y="17" type="curve" smooth="yes"/>
      <point x="134" y="17"/>
      <point x="114" y="62"/>
      <point x="114" y="116" type="curve" smooth="yes"/>
      <point x="114" y="125"/>
      <point x="115" y="136"/>
      <point x="116" y="146" type="curve"/>
      <point x="84" y="145" type="line"/>
      <point x="83" y="136"/>
      <point x="82" y="127"/>
      <point x="82" y="118" type="curve" smooth="yes"/>
      <point x="82" y="57"/>
      <point x="110" y="-10"/>
    </contour>
  </outline>
</glyph>
<glyph name="colon" format="2">
  <advance width="252"/>
  <unicode hex="003A"/>
  <outline>
    <contour>
      <point x="147" y="1" type="line"/>
      <point x="147" y="104" type="line"/>
      <point x="105" y="100" type="line"/>
      <point x="108" y="1" type="line"/>
    </contour>
    <contour>
      <point x="147" y="441" type="line"/>
      <point x="147" y="543" type="line"/>
      <point x="105" y="539" type="line"/>
      <point x="108" y="442" type="line"/>
    </contour>
  </outline>
</glyph>
<glyph name="less" format="2">
  <advance width="500"/>
  <unicode hex="003C"/>
  <outline>
    <contour>
      <point x="456" y="454" type="line"/>
      <point x="411" y="438"/>
      <point x="323" y="409"/>
      <point x="253" y="389" type="curve" smooth="yes"/>
      <point x="176" y="367"/>
      <point x="73" y="335"/>
      <point x="37" y="324" type="curve"/>
      <point x="37" y="288" type="line"/>
      <point x="81" y="301"/>
      <point x="186" y="332"/>
      <point x="255" y="351" type="curve" smooth="yes"/>
      <point x="327" y="371"/>
      <point x="427" y="397"/>
      <point x="459" y="405" type="curve"/>
    </contour>
    <contour>
      <point x="456" y="158" type="curve"/>
      <point x="459" y="207" type="line"/>
      <point x="427" y="215"/>
      <point x="327" y="241"/>
      <point x="255" y="261" type="curve" smooth="yes"/>
      <point x="186" y="280"/>
      <point x="81" y="311"/>
      <point x="37" y="324" type="curve"/>
      <point x="37" y="288" type="line"/>
      <point x="73" y="277"/>
      <point x="176" y="246"/>
      <point x="253" y="223" type="curve" smooth="yes"/>
      <point x="323" y="202"/>
      <point x="411" y="174"/>
    </contour>
  </outline>
</glyph>
<glyph name="equal" format="2">
  <advance width="500"/>
  <unicode hex="003D"/>
  <outline>
    <contour>
      <point x="109" y="203" type="line"/>
      <point x="129" y="204"/>
      <point x="215" y="205"/>
      <point x="246" y="205" type="curve" smooth="yes"/>
      <point x="277" y="205"/>
      <point x="368" y="204"/>
      <point x="391" y="203" type="curve"/>
      <point x="389" y="236" type="line"/>
      <point x="370" y="235"/>
      <point x="283" y="233"/>
      <point x="251" y="234" type="curve" smooth="yes"/>
      <point x="217" y="235"/>
      <point x="130" y="236"/>
      <point x="111" y="237" type="curve"/>
    </contour>
    <contour>
      <point x="109" y="333" type="line"/>
      <point x="129" y="334"/>
      <point x="215" y="335"/>
      <point x="246" y="335" type="curve" smooth="yes"/>
      <point x="277" y="335"/>
      <point x="368" y="334"/>
      <point x="391" y="333" type="curve"/>
      <point x="389" y="366" type="line"/>
      <point x="370" y="365"/>
      <point x="283" y="363"/>
      <point x="251" y="364" type="curve" smooth="yes"/>
      <point x="217" y="365"/>
      <point x="130" y="366"/>
      <point x="111" y="367" type="curve"/>
    </contour>
  </outline>
</glyph>
<glyph name="question" format="2">
  <advance width="510"/>
  <unicode hex="003F"/>
  <outline>
    <contour>
      <point x="264" y="216" type="line"/>
      <point x="262" y="231"/>
      <point x="260" y="245"/>
      <point x="260" y="259" type="curve" smooth="yes"/>
      <point x="260" y="306"/>
      <point x="287" y="339"/>
      <point x="318" y="375" type="curve" smooth="yes"/>
      <point x="358" y="423"/>
      <point x="405" y="476"/>
      <point x="405" y="574" type="curve" smooth="yes"/>
      <point x="405" y="650"/>
      <point x="365" y="715"/>
      <point x="259" y="715" type="curve" smooth="yes"/>
      <point x="150" y="715"/>
      <point x="105" y="633"/>
      <point x="105" y="544" type="curve" smooth="yes"/>
      <point x="105" y="521"/>
      <point x="108" y="496"/>
      <point x="114" y="473" type="curve"/>
      <point x="144" y="472" type="line"/>
      <point x="138" y="494"/>
      <point x="135" y="518"/>
      <point x="135" y="542" type="curve" smooth="yes"/>
      <point x="135" y="616"/>
      <point x="167" y="686"/>
      <point x="257" y="686" type="curve" smooth="yes"/>
      <point x="345" y="686"/>
      <point x="372" y="639"/>
      <point x="372" y="571" type="curve" smooth="yes"/>
      <point x="372" y="486"/>
      <point x="333" y="438"/>
      <point x="296" y="395" type="curve" smooth="yes"/>
      <point x="262" y="355"/>
      <point x="229" y="320"/>
      <point x="229" y="264" type="curve" smooth="yes"/>
      <point x="229" y="250"/>
      <point x="230" y="234"/>
      <point x="232" y="217" type="curve"/>
    </contour>
    <contour>
      <point x="277" y="-2" type="line"/>
      <point x="270" y="94" type="line"/>
      <point x="233" y="92" type="line"/>
      <point x="232" y="-1" type="line"/>
    </contour>
  </outline>
</glyph>
<glyph name="A" format="2">
  <advance width="437"/>
  <unicode hex="0041"/>
  <anchor x="217" y="0" name="bottom"/>
  <anchor x="403" y="6" name="ogonek"/>
  <anchor x="221" y="693" name="top"/>
  <outline>
    <contour>
      <point x="371" y="-3" type="curve"/>
      <point x="407" y="0" type="line"/>
      <point x="385" y="95"/>
      <point x="355" y="226"/>
      <point x="325" y="359" type="curve" smooth="yes"/>
      <point x="298" y="480"/>
      <point x="271" y="604"/>
      <point x="249" y="706" type="curve"/>
      <point x="184" y="704" type="line"/>
      <point x="216" y="682" type="line"/>
      <point x="242" y="571"/>
      <point x="268" y="456"/>
      <point x="293" y="349" type="curve" smooth="yes"/>
      <point x="323" y="216"/>
      <point x="351" y="93"/>
    </contour>
    <contour>
      <point x="88" y="180" type="line"/>
      <point x="344" y="184" type="line"/>
      <point x="344" y="212" type="line"/>
      <point x="88" y="216" type="line"/>
    </contour>
    <contour>
      <point x="68" y="6" type="line"/>
      <point x="90" y="105"/>
      <point x="116" y="225"/>
      <point x="143" y="348" type="curve" smooth="yes"/>
      <point x="169" y="465"/>
      <point x="195" y="584"/>
      <point x="217" y="688" type="curve"/>
      <point x="249" y="706" type="line"/>
      <point x="184" y="704" type="line"/>
      <point x="167" y="620"/>
      <point x="139" y="489"/>
      <point x="110" y="358" type="curve" smooth="yes"/>
      <point x="81" y="226"/>
      <point x="51" y="94"/>
      <point x="31" y="7" type="curve"/>
    </contour>
  </outline>
</glyph>
<glyph name="B" format="2">
  <advance width="432"/>
  <unicode hex="0042"/>
  <guideline x="429" y="23" angle="0"/>
  <outline>
    <contour>
      <point x="103" y="222" type="line"/>
      <point x="269" y="222"/>
      <point x="365" y="276"/>
      <point x="365" y="472" type="curve" smooth="yes"/>
      <point x="365" y="667"/>
      <point x="318" y="720"/>
      <point x="170" y="720" type="curve" smooth="yes"/>
      <point x="141" y="720"/>
      <point x="107" y="718"/>
      <point x="69" y="714" type="curve"/>
      <point x="83" y="678" type="line"/>
      <point x="120" y="684"/>
      <point x="151" y="687"/>
      <point x="179" y="687" type="curve" smooth="yes"/>
      <point x="295" y="687"/>
      <point x="330" y="629"/>
      <point x="330" y="469" type="curve" smooth="yes"/>
      <point x="330" y="303"/>
      <point x="258" y="249"/>
      <point x="99" y="249" type="curve"/>
    </contour>
    <contour>
      <point x="177" y="-10" type="curve" smooth="yes"/>
      <point x="291" y="-10"/>
      <point x="375" y="16"/>
      <point x="375" y="124" type="curve" smooth="yes"/>
      <point x="375" y="217"/>
      <point x="289" y="252"/>
      <point x="99" y="249" type="curve"/>
      <point x="103" y="217" type="line"/>
      <point x="120" y="218"/>
      <point x="136" y="218"/>
      <point x="151" y="218" type="curve" smooth="yes"/>
      <point x="266" y="218"/>
      <point x="340" y="191"/>
      <point x="340" y="126" type="curve" smooth="yes"/>
      <point x="340" y="46"/>
      <point x="281" y="21"/>
      <point x="197" y="21" type="curve" smooth="yes"/>
      <point x="165" y="21"/>
      <point x="129" y="24"/>
      <point x="91" y="29" type="curve"/>
      <point x="72" y="-5" type="line"/>
      <point x="109" y="-8"/>
      <point x="144" y="-10"/>
    </contour>
    <contour>
      <point x="72" y="-5" type="curve"/>
      <point x="113" y="1" type="line"/>
      <point x="113" y="1"/>
      <point x="109" y="234"/>
      <point x="109" y="350" type="curve"/>
      <point x="109" y="466"/>
      <point x="112" y="704"/>
      <point x="112" y="704" type="curve"/>
      <point x="69" y="714" type="line"/>
      <point x="69" y="714"/>
      <point x="76" y="523"/>
      <point x="76" y="352" type="curve"/>
      <point x="76" y="180"/>
      <point x="72" y="-5"/>
    </contour>
  </outline>
</glyph>
<glyph name="C" format="2">
  <advance width="426"/>
  <unicode hex="0043"/>
  <anchor x="221" y="0" name="bottom"/>
  <anchor x="229" y="693" name="top"/>
  <outline>
    <contour>
      <point x="222" y="-6" type="curve" smooth="yes"/>
      <point x="338" y="-6"/>
      <point x="377" y="62"/>
      <point x="377" y="157" type="curve" smooth="yes"/>
      <point x="377" y="172"/>
      <point x="376" y="187"/>
      <point x="374" y="203" type="curve"/>
      <point x="341" y="203" type="line"/>
      <point x="343" y="186"/>
      <point x="344" y="167"/>
      <point x="344" y="152" type="curve" smooth="yes"/>
      <point x="344" y="78"/>
      <point x="318" y="26"/>
      <point x="225" y="26" type="curve" smooth="yes"/>
      <point x="156" y="26"/>
      <point x="124" y="66"/>
      <point x="107" y="138" type="curve" smooth="yes"/>
      <point x="95" y="190"/>
      <point x="93" y="259"/>
      <point x="93" y="341" type="curve" smooth="yes"/>
      <point x="93" y="412"/>
      <point x="96" y="475"/>
      <point x="106" y="527" type="curve" smooth="yes"/>
      <point x="123" y="618"/>
      <point x="160" y="674"/>
      <point x="233" y="674" type="curve" smooth="yes"/>
      <point x="327" y="674"/>
      <point x="353" y="604"/>
      <point x="353" y="499" type="curve" smooth="yes"/>
      <point x="353" y="456"/>
      <point x="349" y="407"/>
      <point x="343" y="354" type="curve"/>
      <point x="377" y="354" type="line"/>
      <point x="384" y="405"/>
      <point x="388" y="455"/>
      <point x="388" y="499" type="curve" smooth="yes"/>
      <point x="388" y="620"/>
      <point x="352" y="705"/>
      <point x="236" y="705" type="curve" smooth="yes"/>
      <point x="137" y="705"/>
      <point x="93" y="636"/>
      <point x="72" y="537" type="curve" smooth="yes"/>
      <point x="61" y="484"/>
      <point x="57" y="421"/>
      <point x="57" y="356" type="curve" smooth="yes"/>
      <point x="57" y="264"/>
      <point x="59" y="182"/>
      <point x="75" y="120" type="curve" smooth="yes"/>
      <point x="95" y="42"/>
      <point x="136" y="-6"/>
    </contour>
  </outline>
</glyph>
<glyph name="D" format="2">
  <advance width="447"/>
  <unicode hex="0044"/>
  <anchor x="148" y="348" name="center"/>
  <anchor x="201" y="693" name="top"/>
  <outline>
    <contour>
      <point x="164" y="-11" type="curve" smooth="yes"/>
      <point x="374" y="-11"/>
      <point x="402" y="98"/>
      <point x="402" y="361" type="curve" smooth="yes"/>
      <point x="402" y="631"/>
      <point x="365" y="708"/>
      <point x="163" y="708" type="curve" smooth="yes"/>
      <point x="134" y="708"/>
      <point x="102" y="707"/>
      <point x="67" y="704" type="curve"/>
      <point x="81" y="669" type="line"/>
      <point x="117" y="674"/>
      <point x="157" y="677"/>
      <point x="185" y="677" type="curve" smooth="yes"/>
      <point x="336" y="677"/>
      <point x="367" y="595"/>
      <point x="367" y="364" type="curve" smooth="yes"/>
      <point x="367" y="139"/>
      <point x="351" y="20"/>
      <point x="181" y="20" type="curve" smooth="yes"/>
      <point x="155" y="20"/>
      <point x="125" y="22"/>
      <point x="92" y="28" type="curve"/>
      <point x="70" y="-5" type="line"/>
      <point x="105" y="-9"/>
      <point x="136" y="-11"/>
    </contour>
    <contour>
      <point x="70" y="-5" type="curve"/>
      <point x="111" y="-4" type="line"/>
      <point x="110" y="-3"/>
      <point x="107" y="226"/>
      <point x="107" y="348" type="curve" smooth="yes"/>
      <point x="107" y="421"/>
      <point x="109" y="652"/>
      <point x="110" y="702" type="curve"/>
      <point x="67" y="704" type="line"/>
      <point x="70" y="626"/>
      <point x="74" y="477"/>
      <point x="74" y="352" type="curve"/>
      <point x="74" y="227"/>
      <point x="72" y="75"/>
    </contour>
  </outline>
</glyph>
<glyph name="E" format="2">
  <advance width="393"/>
  <unicode hex="0045"/>
  <anchor x="197" y="0" name="bottom"/>
  <anchor x="314" y="5" name="ogonek"/>
  <anchor x="199" y="693" name="top"/>
  <outline>
    <contour>
      <point x="70" y="-5" type="curve"/>
      <point x="111" y="1" type="line"/>
      <point x="111" y="1"/>
      <point x="107" y="234"/>
      <point x="107" y="350" type="curve"/>
      <point x="107" y="466"/>
      <point x="110" y="687"/>
      <point x="110" y="687" type="curve"/>
      <point x="67" y="699" type="line"/>
      <point x="67" y="699"/>
      <point x="74" y="523"/>
      <point x="74" y="352" type="curve"/>
      <point x="74" y="181"/>
      <point x="70" y="-5"/>
    </contour>
    <contour>
      <point x="70" y="-5" type="line"/>
      <point x="340" y="0" type="line"/>
      <point x="340" y="25" type="line"/>
      <point x="104" y="30" type="line"/>
    </contour>
    <contour>
      <point x="89" y="216" type="line"/>
      <point x="333" y="220" type="line"/>
      <point x="335" y="248" type="line"/>
      <point x="89" y="251" type="line"/>
    </contour>
    <contour>
      <point x="95" y="662" type="line"/>
      <point x="330" y="663" type="line"/>
      <point x="330" y="693" type="line"/>
      <point x="67" y="699" type="line"/>
    </contour>
  </outline>
</glyph>
<glyph name="F" format="2">
  <advance width="370"/>
  <unicode hex="0046"/>
  <outline>
    <contour>
      <point x="70" y="-5" type="curve"/>
      <point x="111" y="1" type="line"/>
      <point x="111" y="1"/>
      <point x="107" y="234"/>
      <point x="107" y="350" type="curve"/>
      <point x="107" y="466"/>
      <point x="110" y="693"/>
      <point x="110" y="693" type="curve"/>
      <point x="67" y="705" type="line"/>
      <point x="67" y="705"/>
      <point x="74" y="523"/>
      <point x="74" y="352" type="curve"/>
      <point x="74" y="181"/>
      <point x="70" y="-5"/>
    </contour>
    <contour>
      <point x="89" y="255" type="line"/>
      <point x="328" y="259" type="line"/>
      <point x="327" y="289" type="line"/>
      <point x="89" y="292" type="line"/>
    </contour>
    <contour>
      <point x="95" y="668" type="line"/>
      <point x="325" y="669" type="line"/>
      <point x="327" y="699" type="line"/>
      <point x="67" y="705" type="line"/>
    </contour>
  </outline>
</glyph>
<glyph name="G" format="2">
  <advance width="429"/>
  <unicode hex="0047"/>
  <anchor x="231" y="0" name="bottom"/>
  <anchor x="229" y="693" name="top"/>
  <outline>
    <contour>
      <point x="57" y="361" type="curve" smooth="yes"/>
      <point x="57" y="266"/>
      <point x="59" y="181"/>
      <point x="75" y="117" type="curve" smooth="yes"/>
      <point x="95" y="38"/>
      <point x="136" y="-10"/>
      <point x="222" y="-10" type="curve" smooth="yes"/>
      <point x="299" y="-10"/>
      <point x="333" y="26"/>
      <point x="351" y="54" type="curve"/>
      <point x="357" y="0" type="line"/>
      <point x="377" y="0" type="line"/>
      <point x="373" y="258" type="line"/>
      <point x="240" y="258" type="line"/>
      <point x="240" y="230" type="line"/>
      <point x="341" y="234" type="line"/>
      <point x="343" y="209"/>
      <point x="345" y="185"/>
      <point x="345" y="163" type="curve" smooth="yes"/>
      <point x="345" y="79"/>
      <point x="322" y="22"/>
      <point x="225" y="22" type="curve" smooth="yes"/>
      <point x="157" y="22"/>
      <point x="124" y="61"/>
      <point x="107" y="136" type="curve" smooth="yes"/>
      <point x="95" y="189"/>
      <point x="93" y="261"/>
      <point x="93" y="350" type="curve" smooth="yes"/>
      <point x="93" y="415"/>
      <point x="96" y="479"/>
      <point x="106" y="533" type="curve" smooth="yes"/>
      <point x="122" y="620"/>
      <point x="158" y="682"/>
      <point x="233" y="682" type="curve" smooth="yes"/>
      <point x="326" y="682"/>
      <point x="353" y="616"/>
      <point x="353" y="511" type="curve" smooth="yes"/>
      <point x="353" y="475"/>
      <point x="350" y="434"/>
      <point x="345" y="389" type="curve"/>
      <point x="379" y="389" type="line"/>
      <point x="385" y="431"/>
      <point x="388" y="472"/>
      <point x="388" y="509" type="curve" smooth="yes"/>
      <point x="388" y="628"/>
      <point x="352" y="713"/>
      <point x="238" y="713" type="curve" smooth="yes"/>
      <point x="139" y="713"/>
      <point x="92" y="643"/>
      <point x="71" y="541" type="curve" smooth="yes"/>
      <point x="60" y="488"/>
      <point x="57" y="426"/>
    </contour>
  </outline>
</glyph>
<glyph name="H" format="2">
  <advance width="472"/>
  <unicode hex="0048"/>
  <anchor x="237" y="0" name="bottom"/>
  <anchor x="236" y="459" name="center"/>
  <anchor x="236" y="693" name="top"/>
  <outline>
    <contour>
      <point x="364" y="-2" type="curve"/>
      <point x="405" y="-2" type="line"/>
      <point x="405" y="-2"/>
      <point x="400" y="210"/>
      <point x="400" y="381" type="curve"/>
      <point x="400" y="552"/>
      <point x="405" y="707"/>
      <point x="405" y="707" type="curve"/>
      <point x="363" y="705" type="line"/>
      <point x="363" y="705"/>
      <point x="366" y="496"/>
      <point x="366" y="379" type="curve"/>
      <point x="366" y="263"/>
      <point x="364" y="-2"/>
    </contour>
    <contour>
      <point x="92" y="250" type="line"/>
      <point x="92" y="216" type="line"/>
      <point x="375" y="216" type="line"/>
      <point x="374" y="255" type="line"/>
    </contour>
    <contour>
      <point x="71" y="0" type="curve"/>
      <point x="114" y="1" type="line"/>
      <point x="114" y="1"/>
      <point x="109" y="234"/>
      <point x="109" y="350" type="curve"/>
      <point x="109" y="466"/>
      <point x="113" y="697"/>
      <point x="113" y="697" type="curve"/>
      <point x="67" y="695" type="line"/>
      <point x="67" y="695"/>
      <point x="76" y="523"/>
      <point x="76" y="352" type="curve"/>
      <point x="76" y="181"/>
      <point x="71" y="0"/>
    </contour>
  </outline>
</glyph>
<glyph name="I" format="2">
  <advance width="209"/>
  <unicode hex="0049"/>
  <anchor x="103" y="0" name="bottom"/>
  <anchor x="125" y="3" name="ogonek"/>
  <anchor x="105" y="693" name="top"/>
  <outline>
    <contour>
      <point x="84" y="700" type="line"/>
      <point x="87" y="644"/>
      <point x="88" y="474"/>
      <point x="87" y="379" type="curve"/>
      <point x="87" y="263"/>
      <point x="85" y="-2"/>
      <point x="85" y="-2" type="curve"/>
      <point x="125" y="-2" type="line"/>
      <point x="125" y="-2"/>
      <point x="121" y="210"/>
      <point x="121" y="381" type="curve"/>
      <point x="121" y="552"/>
      <point x="125" y="702"/>
      <point x="125" y="702" type="curve"/>
    </contour>
  </outline>
</glyph>
<glyph name="K" format="2">
  <advance width="419"/>
  <unicode hex="004B"/>
  <anchor x="224" y="0" name="bottom"/>
  <outline>
    <contour>
      <point x="367" y="1" type="curve"/>
      <point x="416" y="5" type="line"/>
      <point x="320" y="100"/>
      <point x="197" y="227"/>
      <point x="133" y="296" type="curve"/>
      <point x="204" y="400"/>
      <point x="347" y="605"/>
      <point x="418" y="704" type="curve"/>
      <point x="374" y="702" type="line"/>
      <point x="312" y="609"/>
      <point x="194" y="434"/>
      <point x="94" y="289" type="curve"/>
      <point x="182" y="198"/>
      <point x="285" y="89"/>
    </contour>
    <contour>
      <point x="70" y="0" type="curve"/>
      <point x="111" y="1" type="line"/>
      <point x="111" y="1"/>
      <point x="107" y="234"/>
      <point x="107" y="350" type="curve"/>
      <point x="107" y="466"/>
      <point x="110" y="697"/>
      <point x="110" y="697" type="curve"/>
      <point x="67" y="699" type="line"/>
      <point x="67" y="699"/>
      <point x="74" y="523"/>
      <point x="74" y="352" type="curve"/>
      <point x="74" y="181"/>
      <point x="70" y="0"/>
    </contour>
  </outline>
</glyph>
<glyph name="L" format="2">
  <advance width="358"/>
  <unicode hex="004C"/>
  <anchor x="211" y="0" name="bottom"/>
  <anchor x="146" y="350" name="center"/>
  <anchor x="90" y="693" name="top"/>
  <anchor x="208" y="478" name="topright"/>
  <outline>
    <contour>
      <point x="70" y="-5" type="curve"/>
      <point x="111" y="1" type="line"/>
      <point x="111" y="1"/>
      <point x="107" y="234"/>
      <point x="107" y="350" type="curve"/>
      <point x="107" y="466"/>
      <point x="110" y="704"/>
      <point x="110" y="704" type="curve"/>
      <point x="67" y="700" type="line"/>
      <point x="67" y="700"/>
      <point x="74" y="523"/>
      <point x="74" y="352" type="curve"/>
      <point x="74" y="181"/>
      <point x="70" y="-5"/>
    </contour>
    <contour>
      <point x="70" y="-5" type="line"/>
      <point x="340" y="0" type="line"/>
      <point x="340" y="27" type="line"/>
      <point x="104" y="30" type="line"/>
    </contour>
  </outline>
</glyph>
<glyph name="M" format="2">
  <advance width="644"/>
  <unicode hex="004D"/>
  <outline>
    <contour>
      <point x="75" y="-1" type="curve"/>
      <point x="115" y="-1" type="line"/>
      <point x="113" y="122"/>
      <point x="112" y="239"/>
      <point x="112" y="351" type="curve" smooth="yes"/>
      <point x="111" y="450"/>
      <point x="110" y="548"/>
      <point x="110" y="638" type="curve"/>
      <point x="137" y="556"/>
      <point x="168" y="454"/>
      <point x="198" y="355" type="curve" smooth="yes"/>
      <point x="235" y="234"/>
      <point x="271" y="113"/>
      <point x="298" y="26" type="curve"/>
      <point x="338" y="23" type="line"/>
      <point x="365" y="110"/>
      <point x="402" y="231"/>
      <point x="439" y="353" type="curve" smooth="yes"/>
      <point x="470" y="453"/>
      <point x="501" y="557"/>
      <point x="528" y="640" type="curve"/>
      <point x="529" y="547"/>
      <point x="530" y="459"/>
      <point x="529" y="360" type="curve" smooth="yes"/>
      <point x="529" y="261"/>
      <point x="529" y="149"/>
      <point x="528" y="0" type="curve"/>
      <point x="568" y="-1" type="line"/>
      <point x="566" y="104"/>
      <point x="565" y="244"/>
      <point x="565" y="376" type="curve" smooth="yes"/>
      <point x="565" y="503"/>
      <point x="566" y="623"/>
      <point x="567" y="697" type="curve"/>
      <point x="506" y="697" type="line"/>
      <point x="479" y="605"/>
      <point x="443" y="480"/>
      <point x="406" y="356" type="curve" smooth="yes"/>
      <point x="376" y="256"/>
      <point x="345" y="156"/>
      <point x="319" y="74" type="curve"/>
      <point x="298" y="141"/>
      <point x="265" y="246"/>
      <point x="232" y="356" type="curve" smooth="yes"/>
      <point x="194" y="479"/>
      <point x="154" y="610"/>
      <point x="126" y="704" type="curve"/>
      <point x="76" y="702" type="line"/>
      <point x="78" y="611"/>
      <point x="78" y="479"/>
      <point x="78" y="347" type="curve" smooth="yes"/>
      <point x="78" y="217"/>
      <point x="77" y="88"/>
    </contour>
  </outline>
</glyph>
<glyph name="N" format="2">
  <advance width="479"/>
  <unicode hex="004E"/>
  <anchor x="238" y="0" name="bottom"/>
  <anchor x="241" y="693" name="top"/>
  <outline>
    <contour>
      <point x="69" y="704" type="line"/>
      <point x="72" y="616"/>
      <point x="73" y="486"/>
      <point x="74" y="355" type="curve" smooth="yes"/>
      <point x="74" y="225"/>
      <point x="74" y="93"/>
      <point x="72" y="1" type="curve"/>
      <point x="112" y="0" type="line"/>
      <point x="110" y="130"/>
      <point x="110" y="251"/>
      <point x="109" y="364" type="curve" smooth="yes"/>
      <point x="109" y="458"/>
      <point x="108" y="547"/>
      <point x="108" y="628" type="curve"/>
      <point x="125" y="587"/>
      <point x="172" y="472"/>
      <point x="225" y="339" type="curve" smooth="yes"/>
      <point x="270" y="227"/>
      <point x="319" y="104"/>
      <point x="361" y="-1" type="curve"/>
      <point x="408" y="3" type="line"/>
      <point x="406" y="111"/>
      <point x="405" y="255"/>
      <point x="406" y="391" type="curve" smooth="yes"/>
      <point x="406" y="518"/>
      <point x="407" y="637"/>
      <point x="410" y="715" type="curve"/>
      <point x="367" y="715" type="line"/>
      <point x="369" y="600"/>
      <point x="369" y="492"/>
      <point x="370" y="382" type="curve" smooth="yes"/>
      <point x="370" y="283"/>
      <point x="371" y="182"/>
      <point x="371" y="72" type="curve"/>
      <point x="342" y="138"/>
      <point x="296" y="253"/>
      <point x="249" y="372" type="curve" smooth="yes"/>
      <point x="200" y="495"/>
      <point x="150" y="622"/>
      <point x="120" y="704" type="curve"/>
    </contour>
  </outline>
</glyph>
<glyph name="P" format="2">
  <advance width="407"/>
  <unicode hex="0050"/>
  <outline>
    <contour>
      <point x="101" y="220" type="line"/>
      <point x="272" y="220"/>
      <point x="363" y="294"/>
      <point x="363" y="472" type="curve" smooth="yes"/>
      <point x="363" y="663"/>
      <point x="309" y="713"/>
      <point x="165" y="713" type="curve" smooth="yes"/>
      <point x="136" y="713"/>
      <point x="103" y="711"/>
      <point x="67" y="708" type="curve"/>
      <point x="81" y="670" type="line"/>
      <point x="117" y="676"/>
      <point x="148" y="679"/>
      <point x="175" y="679" type="curve" smooth="yes"/>
      <point x="290" y="679"/>
      <point x="328" y="624"/>
      <point x="328" y="469" type="curve" smooth="yes"/>
      <point x="328" y="323"/>
      <point x="260" y="246"/>
      <point x="97" y="254" type="curve"/>
    </contour>
    <contour>
      <point x="70" y="-2" type="curve"/>
      <point x="111" y="1" type="line"/>
      <point x="109" y="101"/>
      <point x="107" y="265"/>
      <point x="107" y="350" type="curve"/>
      <point x="107" y="385"/>
      <point x="109" y="662"/>
      <point x="110" y="698" type="curve"/>
      <point x="67" y="708" type="line"/>
      <point x="70" y="628"/>
      <point x="74" y="477"/>
      <point x="74" y="352" type="curve"/>
      <point x="74" y="227"/>
      <point x="72" y="77"/>
    </contour>
  </outline>
</glyph>
<glyph name="R" format="2">
  <advance width="433"/>
  <unicode hex="0052"/>
  <anchor x="225" y="0" name="bottom"/>
  <anchor x="213" y="693" name="top"/>
  <outline>
    <contour>
      <point x="107" y="220" type="line"/>
      <point x="278" y="220"/>
      <point x="369" y="294"/>
      <point x="369" y="472" type="curve" smooth="yes"/>
      <point x="369" y="663"/>
      <point x="315" y="713"/>
      <point x="171" y="713" type="curve" smooth="yes"/>
      <point x="142" y="713"/>
      <point x="109" y="711"/>
      <point x="73" y="708" type="curve"/>
      <point x="87" y="670" type="line"/>
      <point x="123" y="676"/>
      <point x="154" y="679"/>
      <point x="181" y="679" type="curve" smooth="yes"/>
      <point x="296" y="679"/>
      <point x="334" y="624"/>
      <point x="334" y="469" type="curve" smooth="yes"/>
      <point x="334" y="323"/>
      <point x="266" y="246"/>
      <point x="103" y="254" type="curve"/>
    </contour>
    <contour>
      <point x="76" y="-2" type="curve"/>
      <point x="117" y="1" type="line"/>
      <point x="115" y="101"/>
      <point x="113" y="265"/>
      <point x="113" y="350" type="curve"/>
      <point x="113" y="385"/>
      <point x="115" y="662"/>
      <point x="116" y="698" type="curve"/>
      <point x="73" y="708" type="line"/>
      <point x="76" y="628"/>
      <point x="80" y="477"/>
      <point x="80" y="352" type="curve"/>
      <point x="80" y="227"/>
      <point x="78" y="77"/>
    </contour>
    <contour>
      <point x="360" y="-6" type="curve"/>
      <point x="405" y="-3" type="line"/>
      <point x="348" y="93"/>
      <point x="303" y="184"/>
      <point x="262" y="273" type="curve"/>
      <point x="235" y="248" type="line"/>
      <point x="282" y="159"/>
      <point x="322" y="78"/>
    </contour>
  </outline>
</glyph>
<glyph name="S" format="2">
  <advance width="422"/>
  <unicode hex="0053"/>
  <anchor x="212" y="0" name="bottom"/>
  <anchor x="216" y="693" name="top"/>
  <outline>
    <contour>
      <point x="208" y="-10" type="curve" smooth="yes"/>
      <point x="318" y="-10"/>
      <point x="366" y="49"/>
      <point x="366" y="134" type="curve" smooth="yes"/>
      <point x="366" y="231"/>
      <point x="285" y="279"/>
      <point x="212" y="334" type="curve" smooth="yes"/>
      <point x="152" y="379"/>
      <point x="97" y="429"/>
      <point x="97" y="514" type="curve" smooth="yes"/>
      <point x="97" y="614"/>
      <point x="130" y="673"/>
      <point x="217" y="673" type="curve" smooth="yes"/>
      <point x="308" y="673"/>
      <point x="331" y="601"/>
      <point x="331" y="509" type="curve" smooth="yes"/>
      <point x="331" y="483"/>
      <point x="330" y="456"/>
      <point x="327" y="428" type="curve"/>
      <point x="360" y="428" type="line"/>
      <point x="363" y="457"/>
      <point x="364" y="486"/>
      <point x="364" y="514" type="curve" smooth="yes"/>
      <point x="364" y="619"/>
      <point x="338" y="704"/>
      <point x="216" y="704" type="curve" smooth="yes"/>
      <point x="115" y="704"/>
      <point x="63" y="628"/>
      <point x="63" y="526" type="curve" smooth="yes"/>
      <point x="63" y="413"/>
      <point x="124" y="357"/>
      <point x="187" y="311" type="curve" smooth="yes"/>
      <point x="257" y="260"/>
      <point x="331" y="220"/>
      <point x="331" y="127" type="curve" smooth="yes"/>
      <point x="331" y="63"/>
      <point x="299" y="20"/>
      <point x="207" y="20" type="curve" smooth="yes"/>
      <point x="120" y="20"/>
      <point x="97" y="78"/>
      <point x="97" y="135" type="curve" smooth="yes"/>
      <point x="97" y="152"/>
      <point x="99" y="168"/>
      <point x="102" y="183" type="curve"/>
      <point x="68" y="183" type="line"/>
      <point x="66" y="168"/>
      <point x="65" y="152"/>
      <point x="65" y="137" type="curve" smooth="yes"/>
      <point x="65" y="60"/>
      <point x="97" y="-10"/>
    </contour>
  </outline>
</glyph>
<glyph name="T" format="2">
  <advance width="376"/>
  <unicode hex="0054"/>
  <anchor x="184" y="1" name="bottom"/>
  <anchor x="183" y="347" name="center"/>
  <anchor x="184" y="693" name="top"/>
  <outline>
    <contour>
      <point x="163" y="0" type="curve"/>
      <point x="204" y="1" type="line"/>
      <point x="204" y="1"/>
      <point x="200" y="234"/>
      <point x="200" y="350" type="curve"/>
      <point x="200" y="466"/>
      <point x="203" y="697"/>
      <point x="203" y="697" type="curve"/>
      <point x="160" y="699" type="line"/>
      <point x="160" y="699"/>
      <point x="167" y="523"/>
      <point x="167" y="352" type="curve"/>
      <point x="167" y="181"/>
      <point x="163" y="0"/>
    </contour>
    <contour>
      <point x="9" y="662" type="line"/>
      <point x="9" y="662"/>
      <point x="133" y="667"/>
      <point x="183" y="668" type="curve"/>
      <point x="233" y="668"/>
      <point x="366" y="670"/>
      <point x="366" y="670" type="curve"/>
      <point x="363" y="704" type="line"/>
      <point x="363" y="704"/>
      <point x="219" y="702"/>
      <point x="170" y="702" type="curve"/>
      <point x="121" y="702"/>
      <point x="12" y="701"/>
      <point x="12" y="701" type="curve"/>
    </contour>
  </outline>
</glyph>
<glyph name="U" format="2">
  <advance width="455"/>
  <unicode hex="0055"/>
  <anchor x="229" y="0" name="bottom"/>
  <anchor x="259" y="0" name="ogonek"/>
  <anchor x="230" y="693" name="top"/>
  <anchor x="326" y="693" name="topright"/>
  <outline>
    <contour>
      <point x="227" y="-10" type="curve"/>
      <point x="363" y="-10"/>
      <point x="390" y="94"/>
      <point x="390" y="182" type="curve" smooth="yes"/>
      <point x="390" y="212"/>
      <point x="390" y="308"/>
      <point x="389" y="422" type="curve"/>
      <point x="389" y="554"/>
      <point x="391" y="617"/>
      <point x="392" y="706" type="curve"/>
      <point x="349" y="707" type="line"/>
      <point x="351" y="645"/>
      <point x="354" y="551"/>
      <point x="355" y="424" type="curve"/>
      <point x="355" y="302"/>
      <point x="354" y="186"/>
      <point x="354" y="166" type="curve" smooth="yes"/>
      <point x="354" y="98"/>
      <point x="333" y="19"/>
      <point x="229" y="19" type="curve" smooth="yes"/>
      <point x="133" y="19"/>
      <point x="98" y="82"/>
      <point x="98" y="179" type="curve" smooth="yes"/>
      <point x="98" y="219"/>
      <point x="98" y="349"/>
      <point x="99" y="426" type="curve"/>
      <point x="100" y="494"/>
      <point x="101" y="607"/>
      <point x="104" y="695" type="curve"/>
      <point x="63" y="696" type="line"/>
      <point x="66" y="603"/>
      <point x="66" y="522"/>
      <point x="66" y="432" type="curve"/>
      <point x="66" y="364"/>
      <point x="65" y="250"/>
      <point x="65" y="180" type="curve" smooth="yes"/>
      <point x="65" y="66"/>
      <point x="102" y="-10"/>
    </contour>
  </outline>
</glyph>
<glyph name="X" format="2">
  <advance width="413"/>
  <unicode hex="0058"/>
  <outline>
    <contour>
      <point x="12" y="-1" type="curve"/>
      <point x="56" y="0" type="line"/>
      <point x="74" y="42"/>
      <point x="153" y="207"/>
      <point x="225" y="356" type="curve" smooth="yes"/>
      <point x="290" y="489"/>
      <point x="367" y="641"/>
      <point x="394" y="693" type="curve"/>
      <point x="351" y="694" type="line"/>
      <point x="332" y="651"/>
      <point x="259" y="495"/>
      <point x="191" y="354" type="curve" smooth="yes"/>
      <point x="124" y="215"/>
      <point x="40" y="55"/>
    </contour>
    <contour>
      <point x="357" y="-7" type="curve"/>
      <point x="401" y="-7" type="line"/>
      <point x="373" y="50"/>
      <point x="289" y="224"/>
      <point x="225" y="364" type="curve" smooth="yes"/>
      <point x="163" y="503"/>
      <point x="98" y="644"/>
      <point x="78" y="690" type="curve"/>
      <point x="32" y="691" type="line"/>
      <point x="59" y="638"/>
      <point x="135" y="486"/>
      <point x="198" y="353" type="curve" smooth="yes"/>
      <point x="266" y="207"/>
      <point x="339" y="38"/>
    </contour>
  </outline>
</glyph>
<glyph name="Y" format="2">
  <advance width="379"/>
  <unicode hex="0059"/>
  <anchor x="187" y="0" name="bottom"/>
  <anchor x="189" y="693" name="top"/>
  <outline>
    <contour>
      <point x="168" y="0" type="curve"/>
      <point x="207" y="1" type="line"/>
      <point x="206" y="43"/>
      <point x="204" y="143"/>
      <point x="201" y="222" type="curve"/>
      <point x="168" y="226" type="line"/>
      <point x="169" y="122"/>
      <point x="169" y="43"/>
    </contour>
    <contour>
      <point x="15" y="704" type="line"/>
      <point x="40" y="623"/>
      <point x="68" y="530"/>
      <point x="95" y="438" type="curve" smooth="yes"/>
      <point x="123" y="344"/>
      <point x="150" y="250"/>
      <point x="173" y="171" type="curve"/>
      <point x="198" y="174" type="line"/>
      <point x="219" y="244"/>
      <point x="249" y="340"/>
      <point x="280" y="438" type="curve" smooth="yes"/>
      <point x="309" y="529"/>
      <point x="340" y="621"/>
      <point x="365" y="697" type="curve"/>
      <point x="325" y="695" type="line"/>
      <point x="300" y="613"/>
      <point x="272" y="521"/>
      <point x="246" y="439" type="curve" smooth="yes"/>
      <point x="221" y="359"/>
      <point x="199" y="289"/>
      <point x="185" y="247" type="curve"/>
      <point x="173" y="288"/>
      <point x="150" y="361"/>
      <point x="127" y="444" type="curve" smooth="yes"/>
      <point x="103" y="530"/>
      <point x="78" y="627"/>
      <point x="57" y="704" type="curve"/>
    </contour>
  </outline>
</glyph>
<glyph name="Z" format="2">
  <advance width="363"/>
  <unicode hex="005A"/>
  <anchor x="176" y="693" name="top"/>
  <outline>
    <contour>
      <point x="37" y="693" type="curve"/>
      <point x="35" y="660" type="line"/>
      <point x="67" y="661"/>
      <point x="119" y="662"/>
      <point x="167" y="662" type="curve" smooth="yes"/>
      <point x="205" y="662"/>
      <point x="249" y="661"/>
      <point x="294" y="660" type="curve"/>
      <point x="266" y="593"/>
      <point x="213" y="473"/>
      <point x="156" y="344" type="curve" smooth="yes"/>
      <point x="110" y="239"/>
      <point x="60" y="128"/>
      <point x="18" y="33" type="curve"/>
      <point x="19" y="1" type="line"/>
      <point x="57" y="2"/>
      <point x="128" y="3"/>
      <point x="181" y="3" type="curve" smooth="yes"/>
      <point x="234" y="3"/>
      <point x="303" y="1"/>
      <point x="339" y="0" type="curve"/>
      <point x="343" y="36" type="line"/>
      <point x="308" y="35"/>
      <point x="251" y="34"/>
      <point x="202" y="33" type="curve" smooth="yes"/>
      <point x="163" y="32"/>
      <point x="109" y="33"/>
      <point x="58" y="33" type="curve"/>
      <point x="93" y="116"/>
      <point x="140" y="223"/>
      <point x="186" y="329" type="curve" smooth="yes"/>
      <point x="241" y="458"/>
      <point x="298" y="584"/>
      <point x="335" y="660" type="curve"/>
      <point x="335" y="695" type="line"/>
      <point x="302" y="694"/>
      <point x="244" y="693"/>
      <point x="190" y="692" type="curve" smooth="yes"/>
      <point x="137" y="691"/>
      <point x="72" y="692"/>
    </contour>
  </outline>
</glyph>
<glyph name="bracketleft" format="2">
  <advance width="419"/>
  <unicode hex="005B"/>
  <outline>
    <contour>
      <point x="105" y="-136" type="curve"/>
      <point x="138" y="-131" type="line"/>
      <point x="138" y="-70"/>
      <point x="138" y="196"/>
      <point x="138" y="315" type="curve" smooth="yes"/>
      <point x="138" y="434"/>
      <point x="138" y="635"/>
      <point x="138" y="681" type="curve"/>
      <point x="106" y="691" type="line"/>
      <point x="107" y="637"/>
      <point x="110" y="465"/>
      <point x="110" y="304" type="curve" smooth="yes"/>
      <point x="110" y="136"/>
      <point x="107" y="-78"/>
    </contour>
    <contour>
      <point x="105" y="-136" type="line"/>
      <point x="151" y="-134"/>
      <point x="283" y="-132"/>
      <point x="313" y="-131" type="curve"/>
      <point x="314" y="-105" type="line"/>
      <point x="285" y="-104"/>
      <point x="160" y="-103"/>
      <point x="119" y="-102" type="curve"/>
    </contour>
    <contour>
      <point x="128" y="661" type="line"/>
      <point x="166" y="662"/>
      <point x="286" y="663"/>
      <point x="314" y="663" type="curve"/>
      <point x="311" y="693" type="line"/>
      <point x="283" y="692"/>
      <point x="149" y="691"/>
      <point x="106" y="691" type="curve"/>
    </contour>
  </outline>
</glyph>
<glyph name="bracketright" format="2">
  <advance width="419"/>
  <unicode hex="005D"/>
  <outline>
    <contour>
      <point x="313" y="-134" type="line"/>
      <point x="312" y="-80"/>
      <point x="309" y="92"/>
      <point x="309" y="253" type="curve" smooth="yes"/>
      <point x="309" y="421"/>
      <point x="312" y="635"/>
      <point x="314" y="693" type="curve"/>
      <point x="281" y="688" type="line"/>
      <point x="281" y="627"/>
      <point x="281" y="361"/>
      <point x="281" y="242" type="curve" smooth="yes"/>
      <point x="281" y="123"/>
      <point x="281" y="-78"/>
      <point x="281" y="-124" type="curve"/>
    </contour>
    <contour>
      <point x="108" y="-136" type="line"/>
      <point x="136" y="-135"/>
      <point x="270" y="-134"/>
      <point x="313" y="-134" type="curve"/>
      <point x="291" y="-104" type="line"/>
      <point x="253" y="-105"/>
      <point x="133" y="-106"/>
      <point x="105" y="-106" type="curve"/>
    </contour>
    <contour>
      <point x="105" y="662" type="line"/>
      <point x="134" y="661"/>
      <point x="259" y="660"/>
      <point x="300" y="659" type="curve"/>
      <point x="314" y="693" type="line"/>
      <point x="268" y="691"/>
      <point x="136" y="689"/>
      <point x="106" y="688" type="curve"/>
    </contour>
  </outline>
</glyph>
<glyph name="asciicircum" format="2">
  <advance width="472"/>
  <unicode hex="005E"/>
  <outline>
    <contour>
      <point x="341" y="371" type="curve"/>
      <point x="388" y="373" type="line"/>
      <point x="371" y="411"/>
      <point x="330" y="504"/>
      <point x="310" y="549" type="curve" smooth="yes"/>
      <point x="287" y="601"/>
      <point x="257" y="674"/>
      <point x="247" y="696" type="curve"/>
      <point x="215" y="694" type="line"/>
      <point x="230" y="660"/>
      <point x="264" y="574"/>
      <point x="284" y="524" type="curve" smooth="yes"/>
      <point x="305" y="471"/>
      <point x="332" y="395"/>
    </contour>
    <contour>
      <point x="125" y="374" type="line"/>
      <point x="134" y="401"/>
      <point x="161" y="484"/>
      <point x="179" y="533" type="curve" smooth="yes"/>
      <point x="196" y="579"/>
      <point x="221" y="660"/>
      <point x="234" y="695" type="curve"/>
      <point x="203" y="694" type="line"/>
      <point x="193" y="670"/>
      <point x="166" y="591"/>
      <point x="144" y="532" type="curve" smooth="yes"/>
      <point x="125" y="482"/>
      <point x="97" y="408"/>
      <point x="83" y="376" type="curve"/>
    </contour>
  </outline>
</glyph>
<glyph name="underscore" format="2">
  <advance width="404"/>
  <unicode hex="005F"/>
  <outline>
    <contour>
      <point x="32" y="-94" type="line"/>
      <point x="32" y="-94"/>
      <point x="136" y="-91"/>
      <point x="203" y="-90" type="curve" smooth="yes"/>
      <point x="275" y="-89"/>
      <point x="372" y="-91"/>
      <point x="372" y="-91" type="curve"/>
      <point x="374" y="-64" type="line"/>
      <point x="374" y="-64"/>
      <point x="272" y="-67"/>
      <point x="197" y="-68" type="curve" smooth="yes"/>
      <point x="123" y="-69"/>
      <point x="30" y="-66"/>
      <point x="30" y="-66" type="curve"/>
    </contour>
  </outline>
</glyph>
<glyph name="a" format="2">
  <advance width="358"/>
  <unicode hex="0061"/>
  <anchor x="177" y="0" name="bottom"/>
  <anchor x="309" y="5" name="ogonek"/>
  <anchor x="177" y="555" name="top"/>
  <outline>
    <contour>
      <point x="270" y="0" type="line"/>
      <point x="304" y="-1" type="line"/>
      <point x="301" y="238" type="line"/>
      <point x="304" y="391" type="line" smooth="yes"/>
      <point x="305" y="456"/>
      <point x="292" y="565"/>
      <point x="180" y="565" type="curve" smooth="yes"/>
      <point x="100" y="565"/>
      <point x="56" y="513"/>
      <point x="56" y="434" type="curve" smooth="yes"/>
      <point x="56" y="414"/>
      <point x="58" y="392"/>
      <point x="64" y="368" type="curve"/>
      <point x="95" y="371" type="line"/>
      <point x="90" y="392"/>
      <point x="87" y="412"/>
      <point x="87" y="432" type="curve" smooth="yes"/>
      <point x="87" y="492"/>
      <point x="113" y="535"/>
      <point x="179" y="535" type="curve" smooth="yes"/>
      <point x="237" y="535"/>
      <point x="270" y="498"/>
      <point x="270" y="404" type="curve" smooth="yes"/>
      <point x="270" y="149" type="line"/>
    </contour>
    <contour>
      <point x="142" y="-7" type="curve" smooth="yes"/>
      <point x="262" y="-7"/>
      <point x="293" y="144"/>
      <point x="296" y="277" type="curve"/>
      <point x="272" y="239" type="line"/>
      <point x="272" y="118"/>
      <point x="219" y="25"/>
      <point x="147" y="25" type="curve" smooth="yes"/>
      <point x="93" y="25"/>
      <point x="76" y="61"/>
      <point x="76" y="118" type="curve" smooth="yes"/>
      <point x="76" y="181"/>
      <point x="115" y="211"/>
      <point x="170" y="252" type="curve" smooth="yes"/>
      <point x="227" y="294"/>
      <point x="286" y="323"/>
      <point x="286" y="393" type="curve"/>
      <point x="270" y="404" type="line"/>
      <point x="270" y="343"/>
      <point x="198" y="310"/>
      <point x="145" y="271" type="curve" smooth="yes"/>
      <point x="90" y="230"/>
      <point x="41" y="191"/>
      <point x="41" y="112" type="curve" smooth="yes"/>
      <point x="41" y="30"/>
      <point x="89" y="-7"/>
    </contour>
  </outline>
</glyph>
<glyph name="b" format="2">
  <advance width="400"/>
  <unicode hex="0062"/>
  <outline>
    <contour>
      <point x="206" y="-8" type="curve" smooth="yes"/>
      <point x="265" y="-8"/>
      <point x="300" y="20"/>
      <point x="320" y="72" type="curve" smooth="yes"/>
      <point x="350" y="151"/>
      <point x="359" y="365"/>
      <point x="342" y="457" type="curve" smooth="yes"/>
      <point x="330" y="523"/>
      <point x="299" y="563"/>
      <point x="232" y="563" type="curve" smooth="yes"/>
      <point x="136" y="563"/>
      <point x="72" y="464"/>
      <point x="72" y="270" type="curve"/>
      <point x="99" y="313" type="line"/>
      <point x="99" y="469"/>
      <point x="167" y="533"/>
      <point x="229" y="533" type="curve" smooth="yes"/>
      <point x="280" y="533"/>
      <point x="303" y="503"/>
      <point x="312" y="444" type="curve" smooth="yes"/>
      <point x="324" y="368"/>
      <point x="320" y="163"/>
      <point x="296" y="91" type="curve" smooth="yes"/>
      <point x="281" y="45"/>
      <point x="256" y="21"/>
      <point x="211" y="21" type="curve" smooth="yes"/>
      <point x="127" y="21"/>
      <point x="99" y="99"/>
      <point x="99" y="235" type="curve"/>
      <point x="72" y="276" type="line"/>
      <point x="72" y="47"/>
      <point x="129" y="-8"/>
    </contour>
    <contour>
      <point x="98" y="-1" type="line"/>
      <point x="98" y="93" type="line"/>
      <point x="98" y="173"/>
      <point x="99" y="275"/>
      <point x="99" y="343" type="curve"/>
      <point x="99" y="489"/>
      <point x="100" y="690"/>
      <point x="100" y="690" type="curve"/>
      <point x="66" y="687" type="line"/>
      <point x="66" y="687"/>
      <point x="68" y="488"/>
      <point x="68" y="345" type="curve"/>
      <point x="68" y="201"/>
      <point x="68" y="0"/>
      <point x="68" y="0" type="curve"/>
    </contour>
  </outline>
</glyph>
<glyph name="c" format="2">
  <advance width="373"/>
  <unicode hex="0063"/>
  <anchor x="199" y="0" name="bottom"/>
  <anchor x="196" y="555" name="top"/>
  <outline>
    <contour>
      <point x="191" y="-10" type="curve" smooth="yes"/>
      <point x="298" y="-10"/>
      <point x="326" y="54"/>
      <point x="326" y="154" type="curve" smooth="yes"/>
      <point x="326" y="164"/>
      <point x="326" y="176"/>
      <point x="325" y="187" type="curve"/>
      <point x="294" y="187" type="line"/>
      <point x="295" y="171"/>
      <point x="296" y="154"/>
      <point x="296" y="139" type="curve" smooth="yes"/>
      <point x="296" y="75"/>
      <point x="279" y="20"/>
      <point x="196" y="20" type="curve" smooth="yes"/>
      <point x="138" y="20"/>
      <point x="107" y="59"/>
      <point x="92" y="122" type="curve" smooth="yes"/>
      <point x="81" y="167"/>
      <point x="78" y="225"/>
      <point x="78" y="290" type="curve" smooth="yes"/>
      <point x="78" y="332"/>
      <point x="81" y="374"/>
      <point x="87" y="410" type="curve" smooth="yes"/>
      <point x="100" y="485"/>
      <point x="130" y="539"/>
      <point x="201" y="539" type="curve" smooth="yes"/>
      <point x="271" y="539"/>
      <point x="297" y="484"/>
      <point x="297" y="389" type="curve" smooth="yes"/>
      <point x="297" y="363"/>
      <point x="295" y="336"/>
      <point x="292" y="305" type="curve"/>
      <point x="323" y="305" type="line"/>
      <point x="326" y="333"/>
      <point x="328" y="360"/>
      <point x="328" y="384" type="curve" smooth="yes"/>
      <point x="328" y="495"/>
      <point x="292" y="566"/>
      <point x="206" y="566" type="curve" smooth="yes"/>
      <point x="120" y="566"/>
      <point x="77" y="509"/>
      <point x="58" y="421" type="curve" smooth="yes"/>
      <point x="50" y="383"/>
      <point x="46" y="339"/>
      <point x="46" y="291" type="curve" smooth="yes"/>
      <point x="46" y="230"/>
      <point x="47" y="161"/>
      <point x="62" y="105" type="curve" smooth="yes"/>
      <point x="80" y="39"/>
      <point x="116" y="-10"/>
    </contour>
  </outline>
</glyph>
<glyph name="d" format="2">
  <advance width="394"/>
  <unicode hex="0064"/>
  <anchor x="298" y="623" name="center"/>
  <anchor x="354" y="478" name="topright"/>
  <outline>
    <contour>
      <point x="56" y="260" type="curve" smooth="yes"/>
      <point x="56" y="198"/>
      <point x="58" y="144"/>
      <point x="67" y="101" type="curve" smooth="yes"/>
      <point x="81" y="33"/>
      <point x="112" y="-8"/>
      <point x="178" y="-8" type="curve" smooth="yes"/>
      <point x="255" y="-8"/>
      <point x="291" y="52"/>
      <point x="311" y="104" type="curve"/>
      <point x="311" y="0" type="line"/>
      <point x="343" y="-1" type="line"/>
      <point x="343" y="76"/>
      <point x="340" y="335"/>
      <point x="340" y="357" type="curve" smooth="yes"/>
      <point x="340" y="469"/>
      <point x="341" y="580"/>
      <point x="342" y="692" type="curve"/>
      <point x="311" y="690" type="line"/>
      <point x="311" y="623"/>
      <point x="312" y="547"/>
      <point x="312" y="480" type="curve"/>
      <point x="293" y="535"/>
      <point x="258" y="565"/>
      <point x="200" y="565" type="curve" smooth="yes"/>
      <point x="144" y="565"/>
      <point x="108" y="534"/>
      <point x="87" y="483" type="curve" smooth="yes"/>
      <point x="64" y="427"/>
      <point x="56" y="347"/>
    </contour>
    <contour>
      <point x="88" y="276" type="curve" smooth="yes"/>
      <point x="88" y="339"/>
      <point x="91" y="413"/>
      <point x="112" y="466" type="curve" smooth="yes"/>
      <point x="128" y="507"/>
      <point x="153" y="536"/>
      <point x="194" y="536" type="curve" smooth="yes"/>
      <point x="252" y="536"/>
      <point x="280" y="504"/>
      <point x="295" y="454" type="curve" smooth="yes"/>
      <point x="308" y="410"/>
      <point x="309" y="352"/>
      <point x="309" y="288" type="curve" smooth="yes"/>
      <point x="309" y="228"/>
      <point x="304" y="178"/>
      <point x="293" y="137" type="curve" smooth="yes"/>
      <point x="273" y="62"/>
      <point x="236" y="22"/>
      <point x="181" y="22" type="curve" smooth="yes"/>
      <point x="130" y="22"/>
      <point x="108" y="53"/>
      <point x="96" y="113" type="curve" smooth="yes"/>
      <point x="88" y="154"/>
      <point x="88" y="208"/>
    </contour>
  </outline>
</glyph>
<glyph name="e" format="2">
  <advance width="375"/>
  <unicode hex="0065"/>
  <anchor x="194" y="0" name="bottom"/>
  <anchor x="232" y="-1" name="ogonek"/>
  <anchor x="199" y="555" name="top"/>
  <outline>
    <contour>
      <point x="194" y="-10" type="curve" smooth="yes"/>
      <point x="301" y="-10"/>
      <point x="334" y="51"/>
      <point x="334" y="158" type="curve" smooth="yes"/>
      <point x="334" y="167"/>
      <point x="333" y="177"/>
      <point x="333" y="187" type="curve"/>
      <point x="298" y="187" type="line"/>
      <point x="299" y="171"/>
      <point x="300" y="155"/>
      <point x="300" y="139" type="curve" smooth="yes"/>
      <point x="300" y="75"/>
      <point x="283" y="20"/>
      <point x="199" y="20" type="curve" smooth="yes"/>
      <point x="141" y="20"/>
      <point x="111" y="60"/>
      <point x="96" y="123" type="curve" smooth="yes"/>
      <point x="85" y="168"/>
      <point x="82" y="226"/>
      <point x="82" y="290" type="curve" smooth="yes"/>
      <point x="82" y="331"/>
      <point x="85" y="372"/>
      <point x="91" y="409" type="curve" smooth="yes"/>
      <point x="103" y="482"/>
      <point x="135" y="538"/>
      <point x="204" y="538" type="curve" smooth="yes"/>
      <point x="282" y="538"/>
      <point x="301" y="472"/>
      <point x="301" y="390" type="curve" smooth="yes"/>
      <point x="301" y="362"/>
      <point x="299" y="333"/>
      <point x="296" y="303" type="curve"/>
      <point x="325" y="276" type="line"/>
      <point x="329" y="311"/>
      <point x="332" y="347"/>
      <point x="332" y="383" type="curve" smooth="yes"/>
      <point x="332" y="480"/>
      <point x="308" y="565"/>
      <point x="209" y="565" type="curve" smooth="yes"/>
      <point x="125" y="565"/>
      <point x="80" y="509"/>
      <point x="62" y="422" type="curve" smooth="yes"/>
      <point x="54" y="384"/>
      <point x="50" y="339"/>
      <point x="50" y="291" type="curve" smooth="yes"/>
      <point x="50" y="223"/>
      <point x="53" y="158"/>
      <point x="66" y="107" type="curve" smooth="yes"/>
      <point x="84" y="36"/>
      <point x="121" y="-10"/>
    </contour>
    <contour>
      <point x="66" y="272" type="line"/>
      <point x="149" y="277"/>
      <point x="325" y="276"/>
      <point x="325" y="276" type="curve"/>
      <point x="327" y="306" type="line"/>
      <point x="66" y="304" type="line"/>
    </contour>
  </outline>
</glyph>
<glyph name="g" format="2">
  <advance width="396"/>
  <unicode hex="0067"/>
  <anchor x="202" y="555" name="top"/>
  <outline>
    <contour>
      <point x="188" y="-166" type="curve"/>
      <point x="306" y="-166"/>
      <point x="332" y="-78"/>
      <point x="332" y="11" type="curve"/>
      <point x="333" y="77"/>
      <point x="332" y="125"/>
      <point x="333" y="277" type="curve"/>
      <point x="333" y="384"/>
      <point x="340" y="498"/>
      <point x="346" y="555" type="curve"/>
      <point x="316" y="555" type="line"/>
      <point x="310" y="497"/>
      <point x="301" y="381"/>
      <point x="301" y="276" type="curve"/>
      <point x="301" y="133"/>
      <point x="300" y="63"/>
      <point x="300" y="13" type="curve"/>
      <point x="300" y="-72"/>
      <point x="282" y="-139"/>
      <point x="193" y="-139" type="curve"/>
      <point x="118" y="-139"/>
      <point x="104" y="-105"/>
      <point x="104" y="-65" type="curve" smooth="yes"/>
      <point x="104" y="-58"/>
      <point x="105" y="-51"/>
      <point x="106" y="-44" type="curve"/>
      <point x="76" y="-50" type="line"/>
      <point x="75" y="-58"/>
      <point x="74" y="-65"/>
      <point x="74" y="-73" type="curve" smooth="yes"/>
      <point x="74" y="-121"/>
      <point x="101" y="-166"/>
    </contour>
    <contour>
      <point x="180" y="-9" type="curve" smooth="yes"/>
      <point x="308" y="-9"/>
      <point x="331" y="166"/>
      <point x="331" y="275" type="curve"/>
      <point x="301" y="232" type="line"/>
      <point x="301" y="82"/>
      <point x="237" y="21"/>
      <point x="184" y="21" type="curve" smooth="yes"/>
      <point x="134" y="21"/>
      <point x="110" y="61"/>
      <point x="98" y="120" type="curve" smooth="yes"/>
      <point x="89" y="164"/>
      <point x="88" y="219"/>
      <point x="88" y="275" type="curve" smooth="yes"/>
      <point x="88" y="323"/>
      <point x="90" y="370"/>
      <point x="97" y="410" type="curve" smooth="yes"/>
      <point x="110" y="483"/>
      <point x="137" y="535"/>
      <point x="194" y="535" type="curve" smooth="yes"/>
      <point x="269" y="535"/>
      <point x="301" y="462"/>
      <point x="301" y="311" type="curve"/>
      <point x="331" y="269" type="line"/>
      <point x="331" y="491"/>
      <point x="283" y="563"/>
      <point x="197" y="563" type="curve" smooth="yes"/>
      <point x="120" y="563"/>
      <point x="81" y="504"/>
      <point x="66" y="418" type="curve" smooth="yes"/>
      <point x="59" y="378"/>
      <point x="56" y="331"/>
      <point x="56" y="281" type="curve" smooth="yes"/>
      <point x="56" y="230"/>
      <point x="56" y="165"/>
      <point x="69" y="109" type="curve" smooth="yes"/>
      <point x="84" y="43"/>
      <point x="114" y="-9"/>
    </contour>
  </outline>
</glyph>
<glyph name="h" format="2">
  <advance width="405"/>
  <unicode hex="0068"/>
  <anchor x="205" y="0" name="bottom"/>
  <anchor x="146" y="627" name="center"/>
  <anchor x="87" y="669" name="top"/>
  <outline>
    <contour>
      <point x="69" y="0" type="curve"/>
      <point x="103" y="0" type="line"/>
      <point x="103" y="0"/>
      <point x="103" y="173"/>
      <point x="103" y="316" type="curve"/>
      <point x="103" y="460"/>
      <point x="105" y="694"/>
      <point x="105" y="694" type="curve"/>
      <point x="69" y="694" type="line"/>
      <point x="69" y="694"/>
      <point x="72" y="431"/>
      <point x="72" y="285" type="curve"/>
      <point x="72" y="140"/>
      <point x="69" y="0"/>
    </contour>
    <contour>
      <point x="343" y="-1" type="line"/>
      <point x="343" y="50"/>
      <point x="340" y="111"/>
      <point x="340" y="244" type="curve" smooth="yes"/>
      <point x="340" y="337"/>
      <point x="340" y="373"/>
      <point x="340" y="421" type="curve" smooth="yes"/>
      <point x="340" y="520"/>
      <point x="301" y="562"/>
      <point x="236" y="562" type="curve" smooth="yes"/>
      <point x="143" y="562"/>
      <point x="80" y="467"/>
      <point x="80" y="303" type="curve"/>
      <point x="103" y="316" type="line"/>
      <point x="103" y="437"/>
      <point x="149" y="532"/>
      <point x="234" y="532" type="curve" smooth="yes"/>
      <point x="285" y="532"/>
      <point x="309" y="497"/>
      <point x="309" y="424" type="curve" smooth="yes"/>
      <point x="309" y="379"/>
      <point x="309" y="315"/>
      <point x="309" y="243" type="curve" smooth="yes"/>
      <point x="309" y="113"/>
      <point x="306" y="46"/>
      <point x="303" y="0" type="curve"/>
    </contour>
  </outline>
</glyph>
<glyph name="i" format="2">
  <advance width="204"/>
  <unicode hex="0069"/>
  <anchor x="101" y="0" name="bottom"/>
  <anchor x="125" y="8" name="ogonek"/>
  <outline>
    <contour>
      <point x="122" y="0" type="line"/>
      <point x="122" y="0"/>
      <point x="120" y="142"/>
      <point x="120" y="285" type="curve"/>
      <point x="120" y="429"/>
      <point x="124" y="556"/>
      <point x="124" y="556" type="curve"/>
      <point x="88" y="556" type="line"/>
      <point x="88" y="556"/>
      <point x="89" y="432"/>
      <point x="89" y="286" type="curve"/>
      <point x="89" y="141"/>
      <point x="85" y="2"/>
      <point x="85" y="2" type="curve"/>
    </contour>
    <contour>
      <point x="125" y="635" type="line"/>
      <point x="125" y="705" type="line"/>
      <point x="84" y="703" type="line"/>
      <point x="87" y="633" type="line"/>
    </contour>
  </outline>
</glyph>
<glyph name="j" format="2">
  <advance width="188"/>
  <unicode hex="006A"/>
  <outline>
    <contour>
      <point x="-8" y="-156" type="line"/>
      <point x="64" y="-155"/>
      <point x="109" y="-112"/>
      <point x="113" y="-30" type="curve" smooth="yes"/>
      <point x="116" y="25"/>
      <point x="115" y="142"/>
      <point x="115" y="285" type="curve"/>
      <point x="115" y="429"/>
      <point x="119" y="556"/>
      <point x="119" y="556" type="curve"/>
      <point x="83" y="556" type="line"/>
      <point x="83" y="556"/>
      <point x="84" y="432"/>
      <point x="84" y="286" type="curve"/>
      <point x="84" y="142"/>
      <point x="82" y="9"/>
      <point x="80" y="-32" type="curve" smooth="yes"/>
      <point x="77" y="-94"/>
      <point x="49" y="-128"/>
      <point x="-9" y="-127" type="curve"/>
    </contour>
    <contour>
      <point x="82" y="633" type="line"/>
      <point x="120" y="636" type="line"/>
      <point x="120" y="705" type="line"/>
      <point x="79" y="703" type="line"/>
    </contour>
  </outline>
</glyph>
<glyph name="k" format="2">
  <advance width="388"/>
  <unicode hex="006B"/>
  <anchor x="212" y="0" name="bottom"/>
  <outline>
    <contour>
      <point x="341" y="0" type="curve"/>
      <point x="382" y="3" type="line"/>
      <point x="292" y="103"/>
      <point x="210" y="199"/>
      <point x="137" y="290" type="curve"/>
      <point x="213" y="386"/>
      <point x="289" y="478"/>
      <point x="358" y="559" type="curve"/>
      <point x="320" y="561" type="line"/>
      <point x="261" y="485"/>
      <point x="195" y="403"/>
      <point x="102" y="289" type="curve"/>
      <point x="180" y="197"/>
      <point x="270" y="88"/>
    </contour>
    <contour>
      <point x="78" y="0" type="curve"/>
      <point x="112" y="0" type="line"/>
      <point x="112" y="0"/>
      <point x="112" y="141"/>
      <point x="112" y="284" type="curve"/>
      <point x="112" y="428"/>
      <point x="114" y="694"/>
      <point x="114" y="694" type="curve"/>
      <point x="78" y="694" type="line"/>
      <point x="78" y="694"/>
      <point x="81" y="431"/>
      <point x="81" y="285" type="curve"/>
      <point x="81" y="140"/>
      <point x="78" y="0"/>
    </contour>
  </outline>
</glyph>
<glyph name="l" format="2">
  <advance width="191"/>
  <unicode hex="006C"/>
  <anchor x="100" y="0" name="bottom"/>
  <anchor x="100" y="359" name="center"/>
  <anchor x="99" y="693" name="top"/>
  <anchor x="181" y="473" name="topright"/>
  <outline>
    <contour>
      <point x="78" y="0" type="curve"/>
      <point x="112" y="6" type="line"/>
      <point x="112" y="64"/>
      <point x="112" y="180"/>
      <point x="112" y="284" type="curve"/>
      <point x="112" y="389"/>
      <point x="113" y="580"/>
      <point x="114" y="694" type="curve"/>
      <point x="78" y="694" type="line"/>
      <point x="79" y="581"/>
      <point x="81" y="392"/>
      <point x="81" y="285" type="curve"/>
      <point x="81" y="179"/>
      <point x="79" y="60"/>
    </contour>
  </outline>
</glyph>
<glyph name="m" format="2">
  <advance width="613"/>
  <unicode hex="006D"/>
  <outline>
    <contour>
      <point x="296" y="0" type="curve"/>
      <point x="336" y="0" type="line"/>
      <point x="336" y="51"/>
      <point x="333" y="187"/>
      <point x="333" y="320" type="curve" smooth="yes"/>
      <point x="333" y="420"/>
      <point x="351" y="562"/>
      <point x="229" y="562" type="curve" smooth="yes"/>
      <point x="136" y="562"/>
      <point x="81" y="467"/>
      <point x="81" y="303" type="curve"/>
      <point x="104" y="316" type="line"/>
      <point x="104" y="437"/>
      <point x="142" y="532"/>
      <point x="227" y="532" type="curve" smooth="yes"/>
      <point x="278" y="532"/>
      <point x="302" y="497"/>
      <point x="302" y="424" type="curve" smooth="yes"/>
      <point x="302" y="379"/>
      <point x="302" y="315"/>
      <point x="302" y="243" type="curve" smooth="yes"/>
      <point x="302" y="113"/>
      <point x="299" y="46"/>
    </contour>
    <contour>
      <point x="67" y="0" type="curve"/>
      <point x="104" y="0" type="line"/>
      <point x="102" y="50"/>
      <point x="104" y="183"/>
      <point x="104" y="316" type="curve"/>
      <point x="102" y="445"/>
      <point x="104" y="523"/>
      <point x="106" y="559" type="curve"/>
      <point x="67" y="556" type="line"/>
      <point x="69" y="524"/>
      <point x="70" y="421"/>
      <point x="71" y="285" type="curve" smooth="yes"/>
      <point x="72" y="152"/>
      <point x="69" y="51"/>
    </contour>
    <contour>
      <point x="555" y="0" type="line"/>
      <point x="558" y="79"/>
      <point x="560" y="171"/>
      <point x="561" y="248" type="curve" smooth="yes"/>
      <point x="562" y="355"/>
      <point x="562" y="387"/>
      <point x="562" y="425" type="curve" smooth="yes"/>
      <point x="562" y="524"/>
      <point x="523" y="566"/>
      <point x="458" y="566" type="curve" smooth="yes"/>
      <point x="365" y="566"/>
      <point x="310" y="471"/>
      <point x="310" y="307" type="curve"/>
      <point x="333" y="320" type="line"/>
      <point x="333" y="441"/>
      <point x="371" y="536"/>
      <point x="456" y="536" type="curve" smooth="yes"/>
      <point x="507" y="536"/>
      <point x="531" y="501"/>
      <point x="531" y="428" type="curve" smooth="yes"/>
      <point x="531" y="363"/>
      <point x="530" y="303"/>
      <point x="529" y="242" type="curve" smooth="yes"/>
      <point x="528" y="169"/>
      <point x="523" y="94"/>
      <point x="518" y="7" type="curve"/>
    </contour>
  </outline>
</glyph>
<glyph name="n" format="2">
  <advance width="410"/>
  <unicode hex="006E"/>
  <anchor x="207" y="0" name="bottom"/>
  <anchor x="216" y="555" name="top"/>
  <anchor x="132" y="558" name="topright"/>
  <outline>
    <contour>
      <point x="348" y="-1" type="line"/>
      <point x="348" y="50"/>
      <point x="345" y="111"/>
      <point x="345" y="244" type="curve" smooth="yes"/>
      <point x="345" y="337"/>
      <point x="345" y="373"/>
      <point x="345" y="421" type="curve" smooth="yes"/>
      <point x="345" y="520"/>
      <point x="306" y="562"/>
      <point x="241" y="562" type="curve" smooth="yes"/>
      <point x="148" y="562"/>
      <point x="87" y="467"/>
      <point x="87" y="303" type="curve"/>
      <point x="110" y="316" type="line"/>
      <point x="110" y="437"/>
      <point x="154" y="532"/>
      <point x="239" y="532" type="curve" smooth="yes"/>
      <point x="290" y="532"/>
      <point x="314" y="497"/>
      <point x="314" y="424" type="curve" smooth="yes"/>
      <point x="314" y="379"/>
      <point x="314" y="315"/>
      <point x="314" y="243" type="curve" smooth="yes"/>
      <point x="315" y="113"/>
      <point x="311" y="46"/>
      <point x="308" y="0" type="curve"/>
    </contour>
    <contour>
      <point x="73" y="0" type="curve"/>
      <point x="110" y="0" type="line"/>
      <point x="108" y="50"/>
      <point x="110" y="183"/>
      <point x="110" y="316" type="curve"/>
      <point x="108" y="445"/>
      <point x="110" y="523"/>
      <point x="112" y="559" type="curve"/>
      <point x="73" y="556" type="line"/>
      <point x="75" y="524"/>
      <point x="76" y="421"/>
      <point x="77" y="285" type="curve" smooth="yes"/>
      <point x="77" y="152"/>
      <point x="75" y="51"/>
    </contour>
  </outline>
</glyph>
<glyph name="o" format="2">
  <advance width="398"/>
  <unicode hex="006F"/>
  <anchor x="202" y="0" name="bottom"/>
  <anchor x="199" y="276" name="center"/>
  <anchor x="247" y="4" name="ogonek"/>
  <anchor x="208" y="555" name="top"/>
  <anchor x="239" y="555" name="topright"/>
  <outline>
    <contour>
      <point x="193" y="-10" type="curve" smooth="yes"/>
      <point x="272" y="-10"/>
      <point x="310" y="39"/>
      <point x="328" y="118" type="curve" smooth="yes"/>
      <point x="339" y="164"/>
      <point x="342" y="220"/>
      <point x="342" y="282" type="curve" smooth="yes"/>
      <point x="342" y="338"/>
      <point x="339" y="391"/>
      <point x="329" y="435" type="curve" smooth="yes"/>
      <point x="313" y="514"/>
      <point x="277" y="566"/>
      <point x="207" y="566" type="curve" smooth="yes"/>
      <point x="132" y="566"/>
      <point x="92" y="516"/>
      <point x="72" y="442" type="curve" smooth="yes"/>
      <point x="60" y="396"/>
      <point x="56" y="341"/>
      <point x="56" y="283" type="curve" smooth="yes"/>
      <point x="56" y="228"/>
      <point x="58" y="171"/>
      <point x="67" y="123" type="curve" smooth="yes"/>
      <point x="82" y="47"/>
      <point x="116" y="-10"/>
    </contour>
    <contour>
      <point x="196" y="20" type="curve" smooth="yes"/>
      <point x="137" y="20"/>
      <point x="110" y="64"/>
      <point x="98" y="130" type="curve" smooth="yes"/>
      <point x="91" y="168"/>
      <point x="89" y="214"/>
      <point x="89" y="263" type="curve" smooth="yes"/>
      <point x="89" y="323"/>
      <point x="91" y="382"/>
      <point x="102" y="431" type="curve" smooth="yes"/>
      <point x="116" y="493"/>
      <point x="146" y="537"/>
      <point x="207" y="537" type="curve" smooth="yes"/>
      <point x="259" y="537"/>
      <point x="286" y="491"/>
      <point x="299" y="430" type="curve" smooth="yes"/>
      <point x="308" y="386"/>
      <point x="310" y="334"/>
      <point x="309" y="286" type="curve" smooth="yes"/>
      <point x="307" y="227"/>
      <point x="305" y="173"/>
      <point x="297" y="129" type="curve" smooth="yes"/>
      <point x="284" y="63"/>
      <point x="257" y="20"/>
    </contour>
  </outline>
</glyph>
<glyph name="q" format="2">
  <advance width="393"/>
  <unicode hex="0071"/>
  <outline>
    <contour>
      <point x="51" y="297" type="curve" smooth="yes"/>
      <point x="51" y="238"/>
      <point x="53" y="181"/>
      <point x="61" y="133" type="curve" smooth="yes"/>
      <point x="75" y="50"/>
      <point x="108" y="-8"/>
      <point x="182" y="-8" type="curve" smooth="yes"/>
      <point x="237" y="-8"/>
      <point x="282" y="19"/>
      <point x="307" y="80" type="curve"/>
      <point x="302" y="-146" type="line"/>
      <point x="337" y="-147" type="line"/>
      <point x="335" y="-44"/>
      <point x="334" y="76"/>
      <point x="334" y="218" type="curve" smooth="yes"/>
      <point x="334" y="361"/>
      <point x="336" y="565"/>
      <point x="336" y="565" type="curve"/>
      <point x="303" y="563" type="line"/>
      <point x="306" y="461" type="line"/>
      <point x="290" y="516"/>
      <point x="261" y="565"/>
      <point x="186" y="565" type="curve" smooth="yes"/>
      <point x="113" y="565"/>
      <point x="78" y="516"/>
      <point x="62" y="437" type="curve" smooth="yes"/>
      <point x="54" y="397"/>
      <point x="51" y="350"/>
    </contour>
    <contour>
      <point x="83" y="281" type="curve" smooth="yes"/>
      <point x="83" y="336"/>
      <point x="84" y="387"/>
      <point x="92" y="428" type="curve" smooth="yes"/>
      <point x="104" y="493"/>
      <point x="130" y="535"/>
      <point x="187" y="535" type="curve" smooth="yes"/>
      <point x="245" y="535"/>
      <point x="275" y="492"/>
      <point x="290" y="428" type="curve" smooth="yes"/>
      <point x="302" y="378"/>
      <point x="303" y="339"/>
      <point x="303" y="281" type="curve" smooth="yes"/>
      <point x="303" y="225"/>
      <point x="302" y="164"/>
      <point x="293" y="124" type="curve" smooth="yes"/>
      <point x="279" y="61"/>
      <point x="249" y="21"/>
      <point x="183" y="21" type="curve" smooth="yes"/>
      <point x="126" y="21"/>
      <point x="101" y="76"/>
      <point x="90" y="147" type="curve" smooth="yes"/>
      <point x="84" y="189"/>
      <point x="83" y="236"/>
    </contour>
  </outline>
</glyph>
<glyph name="r" format="2">
  <advance width="336"/>
  <unicode hex="0072"/>
  <anchor x="95" y="0" name="bottom"/>
  <anchor x="204" y="555" name="top"/>
  <outline>
    <contour>
      <point x="288" y="270" type="curve"/>
      <point x="318" y="271" type="line"/>
      <point x="327" y="324"/>
      <point x="334" y="377"/>
      <point x="334" y="424" type="curve" smooth="yes"/>
      <point x="334" y="508"/>
      <point x="312" y="570"/>
      <point x="241" y="570" type="curve" smooth="yes"/>
      <point x="118" y="570"/>
      <point x="89" y="418"/>
      <point x="89" y="288" type="curve"/>
      <point x="113" y="323" type="line"/>
      <point x="113" y="444"/>
      <point x="160" y="542"/>
      <point x="235" y="542" type="curve" smooth="yes"/>
      <point x="289" y="542"/>
      <point x="305" y="499"/>
      <point x="305" y="435" type="curve" smooth="yes"/>
      <point x="305" y="388"/>
      <point x="296" y="330"/>
    </contour>
    <contour>
      <point x="78" y="0" type="curve"/>
      <point x="113" y="0" type="line"/>
      <point x="111" y="50"/>
      <point x="113" y="190"/>
      <point x="113" y="323" type="curve"/>
      <point x="111" y="452"/>
      <point x="111" y="523"/>
      <point x="112" y="559" type="curve"/>
      <point x="73" y="556" type="line"/>
      <point x="77" y="524"/>
      <point x="81" y="421"/>
      <point x="82" y="285" type="curve" smooth="yes"/>
      <point x="83" y="152"/>
      <point x="80" y="51"/>
    </contour>
  </outline>
</glyph>
<glyph name="s" format="2">
  <advance width="349"/>
  <unicode hex="0073"/>
  <anchor x="181" y="0" name="bottom"/>
  <anchor x="179" y="555" name="top"/>
  <outline>
    <contour>
      <point x="176" y="-10" type="curve" smooth="yes"/>
      <point x="270" y="-10"/>
      <point x="318" y="53"/>
      <point x="318" y="121" type="curve" smooth="yes"/>
      <point x="318" y="205"/>
      <point x="237" y="238"/>
      <point x="169" y="286" type="curve" smooth="yes"/>
      <point x="115" y="324"/>
      <point x="68" y="341"/>
      <point x="68" y="422" type="curve" smooth="yes"/>
      <point x="68" y="494"/>
      <point x="106" y="544"/>
      <point x="178" y="544" type="curve" smooth="yes"/>
      <point x="261" y="544"/>
      <point x="284" y="485"/>
      <point x="284" y="405" type="curve" smooth="yes"/>
      <point x="284" y="379"/>
      <point x="282" y="350"/>
      <point x="278" y="320" type="curve"/>
      <point x="311" y="320" type="line"/>
      <point x="314" y="347"/>
      <point x="316" y="373"/>
      <point x="316" y="398" type="curve" smooth="yes"/>
      <point x="316" y="493"/>
      <point x="288" y="572"/>
      <point x="180" y="572" type="curve" smooth="yes"/>
      <point x="101" y="572"/>
      <point x="36" y="517"/>
      <point x="36" y="420" type="curve" smooth="yes"/>
      <point x="36" y="331"/>
      <point x="91" y="302"/>
      <point x="149" y="262" type="curve" smooth="yes"/>
      <point x="214" y="217"/>
      <point x="287" y="190"/>
      <point x="287" y="113" type="curve" smooth="yes"/>
      <point x="287" y="66"/>
      <point x="254" y="18"/>
      <point x="174" y="18" type="curve" smooth="yes"/>
      <point x="87" y="18"/>
      <point x="68" y="66"/>
      <point x="68" y="126" type="curve" smooth="yes"/>
      <point x="68" y="143"/>
      <point x="69" y="160"/>
      <point x="71" y="177" type="curve"/>
      <point x="39" y="177" type="line"/>
      <point x="37" y="161"/>
      <point x="35" y="146"/>
      <point x="35" y="130" type="curve" smooth="yes"/>
      <point x="35" y="56"/>
      <point x="67" y="-10"/>
    </contour>
  </outline>
</glyph>
<glyph name="t" format="2">
  <advance width="357"/>
  <unicode hex="0074"/>
  <anchor x="193" y="0" name="bottom"/>
  <anchor x="148" y="413" name="center"/>
  <anchor x="224" y="555" name="topright"/>
  <outline>
    <contour>
      <point x="183" y="-11" type="curve" smooth="yes"/>
      <point x="295" y="-12"/>
      <point x="324" y="73"/>
      <point x="324" y="190" type="curve" smooth="yes"/>
      <point x="324" y="224"/>
      <point x="322" y="260"/>
      <point x="318" y="298" type="curve"/>
      <point x="287" y="298" type="line"/>
      <point x="292" y="260"/>
      <point x="295" y="222"/>
      <point x="295" y="187" type="curve" smooth="yes"/>
      <point x="295" y="90"/>
      <point x="270" y="16"/>
      <point x="186" y="16" type="curve" smooth="yes"/>
      <point x="123" y="16"/>
      <point x="92" y="60"/>
      <point x="92" y="155" type="curve" smooth="yes"/>
      <point x="92" y="185"/>
      <point x="93" y="217"/>
      <point x="94" y="251" type="curve" smooth="yes"/>
      <point x="97" y="345"/>
      <point x="107" y="462"/>
      <point x="116" y="636" type="curve"/>
      <point x="78" y="635" type="line"/>
      <point x="76" y="475"/>
      <point x="69" y="341"/>
      <point x="64" y="247" type="curve" smooth="yes"/>
      <point x="62" y="210"/>
      <point x="61" y="179"/>
      <point x="61" y="155" type="curve" smooth="yes"/>
      <point x="61" y="73"/>
      <point x="86" y="-10"/>
    </contour>
    <contour>
      <point x="15" y="524" type="line"/>
      <point x="15" y="524"/>
      <point x="92" y="527"/>
      <point x="169" y="528" type="curve"/>
      <point x="219" y="529"/>
      <point x="321" y="528"/>
      <point x="321" y="528" type="curve"/>
      <point x="323" y="555" type="line"/>
      <point x="323" y="555"/>
      <point x="204" y="553"/>
      <point x="155" y="552" type="curve"/>
      <point x="80" y="552"/>
      <point x="17" y="553"/>
      <point x="17" y="553" type="curve"/>
    </contour>
  </outline>
</glyph>
<glyph name="u" format="2">
  <advance width="393"/>
  <unicode hex="0075"/>
  <anchor x="195" y="0" name="bottom"/>
  <anchor x="338" y="5" name="ogonek"/>
  <anchor x="194" y="555" name="top"/>
  <anchor x="259" y="555" name="topright"/>
  <outline>
    <contour>
      <point x="153" y="-10" type="curve" smooth="yes"/>
      <point x="270" y="-10"/>
      <point x="324" y="130"/>
      <point x="324" y="285" type="curve"/>
      <point x="297" y="268" type="line"/>
      <point x="297" y="127"/>
      <point x="245" y="20"/>
      <point x="157" y="20" type="curve" smooth="yes"/>
      <point x="104" y="20"/>
      <point x="93" y="67"/>
      <point x="93" y="133" type="curve" smooth="yes"/>
      <point x="93" y="172"/>
      <point x="93" y="218"/>
      <point x="95" y="266" type="curve" smooth="yes"/>
      <point x="101" y="418"/>
      <point x="107" y="564"/>
      <point x="107" y="564" type="curve"/>
      <point x="68" y="559" type="line"/>
      <point x="68" y="560"/>
      <point x="65" y="426"/>
      <point x="63" y="300" type="curve" smooth="yes"/>
      <point x="62" y="229"/>
      <point x="60" y="161"/>
      <point x="61" y="119" type="curve" smooth="yes"/>
      <point x="63" y="40"/>
      <point x="86" y="-10"/>
    </contour>
    <contour>
      <point x="305" y="0" type="line"/>
      <point x="333" y="0" type="line"/>
      <point x="333" y="90"/>
      <point x="327" y="171"/>
      <point x="327" y="260" type="curve" smooth="yes"/>
      <point x="327" y="384"/>
      <point x="330" y="445"/>
      <point x="331" y="563" type="curve"/>
      <point x="294" y="566" type="line"/>
      <point x="296" y="451"/>
      <point x="297" y="383"/>
      <point x="297" y="268" type="curve" smooth="yes"/>
      <point x="297" y="219"/>
      <point x="297" y="167"/>
      <point x="298" y="116" type="curve"/>
    </contour>
  </outline>
</glyph>
<glyph name="v" format="2">
  <advance width="364"/>
  <unicode hex="0076"/>
  <outline>
    <contour>
      <point x="16" y="561" type="line"/>
      <point x="38" y="474"/>
      <point x="63" y="376"/>
      <point x="88" y="277" type="curve" smooth="yes"/>
      <point x="112" y="182"/>
      <point x="139" y="85"/>
      <point x="161" y="-1" type="curve"/>
      <point x="207" y="-1" type="line"/>
      <point x="234" y="97"/>
      <point x="258" y="187"/>
      <point x="281" y="273" type="curve" smooth="yes"/>
      <point x="306" y="369"/>
      <point x="329" y="462"/>
      <point x="354" y="559" type="curve"/>
      <point x="319" y="555" type="line"/>
      <point x="291" y="437"/>
      <point x="272" y="357"/>
      <point x="253" y="285" type="curve" smooth="yes"/>
      <point x="233" y="205"/>
      <point x="214" y="135"/>
      <point x="186" y="34" type="curve"/>
      <point x="164" y="106"/>
      <point x="139" y="196"/>
      <point x="117" y="285" type="curve" smooth="yes"/>
      <point x="94" y="380"/>
      <point x="71" y="477"/>
      <point x="52" y="561" type="curve"/>
    </contour>
  </outline>
</glyph>
<glyph name="w" format="2">
  <advance width="588"/>
  <unicode hex="0077"/>
  <anchor x="291" y="555" name="top"/>
  <outline>
    <contour>
      <point x="120" y="-1" type="curve"/>
      <point x="160" y="-1" type="line"/>
      <point x="185" y="87"/>
      <point x="211" y="174"/>
      <point x="237" y="267" type="curve" smooth="yes"/>
      <point x="254" y="328"/>
      <point x="273" y="392"/>
      <point x="293" y="460" type="curve"/>
      <point x="311" y="393"/>
      <point x="328" y="330"/>
      <point x="344" y="270" type="curve" smooth="yes"/>
      <point x="369" y="176"/>
      <point x="393" y="89"/>
      <point x="417" y="-1" type="curve"/>
      <point x="459" y="-1" type="line"/>
      <point x="478" y="84"/>
      <point x="500" y="177"/>
      <point x="522" y="274" type="curve" smooth="yes"/>
      <point x="543" y="367"/>
      <point x="566" y="464"/>
      <point x="588" y="559" type="curve"/>
      <point x="550" y="555" type="line"/>
      <point x="530" y="461"/>
      <point x="511" y="369"/>
      <point x="492" y="282" type="curve" smooth="yes"/>
      <point x="472" y="192"/>
      <point x="456" y="113"/>
      <point x="438" y="37" type="curve"/>
      <point x="417" y="118"/>
      <point x="397" y="192"/>
      <point x="374" y="276" type="curve" smooth="yes"/>
      <point x="354" y="349"/>
      <point x="334" y="426"/>
      <point x="313" y="510" type="curve"/>
      <point x="273" y="510" type="line"/>
      <point x="250" y="422"/>
      <point x="229" y="345"/>
      <point x="208" y="273" type="curve" smooth="yes"/>
      <point x="184" y="189"/>
      <point x="164" y="117"/>
      <point x="141" y="37" type="curve"/>
      <point x="124" y="117"/>
      <point x="105" y="205"/>
      <point x="86" y="302" type="curve" smooth="yes"/>
      <point x="69" y="388"/>
      <point x="51" y="476"/>
      <point x="35" y="561" type="curve"/>
      <point x="-2" y="561" type="line"/>
      <point x="19" y="466"/>
      <point x="40" y="371"/>
      <point x="59" y="278" type="curve" smooth="yes"/>
      <point x="79" y="180"/>
      <point x="100" y="85"/>
    </contour>
  </outline>
</glyph>
<glyph name="x" format="2">
  <advance width="316"/>
  <unicode hex="0078"/>
  <outline>
    <contour>
      <point x="33" y="-4" type="line"/>
      <point x="71" y="86"/>
      <point x="105" y="154"/>
      <point x="172" y="281" type="curve" smooth="yes"/>
      <point x="236" y="404"/>
      <point x="280" y="486"/>
      <point x="321" y="558" type="curve"/>
      <point x="281" y="558" type="line"/>
      <point x="248" y="488"/>
      <point x="212" y="424"/>
      <point x="148" y="299" type="curve" smooth="yes"/>
      <point x="80" y="166"/>
      <point x="41" y="86"/>
      <point x="-9" y="-2" type="curve"/>
    </contour>
    <contour>
      <point x="286" y="2" type="curve"/>
      <point x="326" y="3" type="line"/>
      <point x="287" y="70"/>
      <point x="239" y="161"/>
      <point x="168" y="299" type="curve" smooth="yes"/>
      <point x="106" y="422"/>
      <point x="68" y="494"/>
      <point x="40" y="558" type="curve"/>
      <point x="-1" y="555" type="line"/>
      <point x="50" y="465"/>
      <point x="82" y="403"/>
      <point x="144" y="281" type="curve" smooth="yes"/>
      <point x="213" y="145"/>
      <point x="256" y="64"/>
    </contour>
  </outline>
</glyph>
<glyph name="y" format="2">
  <advance width="369"/>
  <unicode hex="0079"/>
  <anchor x="285" y="0" name="bottom"/>
  <anchor x="181" y="555" name="top"/>
  <outline>
    <contour>
      <point x="173" y="-149" type="line"/>
      <point x="212" y="14"/>
      <point x="245" y="151"/>
      <point x="276" y="271" type="curve" smooth="yes"/>
      <point x="303" y="378"/>
      <point x="327" y="472"/>
      <point x="350" y="559" type="curve"/>
      <point x="313" y="559" type="line"/>
      <point x="295" y="481"/>
      <point x="273" y="388"/>
      <point x="246" y="279" type="curve" smooth="yes"/>
      <point x="215" y="158"/>
      <point x="180" y="16"/>
      <point x="139" y="-146" type="curve"/>
    </contour>
    <contour>
      <point x="176" y="-16" type="curve"/>
      <point x="205" y="0" type="line"/>
      <point x="174" y="104"/>
      <point x="148" y="193"/>
      <point x="124" y="280" type="curve" smooth="yes"/>
      <point x="99" y="371"/>
      <point x="76" y="458"/>
      <point x="52" y="554" type="curve"/>
      <point x="15" y="553" type="line"/>
      <point x="42" y="460"/>
      <point x="70" y="360"/>
      <point x="97" y="266" type="curve" smooth="yes"/>
      <point x="126" y="165"/>
      <point x="154" y="67"/>
    </contour>
  </outline>
</glyph>
<glyph name="z" format="2">
  <advance width="287"/>
  <unicode hex="007A"/>
  <anchor x="139" y="555" name="top"/>
  <outline>
    <contour>
      <point x="39" y="10" type="line"/>
      <point x="73" y="84"/>
      <point x="112" y="171"/>
      <point x="151" y="259" type="curve" smooth="yes"/>
      <point x="192" y="349"/>
      <point x="232" y="442"/>
      <point x="268" y="518" type="curve"/>
      <point x="241" y="537" type="line"/>
      <point x="222" y="491"/>
      <point x="172" y="375"/>
      <point x="123" y="266" type="curve" smooth="yes"/>
      <point x="78" y="167"/>
      <point x="35" y="69"/>
      <point x="15" y="30" type="curve"/>
    </contour>
    <contour>
      <point x="16" y="-4" type="line"/>
      <point x="16" y="-4"/>
      <point x="95" y="0"/>
      <point x="145" y="0" type="curve"/>
      <point x="195" y="-1"/>
      <point x="277" y="0"/>
      <point x="277" y="0" type="curve"/>
      <point x="277" y="32" type="line"/>
      <point x="277" y="32"/>
      <point x="208" y="29"/>
      <point x="160" y="29" type="curve" smooth="yes"/>
      <point x="111" y="29"/>
      <point x="15" y="30"/>
      <point x="15" y="30" type="curve"/>
    </contour>
    <contour>
      <point x="24" y="518" type="line"/>
      <point x="24" y="518"/>
      <point x="87" y="520"/>
      <point x="136" y="520" type="curve"/>
      <point x="184" y="520"/>
      <point x="268" y="518"/>
      <point x="268" y="518" type="curve"/>
      <point x="265" y="555" type="line"/>
      <point x="265" y="555"/>
      <point x="202" y="552"/>
      <point x="152" y="552" type="curve"/>
      <point x="102" y="551"/>
      <point x="25" y="552"/>
      <point x="25" y="552" type="curve"/>
    </contour>
  </outline>
</glyph>
<glyph name="braceleft" format="2">
  <advance width="497"/>
  <unicode hex="007B"/>
  <outline>
    <contour>
      <point x="305" y="-129" type="curve" smooth="yes"/>
      <point x="331" y="-129"/>
      <point x="361" y="-123"/>
      <point x="392" y="-113" type="curve"/>
      <point x="387" y="-94" type="line"/>
      <point x="358" y="-101"/>
      <point x="330" y="-106"/>
      <point x="306" y="-106" type="curve" smooth="yes"/>
      <point x="255" y="-106"/>
      <point x="220" y="-85"/>
      <point x="220" y="-20" type="curve" smooth="yes"/>
      <point x="220" y="22"/>
      <point x="241" y="133"/>
      <point x="241" y="172" type="curve" smooth="yes"/>
      <point x="241" y="225"/>
      <point x="205" y="263"/>
      <point x="143" y="274" type="curve"/>
      <point x="207" y="288"/>
      <point x="239" y="325"/>
      <point x="239" y="379" type="curve" smooth="yes"/>
      <point x="239" y="420"/>
      <point x="208" y="545"/>
      <point x="208" y="594" type="curve" smooth="yes"/>
      <point x="208" y="656"/>
      <point x="241" y="677"/>
      <point x="292" y="677" type="curve" smooth="yes"/>
      <point x="315" y="677"/>
      <point x="341" y="673"/>
      <point x="370" y="666" type="curve"/>
      <point x="377" y="687" type="line"/>
      <point x="347" y="697"/>
      <point x="318" y="702"/>
      <point x="292" y="702" type="curve" smooth="yes"/>
      <point x="227" y="702"/>
      <point x="180" y="668"/>
      <point x="180" y="586" type="curve" smooth="yes"/>
      <point x="180" y="539"/>
      <point x="212" y="433"/>
      <point x="212" y="384" type="curve" smooth="yes"/>
      <point x="212" y="328"/>
      <point x="178" y="302"/>
      <point x="105" y="288" type="curve"/>
      <point x="108" y="257" type="line"/>
      <point x="180" y="246"/>
      <point x="212" y="225"/>
      <point x="212" y="167" type="curve" smooth="yes"/>
      <point x="212" y="119"/>
      <point x="190" y="34"/>
      <point x="190" y="-13" type="curve" smooth="yes"/>
      <point x="190" y="-94"/>
      <point x="238" y="-129"/>
    </contour>
  </outline>
</glyph>
<glyph name="braceright" format="2">
  <advance width="497"/>
  <unicode hex="007D"/>
  <outline>
    <contour>
      <point x="205" y="-129" type="curve" smooth="yes"/>
      <point x="270" y="-129"/>
      <point x="317" y="-95"/>
      <point x="317" y="-13" type="curve" smooth="yes"/>
      <point x="317" y="34"/>
      <point x="285" y="140"/>
      <point x="285" y="189" type="curve" smooth="yes"/>
      <point x="285" y="245"/>
      <point x="319" y="271"/>
      <point x="392" y="285" type="curve"/>
      <point x="389" y="316" type="line"/>
      <point x="317" y="327"/>
      <point x="285" y="348"/>
      <point x="285" y="406" type="curve" smooth="yes"/>
      <point x="285" y="454"/>
      <point x="307" y="539"/>
      <point x="307" y="586" type="curve" smooth="yes"/>
      <point x="307" y="667"/>
      <point x="259" y="702"/>
      <point x="192" y="702" type="curve" smooth="yes"/>
      <point x="166" y="702"/>
      <point x="136" y="696"/>
      <point x="105" y="686" type="curve"/>
      <point x="110" y="667" type="line"/>
      <point x="139" y="674"/>
      <point x="167" y="679"/>
      <point x="191" y="679" type="curve" smooth="yes"/>
      <point x="242" y="679"/>
      <point x="277" y="658"/>
      <point x="277" y="593" type="curve" smooth="yes"/>
      <point x="277" y="551"/>
      <point x="256" y="440"/>
      <point x="256" y="401" type="curve" smooth="yes"/>
      <point x="256" y="348"/>
      <point x="292" y="310"/>
      <point x="354" y="299" type="curve"/>
      <point x="290" y="285"/>
      <point x="258" y="248"/>
      <point x="258" y="194" type="curve" smooth="yes"/>
      <point x="258" y="153"/>
      <point x="289" y="28"/>
      <point x="289" y="-21" type="curve" smooth="yes"/>
      <point x="289" y="-83"/>
      <point x="256" y="-104"/>
      <point x="205" y="-104" type="curve" smooth="yes"/>
      <point x="182" y="-104"/>
      <point x="156" y="-100"/>
      <point x="127" y="-93" type="curve"/>
      <point x="120" y="-114" type="line"/>
      <point x="150" y="-124"/>
      <point x="179" y="-129"/>
    </contour>
  </outline>
</glyph>
<glyph name="exclamdown" format="2">
  <advance width="262"/>
  <unicode hex="00A1"/>
  <outline>
    <contour>
      <point x="105" y="-151" type="curve"/>
      <point x="157" y="-148" type="line"/>
      <point x="156" y="-102"/>
      <point x="151" y="44"/>
      <point x="149" y="134" type="curve" smooth="yes"/>
      <point x="147" y="211"/>
      <point x="146" y="313"/>
      <point x="145" y="341" type="curve"/>
      <point x="117" y="341" type="line"/>
      <point x="116" y="307"/>
      <point x="115" y="190"/>
      <point x="114" y="132" type="curve" smooth="yes"/>
      <point x="113" y="70"/>
      <point x="107" y="-98"/>
    </contour>
    <contour>
      <point x="112" y="456" type="line"/>
      <point x="149" y="458" type="line"/>
      <point x="152" y="555" type="line"/>
      <point x="107" y="551" type="line"/>
    </contour>
  </outline>
</glyph>
<glyph name="ordfeminine" format="2">
  <advance width="363"/>
  <unicode hex="00AA"/>
  <outline>
    <contour>
      <point x="85" y="519" type="curve" smooth="yes"/>
      <point x="85" y="479"/>
      <point x="118" y="462"/>
      <point x="154" y="462" type="curve" smooth="yes"/>
      <point x="184" y="462"/>
      <point x="217" y="475"/>
      <point x="235" y="497" type="curve"/>
      <point x="236" y="483"/>
      <point x="242" y="473"/>
      <point x="251" y="464" type="curve"/>
      <point x="278" y="476" type="line"/>
      <point x="267" y="488"/>
      <point x="263" y="503"/>
      <point x="263" y="516" type="curve" smooth="yes"/>
      <point x="264" y="634" type="line" smooth="yes"/>
      <point x="264" y="675"/>
      <point x="238" y="703"/>
      <point x="182" y="703" type="curve" smooth="yes"/>
      <point x="127" y="703"/>
      <point x="99" y="674"/>
      <point x="94" y="633" type="curve"/>
      <point x="120" y="629" type="line"/>
      <point x="125" y="661"/>
      <point x="145" y="680"/>
      <point x="182" y="680" type="curve" smooth="yes"/>
      <point x="224" y="680"/>
      <point x="236" y="666"/>
      <point x="236" y="629" type="curve"/>
      <point x="235" y="605"/>
      <point x="193" y="597"/>
      <point x="153" y="583" type="curve" smooth="yes"/>
      <point x="118" y="570"/>
      <point x="85" y="560"/>
    </contour>
    <contour>
      <point x="113" y="518" type="curve" smooth="yes"/>
      <point x="113" y="547"/>
      <point x="136" y="552"/>
      <point x="162" y="561" type="curve" smooth="yes"/>
      <point x="189" y="570"/>
      <point x="219" y="577"/>
      <point x="235" y="592" type="curve"/>
      <point x="235" y="558" type="line" smooth="yes"/>
      <point x="235" y="511"/>
      <point x="202" y="484"/>
      <point x="152" y="484" type="curve" smooth="yes"/>
      <point x="130" y="484"/>
      <point x="113" y="496"/>
    </contour>
  </outline>
</glyph>
<glyph name="guillemetleft" format="2">
  <advance width="688"/>
  <unicode hex="00AB"/>
  <outline>
    <contour>
      <point x="95" y="266" type="line"/>
      <point x="119" y="286"/>
      <point x="172" y="319"/>
      <point x="219" y="349" type="curve" smooth="yes"/>
      <point x="268" y="380"/>
      <point x="323" y="413"/>
      <point x="343" y="423" type="curve"/>
      <point x="317" y="460" type="line"/>
      <point x="295" y="442"/>
      <point x="247" y="410"/>
      <point x="207" y="382" type="curve" smooth="yes"/>
      <point x="162" y="351"/>
      <point x="111" y="319"/>
      <point x="95" y="309" type="curve"/>
    </contour>
    <contour>
      <point x="318" y="114" type="curve"/>
      <point x="342" y="151" type="line"/>
      <point x="322" y="161"/>
      <point x="268" y="195"/>
      <point x="219" y="226" type="curve" smooth="yes"/>
      <point x="172" y="256"/>
      <point x="119" y="290"/>
      <point x="95" y="309" type="curve"/>
      <point x="95" y="266" type="line"/>
      <point x="111" y="256"/>
      <point x="162" y="224"/>
      <point x="207" y="193" type="curve" smooth="yes"/>
      <point x="247" y="165"/>
      <point x="295" y="132"/>
    </contour>
    <contour>
      <point x="345" y="266" type="line"/>
      <point x="369" y="286"/>
      <point x="422" y="319"/>
      <point x="469" y="349" type="curve" smooth="yes"/>
      <point x="518" y="380"/>
      <point x="573" y="413"/>
      <point x="593" y="423" type="curve"/>
      <point x="567" y="460" type="line"/>
      <point x="545" y="442"/>
      <point x="497" y="410"/>
      <point x="457" y="382" type="curve" smooth="yes"/>
      <point x="412" y="351"/>
      <point x="361" y="319"/>
      <point x="345" y="309" type="curve"/>
    </contour>
    <contour>
      <point x="568" y="114" type="curve"/>
      <point x="592" y="151" type="line"/>
      <point x="572" y="161"/>
      <point x="518" y="195"/>
      <point x="469" y="226" type="curve" smooth="yes"/>
      <point x="422" y="256"/>
      <point x="369" y="290"/>
      <point x="345" y="309" type="curve"/>
      <point x="345" y="266" type="line"/>
      <point x="361" y="256"/>
      <point x="412" y="224"/>
      <point x="457" y="193" type="curve" smooth="yes"/>
      <point x="497" y="165"/>
      <point x="545" y="132"/>
    </contour>
  </outline>
</glyph>
<glyph name="degree" format="2">
  <advance width="397"/>
  <unicode hex="00B0"/>
  <outline>
    <contour>
      <point x="200" y="501" type="curve" smooth="yes"/>
      <point x="263" y="501"/>
      <point x="307" y="546"/>
      <point x="307" y="609" type="curve" smooth="yes"/>
      <point x="307" y="664"/>
      <point x="263" y="703"/>
      <point x="197" y="703" type="curve"/>
      <point x="130" y="703"/>
      <point x="90" y="659"/>
      <point x="90" y="599" type="curve" smooth="yes"/>
      <point x="90" y="545"/>
      <point x="131" y="501"/>
    </contour>
    <contour>
      <point x="201" y="523" type="curve" smooth="yes"/>
      <point x="134" y="523"/>
      <point x="117" y="566"/>
      <point x="117" y="603" type="curve" smooth="yes"/>
      <point x="117" y="642"/>
      <point x="145" y="681"/>
      <point x="197" y="681" type="curve" smooth="yes"/>
      <point x="239" y="681"/>
      <point x="279" y="658"/>
      <point x="279" y="602" type="curve" smooth="yes"/>
      <point x="279" y="562"/>
      <point x="255" y="523"/>
    </contour>
  </outline>
</glyph>
<glyph name="twosuperior" format="2">
  <advance width="292"/>
  <unicode hex="00B2"/>
  <outline>
    <contour>
      <point x="95" y="577" type="line"/>
      <point x="150" y="611"/>
      <point x="211" y="676"/>
      <point x="211" y="739" type="curve" smooth="yes"/>
      <point x="211" y="773"/>
      <point x="194" y="805"/>
      <point x="147" y="805" type="curve" smooth="yes"/>
      <point x="102" y="805"/>
      <point x="78" y="778"/>
      <point x="78" y="737" type="curve" smooth="yes"/>
      <point x="78" y="730"/>
      <point x="79" y="722"/>
      <point x="81" y="713" type="curve"/>
      <point x="104" y="714" type="line"/>
      <point x="103" y="722"/>
      <point x="102" y="729"/>
      <point x="102" y="736" type="curve" smooth="yes"/>
      <point x="102" y="765"/>
      <point x="113" y="785"/>
      <point x="145" y="785" type="curve" smooth="yes"/>
      <point x="174" y="785"/>
      <point x="185" y="763"/>
      <point x="185" y="733" type="curve" smooth="yes"/>
      <point x="185" y="667"/>
      <point x="118" y="617"/>
      <point x="73" y="584" type="curve"/>
    </contour>
    <contour>
      <point x="72" y="563" type="line"/>
      <point x="88" y="564"/>
      <point x="119" y="565"/>
      <point x="144" y="565" type="curve" smooth="yes"/>
      <point x="159" y="565"/>
      <point x="199" y="565"/>
      <point x="215" y="565" type="curve"/>
      <point x="214" y="587" type="line"/>
      <point x="200" y="586"/>
      <point x="163" y="585"/>
      <point x="149" y="585" type="curve" smooth="yes"/>
      <point x="123" y="585"/>
      <point x="109" y="584"/>
      <point x="73" y="584" type="curve"/>
    </contour>
  </outline>
</glyph>
<glyph name="threesuperior" format="2">
  <advance width="292"/>
  <unicode hex="00B3"/>
  <outline>
    <contour>
      <point x="148" y="559" type="curve" smooth="yes"/>
      <point x="194" y="559"/>
      <point x="217" y="589"/>
      <point x="217" y="623" type="curve" smooth="yes"/>
      <point x="217" y="642"/>
      <point x="205" y="664"/>
      <point x="176" y="669" type="curve"/>
      <point x="202" y="678"/>
      <point x="221" y="707"/>
      <point x="221" y="741" type="curve" smooth="yes"/>
      <point x="221" y="770"/>
      <point x="204" y="806"/>
      <point x="155" y="806" type="curve" smooth="yes"/>
      <point x="110" y="806"/>
      <point x="87" y="776"/>
      <point x="87" y="746" type="curve" smooth="yes"/>
      <point x="87" y="740"/>
      <point x="87" y="734"/>
      <point x="89" y="728" type="curve"/>
      <point x="111" y="729" type="line"/>
      <point x="110" y="735"/>
      <point x="109" y="740"/>
      <point x="109" y="745" type="curve" smooth="yes"/>
      <point x="109" y="767"/>
      <point x="120" y="785"/>
      <point x="152" y="785" type="curve" smooth="yes"/>
      <point x="185" y="785"/>
      <point x="198" y="768"/>
      <point x="198" y="738" type="curve" smooth="yes"/>
      <point x="198" y="689"/>
      <point x="166" y="678"/>
      <point x="138" y="678" type="curve" smooth="yes"/>
      <point x="132" y="678"/>
      <point x="117" y="678"/>
      <point x="113" y="678" type="curve"/>
      <point x="113" y="657" type="line"/>
      <point x="119" y="657"/>
      <point x="137" y="657"/>
      <point x="140" y="657" type="curve" smooth="yes"/>
      <point x="167" y="657"/>
      <point x="193" y="651"/>
      <point x="193" y="622" type="curve" smooth="yes"/>
      <point x="193" y="594"/>
      <point x="182" y="578"/>
      <point x="149" y="578" type="curve" smooth="yes"/>
      <point x="117" y="578"/>
      <point x="109" y="591"/>
      <point x="106" y="606" type="curve"/>
      <point x="83" y="605" type="line"/>
      <point x="88" y="581"/>
      <point x="105" y="559"/>
    </contour>
  </outline>
</glyph>
<glyph name="paragraph" format="2">
  <advance width="600"/>
  <unicode hex="00B6"/>
  <outline>
    <contour>
      <point x="336" y="224" type="curve"/>
      <point x="378" y="710" type="line"/>
      <point x="346" y="711"/>
      <point x="282" y="712"/>
      <point x="251" y="712" type="curve" smooth="yes"/>
      <point x="136" y="712"/>
      <point x="98" y="645"/>
      <point x="98" y="457" type="curve" smooth="yes"/>
      <point x="98" y="291"/>
      <point x="173" y="228"/>
    </contour>
    <contour>
      <point x="332" y="-102" type="curve"/>
      <point x="379" y="-101" type="line"/>
      <point x="378" y="-44"/>
      <point x="375" y="207"/>
      <point x="375" y="357" type="curve" smooth="yes"/>
      <point x="375" y="499"/>
      <point x="377" y="664"/>
      <point x="378" y="710" type="curve"/>
      <point x="330" y="706" type="line"/>
      <point x="332" y="658"/>
      <point x="336" y="459"/>
      <point x="336" y="359" type="curve" smooth="yes"/>
      <point x="336" y="257"/>
      <point x="333" y="-37"/>
    </contour>
    <contour>
      <point x="439" y="-102" type="curve"/>
      <point x="486" y="-101" type="line"/>
      <point x="485" y="-44"/>
      <point x="482" y="207"/>
      <point x="482" y="357" type="curve" smooth="yes"/>
      <point x="482" y="499"/>
      <point x="484" y="661"/>
      <point x="485" y="707" type="curve"/>
      <point x="437" y="703" type="line"/>
      <point x="439" y="655"/>
      <point x="443" y="459"/>
      <point x="443" y="359" type="curve" smooth="yes"/>
      <point x="443" y="257"/>
      <point x="440" y="-37"/>
    </contour>
  </outline>
</glyph>
<glyph name="cedilla" format="2">
  <advance width="302"/>
  <unicode hex="00B8"/>
  <anchor x="152" y="0" name="_bottom"/>
  <outline>
    <contour>
      <point x="107" y="-152" type="curve" smooth="yes"/>
      <point x="184" y="-152"/>
      <point x="249" y="-138"/>
      <point x="249" y="-98" type="curve" smooth="yes"/>
      <point x="249" y="-68"/>
      <point x="205" y="-47"/>
      <point x="117" y="-47" type="curve"/>
      <point x="110" y="-67" type="line"/>
      <point x="171" y="-68"/>
      <point x="212" y="-77"/>
      <point x="212" y="-99" type="curve" smooth="yes"/>
      <point x="212" y="-122"/>
      <point x="171" y="-129"/>
      <point x="123" y="-129" type="curve" smooth="yes"/>
      <point x="103" y="-129"/>
      <point x="81" y="-128"/>
      <point x="60" y="-126" type="curve"/>
      <point x="55" y="-150" type="line"/>
      <point x="71" y="-151"/>
      <point x="90" y="-152"/>
    </contour>
    <contour>
      <point x="160" y="0" type="line"/>
      <point x="130" y="0" type="line"/>
      <point x="110" y="-67" type="line"/>
      <point x="140" y="-67" type="line"/>
    </contour>
  </outline>
</glyph>
<glyph name="onesuperior" format="2">
  <advance width="292"/>
  <unicode hex="00B9"/>
  <outline>
    <contour>
      <point x="161" y="567" type="curve"/>
      <point x="189" y="567" type="line"/>
      <point x="186" y="638"/>
      <point x="186" y="728"/>
      <point x="190" y="801" type="curve"/>
      <point x="174" y="801" type="line"/>
      <point x="163" y="773" type="line"/>
      <point x="163" y="717"/>
      <point x="163" y="619"/>
    </contour>
    <contour>
      <point x="84" y="745" type="line"/>
      <point x="112" y="746"/>
      <point x="146" y="751"/>
      <point x="164" y="757" type="curve"/>
      <point x="174" y="801" type="line"/>
      <point x="151" y="776"/>
      <point x="112" y="770"/>
      <point x="83" y="764" type="curve"/>
    </contour>
  </outline>
</glyph>
<glyph name="ordmasculine" format="2">
  <advance width="354"/>
  <unicode hex="00BA"/>
  <outline>
    <contour>
      <point x="173" y="469" type="curve" smooth="yes"/>
      <point x="236" y="469"/>
      <point x="269" y="509"/>
      <point x="269" y="590" type="curve" smooth="yes"/>
      <point x="269" y="667"/>
      <point x="240" y="703"/>
      <point x="180" y="703" type="curve" smooth="yes"/>
      <point x="119" y="703"/>
      <point x="85" y="663"/>
      <point x="85" y="590" type="curve" smooth="yes"/>
      <point x="85" y="510"/>
      <point x="114" y="469"/>
    </contour>
    <contour>
      <point x="175" y="497" type="curve" smooth="yes"/>
      <point x="133" y="497"/>
      <point x="114" y="525"/>
      <point x="114" y="589" type="curve" smooth="yes"/>
      <point x="114" y="652"/>
      <point x="136" y="678"/>
      <point x="179" y="678" type="curve" smooth="yes"/>
      <point x="220" y="678"/>
      <point x="240" y="653"/>
      <point x="240" y="593" type="curve" smooth="yes"/>
      <point x="240" y="541"/>
      <point x="230" y="497"/>
    </contour>
  </outline>
</glyph>
<glyph name="guillemetright" format="2">
  <advance width="688"/>
  <unicode hex="00BB"/>
  <outline>
    <contour>
      <point x="593" y="265" type="curve"/>
      <point x="593" y="308" type="line"/>
      <point x="577" y="318"/>
      <point x="526" y="350"/>
      <point x="481" y="381" type="curve" smooth="yes"/>
      <point x="441" y="409"/>
      <point x="393" y="442"/>
      <point x="370" y="460" type="curve"/>
      <point x="346" y="423" type="line"/>
      <point x="366" y="413"/>
      <point x="420" y="379"/>
      <point x="469" y="348" type="curve" smooth="yes"/>
      <point x="516" y="318"/>
      <point x="569" y="284"/>
    </contour>
    <contour>
      <point x="343" y="265" type="curve"/>
      <point x="343" y="308" type="line"/>
      <point x="327" y="318"/>
      <point x="276" y="350"/>
      <point x="231" y="381" type="curve" smooth="yes"/>
      <point x="191" y="409"/>
      <point x="143" y="442"/>
      <point x="120" y="460" type="curve"/>
      <point x="96" y="423" type="line"/>
      <point x="116" y="413"/>
      <point x="170" y="379"/>
      <point x="219" y="348" type="curve" smooth="yes"/>
      <point x="266" y="318"/>
      <point x="319" y="284"/>
    </contour>
    <contour>
      <point x="371" y="114" type="line"/>
      <point x="393" y="132"/>
      <point x="441" y="164"/>
      <point x="481" y="192" type="curve" smooth="yes"/>
      <point x="526" y="223"/>
      <point x="577" y="255"/>
      <point x="593" y="265" type="curve"/>
      <point x="593" y="308" type="line"/>
      <point x="569" y="288"/>
      <point x="516" y="255"/>
      <point x="469" y="225" type="curve" smooth="yes"/>
      <point x="420" y="194"/>
      <point x="365" y="161"/>
      <point x="345" y="151" type="curve"/>
    </contour>
    <contour>
      <point x="121" y="114" type="line"/>
      <point x="143" y="132"/>
      <point x="191" y="164"/>
      <point x="231" y="192" type="curve" smooth="yes"/>
      <point x="276" y="223"/>
      <point x="327" y="255"/>
      <point x="343" y="265" type="curve"/>
      <point x="343" y="308" type="line"/>
      <point x="319" y="288"/>
      <point x="266" y="255"/>
      <point x="219" y="225" type="curve" smooth="yes"/>
      <point x="170" y="194"/>
      <point x="115" y="161"/>
      <point x="95" y="151" type="curve"/>
    </contour>
  </outline>
</glyph>
<glyph name="onequarter" format="2">
  <advance width="696"/>
  <unicode hex="00BC"/>
  <outline>
    <contour>
      <point x="130" y="0" type="curve"/>
      <point x="164" y="1" type="line"/>
      <point x="230" y="116"/>
      <point x="296" y="230"/>
      <point x="362" y="345" type="curve" smooth="yes"/>
      <point x="430" y="462"/>
      <point x="499" y="578"/>
      <point x="567" y="695" type="curve"/>
      <point x="531" y="696" type="line"/>
      <point x="463" y="575"/>
      <point x="396" y="455"/>
      <point x="328" y="334" type="curve" smooth="yes"/>
      <point x="262" y="223"/>
      <point x="196" y="111"/>
    </contour>
    <contour>
      <point x="153" y="461" type="curve"/>
      <point x="181" y="461" type="line"/>
      <point x="178" y="532"/>
      <point x="178" y="622"/>
      <point x="182" y="695" type="curve"/>
      <point x="166" y="695" type="line"/>
      <point x="143" y="670"/>
      <point x="104" y="664"/>
      <point x="75" y="658" type="curve"/>
      <point x="76" y="639" type="line"/>
      <point x="103" y="640"/>
      <point x="137" y="645"/>
      <point x="155" y="651" type="curve"/>
      <point x="155" y="593"/>
      <point x="155" y="508"/>
    </contour>
    <contour>
      <point x="531" y="-1" type="line"/>
      <point x="556" y="0" type="line"/>
      <point x="555" y="59" type="line"/>
      <point x="599" y="59" type="line"/>
      <point x="599" y="81" type="line"/>
      <point x="555" y="80" type="line"/>
      <point x="555" y="127" type="line" smooth="yes"/>
      <point x="555" y="169"/>
      <point x="556" y="214"/>
      <point x="556" y="235" type="curve"/>
      <point x="530" y="236" type="line"/>
      <point x="517" y="214"/>
      <point x="497" y="185"/>
      <point x="478" y="156" type="curve" smooth="yes"/>
      <point x="424" y="79" type="line"/>
      <point x="429" y="58" type="line"/>
      <point x="532" y="59" type="line"/>
    </contour>
    <contour>
      <point x="450" y="79" type="line"/>
      <point x="531" y="201" type="line"/>
      <point x="532" y="79" type="line"/>
    </contour>
  </outline>
</glyph>
<glyph name="onehalf" format="2">
  <advance width="696"/>
  <unicode hex="00BD"/>
  <outline>
    <contour>
      <point x="130" y="0" type="curve"/>
      <point x="164" y="1" type="line"/>
      <point x="230" y="116"/>
      <point x="296" y="230"/>
      <point x="362" y="345" type="curve" smooth="yes"/>
      <point x="430" y="462"/>
      <point x="499" y="578"/>
      <point x="567" y="695" type="curve"/>
      <point x="531" y="696" type="line"/>
      <point x="463" y="575"/>
      <point x="396" y="455"/>
      <point x="328" y="334" type="curve" smooth="yes"/>
      <point x="262" y="223"/>
      <point x="196" y="111"/>
    </contour>
    <contour>
      <point x="456" y="-2" type="line"/>
      <point x="472" y="-1"/>
      <point x="503" y="0"/>
      <point x="528" y="0" type="curve" smooth="yes"/>
      <point x="599" y="0" type="line"/>
      <point x="598" y="22" type="line"/>
      <point x="586" y="21"/>
      <point x="546" y="20"/>
      <point x="490" y="19" type="curve"/>
      <point x="542" y="55"/>
      <point x="595" y="115"/>
      <point x="595" y="174" type="curve" smooth="yes"/>
      <point x="595" y="208"/>
      <point x="578" y="240"/>
      <point x="531" y="240" type="curve" smooth="yes"/>
      <point x="486" y="240"/>
      <point x="462" y="213"/>
      <point x="462" y="172" type="curve" smooth="yes"/>
      <point x="462" y="165"/>
      <point x="463" y="157"/>
      <point x="465" y="148" type="curve"/>
      <point x="488" y="149" type="line"/>
      <point x="487" y="157"/>
      <point x="486" y="164"/>
      <point x="486" y="171" type="curve" smooth="yes"/>
      <point x="486" y="200"/>
      <point x="497" y="220"/>
      <point x="529" y="220" type="curve" smooth="yes"/>
      <point x="558" y="220"/>
      <point x="569" y="198"/>
      <point x="569" y="168" type="curve" smooth="yes"/>
      <point x="569" y="102"/>
      <point x="502" y="52"/>
      <point x="457" y="19" type="curve"/>
    </contour>
    <contour>
      <point x="153" y="461" type="curve"/>
      <point x="181" y="461" type="line"/>
      <point x="178" y="532"/>
      <point x="178" y="622"/>
      <point x="182" y="695" type="curve"/>
      <point x="166" y="695" type="line"/>
      <point x="143" y="670"/>
      <point x="104" y="664"/>
      <point x="75" y="658" type="curve"/>
      <point x="76" y="639" type="line"/>
      <point x="103" y="640"/>
      <point x="137" y="645"/>
      <point x="155" y="651" type="curve"/>
      <point x="155" y="593"/>
      <point x="155" y="508"/>
    </contour>
  </outline>
</glyph>
<glyph name="threequarters" format="2">
  <advance width="696"/>
  <unicode hex="00BE"/>
  <outline>
    <contour>
      <point x="130" y="0" type="curve"/>
      <point x="164" y="1" type="line"/>
      <point x="230" y="116"/>
      <point x="296" y="230"/>
      <point x="362" y="345" type="curve" smooth="yes"/>
      <point x="430" y="462"/>
      <point x="499" y="578"/>
      <point x="567" y="695" type="curve"/>
      <point x="531" y="696" type="line"/>
      <point x="463" y="575"/>
      <point x="396" y="455"/>
      <point x="328" y="334" type="curve" smooth="yes"/>
      <point x="262" y="223"/>
      <point x="196" y="111"/>
    </contour>
    <contour>
      <point x="148" y="459" type="curve" smooth="yes"/>
      <point x="194" y="459"/>
      <point x="217" y="489"/>
      <point x="217" y="523" type="curve" smooth="yes"/>
      <point x="217" y="542"/>
      <point x="205" y="564"/>
      <point x="176" y="569" type="curve"/>
      <point x="202" y="578"/>
      <point x="221" y="607"/>
      <point x="221" y="641" type="curve" smooth="yes"/>
      <point x="221" y="670"/>
      <point x="204" y="706"/>
      <point x="155" y="706" type="curve" smooth="yes"/>
      <point x="110" y="706"/>
      <point x="87" y="676"/>
      <point x="87" y="646" type="curve" smooth="yes"/>
      <point x="87" y="640"/>
      <point x="87" y="634"/>
      <point x="89" y="628" type="curve"/>
      <point x="111" y="629" type="line"/>
      <point x="110" y="635"/>
      <point x="109" y="640"/>
      <point x="109" y="645" type="curve" smooth="yes"/>
      <point x="109" y="667"/>
      <point x="120" y="685"/>
      <point x="152" y="685" type="curve" smooth="yes"/>
      <point x="185" y="685"/>
      <point x="198" y="668"/>
      <point x="198" y="638" type="curve" smooth="yes"/>
      <point x="198" y="589"/>
      <point x="166" y="578"/>
      <point x="138" y="578" type="curve" smooth="yes"/>
      <point x="132" y="578"/>
      <point x="117" y="578"/>
      <point x="113" y="578" type="curve"/>
      <point x="113" y="557" type="line"/>
      <point x="119" y="557"/>
      <point x="137" y="557"/>
      <point x="140" y="557" type="curve" smooth="yes"/>
      <point x="167" y="557"/>
      <point x="193" y="551"/>
      <point x="193" y="522" type="curve" smooth="yes"/>
      <point x="193" y="494"/>
      <point x="182" y="478"/>
      <point x="149" y="478" type="curve" smooth="yes"/>
      <point x="117" y="478"/>
      <point x="109" y="491"/>
      <point x="106" y="506" type="curve"/>
      <point x="83" y="505" type="line"/>
      <point x="88" y="481"/>
      <point x="105" y="459"/>
    </contour>
    <contour>
      <point x="531" y="-1" type="line"/>
      <point x="556" y="0" type="line"/>
      <point x="555" y="59" type="line"/>
      <point x="599" y="59" type="line"/>
      <point x="599" y="81" type="line"/>
      <point x="555" y="80" type="line"/>
      <point x="555" y="127" type="line" smooth="yes"/>
      <point x="555" y="169"/>
      <point x="556" y="214"/>
      <point x="556" y="235" type="curve"/>
      <point x="530" y="236" type="line"/>
      <point x="517" y="214"/>
      <point x="497" y="185"/>
      <point x="478" y="156" type="curve" smooth="yes"/>
      <point x="424" y="79" type="line"/>
      <point x="429" y="58" type="line"/>
      <point x="532" y="59" type="line"/>
    </contour>
    <contour>
      <point x="450" y="79" type="line"/>
      <point x="531" y="201" type="line"/>
      <point x="532" y="79" type="line"/>
    </contour>
  </outline>
</glyph>
<glyph name="questiondown" format="2">
  <advance width="510"/>
  <unicode hex="00BF"/>
  <outline>
    <contour>
      <point x="246" y="340" type="line"/>
      <point x="248" y="325"/>
      <point x="250" y="311"/>
      <point x="250" y="297" type="curve" smooth="yes"/>
      <point x="250" y="250"/>
      <point x="223" y="217"/>
      <point x="192" y="181" type="curve" smooth="yes"/>
      <point x="151" y="134"/>
      <point x="105" y="80"/>
      <point x="105" y="-18" type="curve" smooth="yes"/>
      <point x="105" y="-94"/>
      <point x="145" y="-159"/>
      <point x="251" y="-159" type="curve" smooth="yes"/>
      <point x="360" y="-159"/>
      <point x="405" y="-77"/>
      <point x="405" y="12" type="curve" smooth="yes"/>
      <point x="405" y="35"/>
      <point x="402" y="60"/>
      <point x="396" y="83" type="curve"/>
      <point x="366" y="84" type="line"/>
      <point x="372" y="62"/>
      <point x="375" y="38"/>
      <point x="375" y="14" type="curve" smooth="yes"/>
      <point x="375" y="-60"/>
      <point x="343" y="-130"/>
      <point x="253" y="-130" type="curve" smooth="yes"/>
      <point x="165" y="-130"/>
      <point x="138" y="-83"/>
      <point x="138" y="-15" type="curve" smooth="yes"/>
      <point x="138" y="70"/>
      <point x="177" y="118"/>
      <point x="214" y="161" type="curve" smooth="yes"/>
      <point x="248" y="201"/>
      <point x="281" y="236"/>
      <point x="281" y="292" type="curve" smooth="yes"/>
      <point x="281" y="306"/>
      <point x="280" y="322"/>
      <point x="278" y="339" type="curve"/>
    </contour>
    <contour>
      <point x="277" y="558" type="line"/>
      <point x="232" y="554" type="line"/>
      <point x="236" y="464" type="line"/>
      <point x="273" y="462" type="line"/>
    </contour>
  </outline>
</glyph>
<glyph name="AE" format="2">
  <advance width="623"/>
  <unicode hex="00C6"/>
  <anchor x="409" y="693" name="top"/>
  <outline>
    <contour>
      <point x="5" y="1" type="curve"/>
      <point x="48" y="0" type="line"/>
      <point x="74" y="60"/>
      <point x="101" y="121"/>
      <point x="127" y="181" type="curve"/>
      <point x="331" y="183" type="line"/>
      <point x="327" y="-5" type="line"/>
      <point x="600" y="0" type="line"/>
      <point x="599" y="25" type="line"/>
      <point x="372" y="30" type="line"/>
      <point x="368" y="215" type="line"/>
      <point x="591" y="219" type="line"/>
      <point x="593" y="249" type="line"/>
      <point x="368" y="252" type="line"/>
      <point x="367" y="350" type="line" smooth="yes"/>
      <point x="366" y="443"/>
      <point x="370" y="603"/>
      <point x="371" y="662" type="curve"/>
      <point x="587" y="663" type="line"/>
      <point x="587" y="693" type="line"/>
      <point x="310" y="701" type="line"/>
      <point x="281" y="628"/>
      <point x="221" y="483"/>
      <point x="165" y="354" type="curve" smooth="yes"/>
      <point x="109" y="223"/>
      <point x="41" y="76"/>
    </contour>
    <contour>
      <point x="331" y="213" type="line"/>
      <point x="141" y="215" type="line"/>
      <point x="159" y="258"/>
      <point x="178" y="301"/>
      <point x="196" y="344" type="curve" smooth="yes"/>
      <point x="243" y="455"/>
      <point x="299" y="597"/>
      <point x="332" y="667" type="curve"/>
      <point x="333" y="603"/>
      <point x="333" y="468"/>
      <point x="332" y="352" type="curve" smooth="yes"/>
    </contour>
  </outline>
</glyph>
<glyph name="Eth" format="2">
  <advance width="447"/>
  <unicode hex="00D0"/>
  <outline>
    <contour>
      <point x="12" y="331" type="line"/>
      <point x="33" y="331"/>
      <point x="83" y="332"/>
      <point x="145" y="332" type="curve"/>
      <point x="186" y="332"/>
      <point x="250" y="331"/>
      <point x="287" y="331" type="curve"/>
      <point x="284" y="359" type="line"/>
      <point x="253" y="358"/>
      <point x="196" y="356"/>
      <point x="151" y="357" type="curve"/>
      <point x="87" y="358"/>
      <point x="37" y="359"/>
      <point x="18" y="359" type="curve"/>
    </contour>
    <component base="D"/>
  </outline>
</glyph>
<glyph name="Oslash" format="2">
  <advance width="459"/>
  <unicode hex="00D8"/>
  <anchor x="230" y="0" name="bottom"/>
  <anchor x="230" y="693" name="top"/>
  <outline>
    <contour>
      <point x="225" y="-2" type="curve" smooth="yes"/>
      <point x="307" y="-2"/>
      <point x="353" y="51"/>
      <point x="377" y="131" type="curve" smooth="yes"/>
      <point x="396" y="194"/>
      <point x="402" y="274"/>
      <point x="402" y="359" type="curve" smooth="yes"/>
      <point x="402" y="424"/>
      <point x="401" y="492"/>
      <point x="390" y="550" type="curve" smooth="yes"/>
      <point x="374" y="641"/>
      <point x="334" y="709"/>
      <point x="242" y="709" type="curve" smooth="yes"/>
      <point x="143" y="709"/>
      <point x="96" y="644"/>
      <point x="74" y="554" type="curve" smooth="yes"/>
      <point x="60" y="496"/>
      <point x="57" y="428"/>
      <point x="57" y="360" type="curve" smooth="yes"/>
      <point x="57" y="282"/>
      <point x="60" y="210"/>
      <point x="72" y="151" type="curve" smooth="yes"/>
      <point x="90" y="58"/>
      <point x="133" y="-2"/>
    </contour>
    <contour>
      <point x="226" y="31" type="curve" smooth="yes"/>
      <point x="152" y="31"/>
      <point x="119" y="80"/>
      <point x="104" y="161" type="curve" smooth="yes"/>
      <point x="95" y="213"/>
      <point x="93" y="277"/>
      <point x="93" y="349" type="curve" smooth="yes"/>
      <point x="93" y="417"/>
      <point x="96" y="486"/>
      <point x="108" y="544" type="curve" smooth="yes"/>
      <point x="126" y="623"/>
      <point x="162" y="679"/>
      <point x="235" y="679" type="curve" smooth="yes"/>
      <point x="314" y="679"/>
      <point x="345" y="623"/>
      <point x="357" y="536" type="curve" smooth="yes"/>
      <point x="363" y="487"/>
      <point x="364" y="428"/>
      <point x="364" y="364" type="curve" smooth="yes"/>
      <point x="364" y="274"/>
      <point x="360" y="197"/>
      <point x="344" y="140" type="curve" smooth="yes"/>
      <point x="326" y="71"/>
      <point x="290" y="31"/>
    </contour>
    <contour>
      <point x="120" y="-35" type="line"/>
      <point x="154" y="63"/>
      <point x="210" y="225"/>
      <point x="242" y="314" type="curve" smooth="yes"/>
      <point x="276" y="403"/>
      <point x="350" y="589"/>
      <point x="397" y="705" type="curve"/>
      <point x="361" y="722" type="line"/>
      <point x="327" y="631"/>
      <point x="265" y="463"/>
      <point x="217" y="332" type="curve" smooth="yes"/>
      <point x="170" y="201"/>
      <point x="114" y="54"/>
      <point x="86" y="-21" type="curve"/>
    </contour>
  </outline>
</glyph>
<glyph name="Thorn" format="2">
  <advance width="407"/>
  <unicode hex="00DE"/>
  <outline>
    <contour>
      <point x="101" y="150" type="line"/>
      <point x="272" y="150"/>
      <point x="363" y="224"/>
      <point x="363" y="372" type="curve" smooth="yes"/>
      <point x="363" y="548"/>
      <point x="294" y="583"/>
      <point x="165" y="583" type="curve" smooth="yes"/>
      <point x="144" y="583"/>
      <point x="121" y="582"/>
      <point x="96" y="580" type="curve"/>
      <point x="96" y="542" type="line"/>
      <point x="126" y="547"/>
      <point x="152" y="549"/>
      <point x="175" y="549" type="curve" smooth="yes"/>
      <point x="275" y="549"/>
      <point x="328" y="509"/>
      <point x="328" y="369" type="curve" smooth="yes"/>
      <point x="328" y="253"/>
      <point x="260" y="176"/>
      <point x="97" y="184" type="curve"/>
    </contour>
    <contour>
      <point x="70" y="-2" type="curve"/>
      <point x="111" y="1" type="line"/>
      <point x="109" y="101"/>
      <point x="107" y="265"/>
      <point x="107" y="350" type="curve"/>
      <point x="107" y="385"/>
      <point x="109" y="662"/>
      <point x="110" y="698" type="curve"/>
      <point x="67" y="708" type="line"/>
      <point x="70" y="628"/>
      <point x="74" y="477"/>
      <point x="74" y="352" type="curve"/>
      <point x="74" y="227"/>
      <point x="72" y="77"/>
    </contour>
  </outline>
</glyph>
<glyph name="germandbls" format="2">
  <advance width="460"/>
  <unicode hex="00DF"/>
  <outline>
    <contour>
      <point x="76" y="-1" type="curve"/>
      <point x="115" y="0" type="line"/>
      <point x="113" y="40"/>
      <point x="112" y="159"/>
      <point x="112" y="271" type="curve" smooth="yes"/>
      <point x="112" y="388"/>
      <point x="114" y="459"/>
      <point x="116" y="530" type="curve" smooth="yes"/>
      <point x="119" y="619"/>
      <point x="148" y="670"/>
      <point x="244" y="670" type="curve" smooth="yes"/>
      <point x="324" y="670"/>
      <point x="356" y="620"/>
      <point x="356" y="561" type="curve" smooth="yes"/>
      <point x="356" y="463"/>
      <point x="219" y="445"/>
      <point x="219" y="362" type="curve" smooth="yes"/>
      <point x="219" y="319"/>
      <point x="258" y="292"/>
      <point x="300" y="263" type="curve" smooth="yes"/>
      <point x="348" y="229"/>
      <point x="400" y="193"/>
      <point x="400" y="127" type="curve" smooth="yes"/>
      <point x="400" y="60"/>
      <point x="340" y="13"/>
      <point x="235" y="28" type="curve"/>
      <point x="233" y="0" type="line"/>
      <point x="359" y="-15"/>
      <point x="434" y="47"/>
      <point x="434" y="129" type="curve" smooth="yes"/>
      <point x="434" y="204"/>
      <point x="377" y="243"/>
      <point x="327" y="279" type="curve" smooth="yes"/>
      <point x="287" y="306"/>
      <point x="252" y="331"/>
      <point x="252" y="367" type="curve" smooth="yes"/>
      <point x="252" y="430"/>
      <point x="387" y="453"/>
      <point x="387" y="565" type="curve" smooth="yes"/>
      <point x="387" y="634"/>
      <point x="346" y="700"/>
      <point x="243" y="700" type="curve" smooth="yes"/>
      <point x="123" y="700"/>
      <point x="85" y="621"/>
      <point x="83" y="532" type="curve" smooth="yes"/>
      <point x="82" y="492"/>
      <point x="81" y="348"/>
      <point x="81" y="270" type="curve" smooth="yes"/>
      <point x="81" y="157"/>
      <point x="77" y="39"/>
    </contour>
  </outline>
</glyph>
<glyph name="ae" format="2">
  <advance width="580"/>
  <unicode hex="00E6"/>
  <anchor x="314" y="555" name="top"/>
  <outline>
    <contour>
      <point x="134" y="-7" type="curve" smooth="yes"/>
      <point x="212" y="-7"/>
      <point x="253" y="58"/>
      <point x="272" y="139" type="curve"/>
      <point x="288" y="50"/>
      <point x="322" y="-10"/>
      <point x="407" y="-10" type="curve" smooth="yes"/>
      <point x="514" y="-10"/>
      <point x="547" y="51"/>
      <point x="547" y="158" type="curve" smooth="yes"/>
      <point x="547" y="167"/>
      <point x="546" y="177"/>
      <point x="546" y="187" type="curve"/>
      <point x="511" y="187" type="line"/>
      <point x="512" y="171"/>
      <point x="513" y="155"/>
      <point x="513" y="139" type="curve" smooth="yes"/>
      <point x="513" y="75"/>
      <point x="496" y="20"/>
      <point x="412" y="20" type="curve" smooth="yes"/>
      <point x="354" y="20"/>
      <point x="324" y="60"/>
      <point x="309" y="123" type="curve" smooth="yes"/>
      <point x="299" y="164"/>
      <point x="296" y="216"/>
      <point x="295" y="273" type="curve"/>
      <point x="359" y="276"/>
      <point x="471" y="276"/>
      <point x="538" y="276" type="curve"/>
      <point x="542" y="311"/>
      <point x="545" y="347"/>
      <point x="545" y="383" type="curve" smooth="yes"/>
      <point x="545" y="480"/>
      <point x="521" y="565"/>
      <point x="422" y="565" type="curve" smooth="yes"/>
      <point x="354" y="565"/>
      <point x="312" y="528"/>
      <point x="288" y="468" type="curve"/>
      <point x="276" y="519"/>
      <point x="245" y="565"/>
      <point x="172" y="565" type="curve" smooth="yes"/>
      <point x="92" y="565"/>
      <point x="48" y="513"/>
      <point x="48" y="434" type="curve" smooth="yes"/>
      <point x="48" y="414"/>
      <point x="50" y="392"/>
      <point x="56" y="368" type="curve"/>
      <point x="87" y="371" type="line"/>
      <point x="82" y="392"/>
      <point x="79" y="412"/>
      <point x="79" y="432" type="curve" smooth="yes"/>
      <point x="79" y="492"/>
      <point x="105" y="535"/>
      <point x="171" y="535" type="curve" smooth="yes"/>
      <point x="229" y="535"/>
      <point x="262" y="498"/>
      <point x="262" y="404" type="curve" smooth="yes"/>
      <point x="262" y="343"/>
      <point x="190" y="310"/>
      <point x="137" y="271" type="curve" smooth="yes"/>
      <point x="82" y="230"/>
      <point x="33" y="191"/>
      <point x="33" y="112" type="curve" smooth="yes"/>
      <point x="33" y="30"/>
      <point x="81" y="-7"/>
    </contour>
    <contour>
      <point x="139" y="25" type="curve" smooth="yes"/>
      <point x="85" y="25"/>
      <point x="68" y="61"/>
      <point x="68" y="118" type="curve" smooth="yes"/>
      <point x="68" y="181"/>
      <point x="107" y="211"/>
      <point x="162" y="252" type="curve" smooth="yes"/>
      <point x="201" y="281"/>
      <point x="241" y="303"/>
      <point x="262" y="337" type="curve"/>
      <point x="262" y="291"/>
      <point x="262" y="245"/>
      <point x="262" y="199" type="curve"/>
      <point x="252" y="98"/>
      <point x="203" y="25"/>
    </contour>
    <contour>
      <point x="295" y="304" type="line"/>
      <point x="296" y="340"/>
      <point x="299" y="376"/>
      <point x="304" y="409" type="curve" smooth="yes"/>
      <point x="316" y="482"/>
      <point x="348" y="538"/>
      <point x="417" y="538" type="curve" smooth="yes"/>
      <point x="495" y="538"/>
      <point x="514" y="472"/>
      <point x="514" y="390" type="curve" smooth="yes"/>
      <point x="514" y="363"/>
      <point x="512" y="335"/>
      <point x="509" y="306" type="curve"/>
    </contour>
  </outline>
</glyph>
<glyph name="eth" format="2">
  <advance width="413"/>
  <unicode hex="00F0"/>
  <outline>
    <contour>
      <point x="192" y="-10" type="curve" smooth="yes"/>
      <point x="298" y="-10"/>
      <point x="343" y="59"/>
      <point x="343" y="307" type="curve" smooth="yes"/>
      <point x="343" y="592"/>
      <point x="239" y="671"/>
      <point x="146" y="714" type="curve"/>
      <point x="132" y="688" type="line"/>
      <point x="233" y="649"/>
      <point x="309" y="537"/>
      <point x="309" y="363" type="curve" smooth="yes"/>
      <point x="309" y="314"/>
      <point x="309" y="231"/>
      <point x="309" y="226" type="curve" smooth="yes"/>
      <point x="309" y="90"/>
      <point x="284" y="15"/>
      <point x="194" y="15" type="curve" smooth="yes"/>
      <point x="123" y="15"/>
      <point x="92" y="78"/>
      <point x="92" y="204" type="curve" smooth="yes"/>
      <point x="92" y="307"/>
      <point x="119" y="387"/>
      <point x="202" y="387" type="curve" smooth="yes"/>
      <point x="275" y="387"/>
      <point x="309" y="335"/>
      <point x="309" y="226" type="curve"/>
      <point x="327" y="279" type="line"/>
      <point x="310" y="382"/>
      <point x="261" y="414"/>
      <point x="204" y="414" type="curve" smooth="yes"/>
      <point x="105" y="414"/>
      <point x="60" y="328"/>
      <point x="60" y="196" type="curve" smooth="yes"/>
      <point x="60" y="66"/>
      <point x="103" y="-10"/>
    </contour>
    <contour>
      <point x="171" y="515" type="line"/>
      <point x="186" y="527"/>
      <point x="234" y="556"/>
      <point x="267" y="579" type="curve" smooth="yes"/>
      <point x="291" y="596"/>
      <point x="351" y="630"/>
      <point x="372" y="644" type="curve"/>
      <point x="356" y="665" type="line"/>
      <point x="338" y="651"/>
      <point x="285" y="619"/>
      <point x="259" y="600" type="curve" smooth="yes"/>
      <point x="223" y="574"/>
      <point x="173" y="549"/>
      <point x="156" y="538" type="curve"/>
    </contour>
  </outline>
</glyph>
<glyph name="oslash" format="2">
  <advance width="398"/>
  <unicode hex="00F8"/>
  <anchor x="199" y="555" name="top"/>
  <outline>
    <contour>
      <point x="193" y="-10" type="curve" smooth="yes"/>
      <point x="272" y="-10"/>
      <point x="310" y="39"/>
      <point x="328" y="118" type="curve" smooth="yes"/>
      <point x="339" y="164"/>
      <point x="342" y="220"/>
      <point x="342" y="282" type="curve" smooth="yes"/>
      <point x="342" y="338"/>
      <point x="339" y="391"/>
      <point x="329" y="435" type="curve" smooth="yes"/>
      <point x="313" y="514"/>
      <point x="277" y="566"/>
      <point x="207" y="566" type="curve" smooth="yes"/>
      <point x="132" y="566"/>
      <point x="92" y="516"/>
      <point x="72" y="442" type="curve" smooth="yes"/>
      <point x="60" y="396"/>
      <point x="56" y="341"/>
      <point x="56" y="283" type="curve" smooth="yes"/>
      <point x="56" y="228"/>
      <point x="58" y="171"/>
      <point x="67" y="123" type="curve" smooth="yes"/>
      <point x="82" y="47"/>
      <point x="116" y="-10"/>
    </contour>
    <contour>
      <point x="196" y="20" type="curve" smooth="yes"/>
      <point x="137" y="20"/>
      <point x="110" y="64"/>
      <point x="98" y="130" type="curve" smooth="yes"/>
      <point x="91" y="168"/>
      <point x="89" y="214"/>
      <point x="89" y="263" type="curve" smooth="yes"/>
      <point x="89" y="323"/>
      <point x="91" y="382"/>
      <point x="102" y="431" type="curve" smooth="yes"/>
      <point x="116" y="493"/>
      <point x="146" y="537"/>
      <point x="207" y="537" type="curve" smooth="yes"/>
      <point x="259" y="537"/>
      <point x="286" y="491"/>
      <point x="299" y="430" type="curve" smooth="yes"/>
      <point x="308" y="386"/>
      <point x="310" y="334"/>
      <point x="309" y="286" type="curve" smooth="yes"/>
      <point x="307" y="227"/>
      <point x="305" y="173"/>
      <point x="297" y="129" type="curve" smooth="yes"/>
      <point x="284" y="63"/>
      <point x="257" y="20"/>
    </contour>
    <contour>
      <point x="100" y="-40" type="line"/>
      <point x="130" y="41"/>
      <point x="180" y="176"/>
      <point x="207" y="250" type="curve" smooth="yes"/>
      <point x="233" y="324"/>
      <point x="299" y="484"/>
      <point x="341" y="584" type="curve"/>
      <point x="305" y="599" type="line"/>
      <point x="276" y="520"/>
      <point x="222" y="376"/>
      <point x="183" y="267" type="curve" smooth="yes"/>
      <point x="143" y="158"/>
      <point x="93" y="36"/>
      <point x="66" y="-26" type="curve"/>
    </contour>
  </outline>
</glyph>
<glyph name="thorn" format="2">
  <advance width="414"/>
  <unicode hex="00FE"/>
  <outline>
    <contour>
      <point x="70" y="-149" type="curve"/>
      <point x="106" y="-147" type="line"/>
      <point x="104" y="59" type="line"/>
      <point x="118" y="25"/>
      <point x="148" y="-10"/>
      <point x="211" y="-10" type="curve" smooth="yes"/>
      <point x="268" y="-10"/>
      <point x="303" y="21"/>
      <point x="324" y="72" type="curve" smooth="yes"/>
      <point x="347" y="128"/>
      <point x="355" y="206"/>
      <point x="355" y="293" type="curve" smooth="yes"/>
      <point x="355" y="355"/>
      <point x="353" y="409"/>
      <point x="344" y="452" type="curve" smooth="yes"/>
      <point x="330" y="520"/>
      <point x="299" y="561"/>
      <point x="233" y="561" type="curve" smooth="yes"/>
      <point x="165" y="561"/>
      <point x="126" y="513"/>
      <point x="104" y="460" type="curve"/>
      <point x="104" y="538"/>
      <point x="105" y="616"/>
      <point x="105" y="694" type="curve"/>
      <point x="69" y="694" type="line"/>
      <point x="70" y="651"/>
      <point x="72" y="343"/>
      <point x="72" y="208" type="curve" smooth="yes"/>
      <point x="72" y="103"/>
      <point x="71" y="-57"/>
    </contour>
    <contour>
      <point x="103" y="230" type="curve" smooth="yes"/>
      <point x="103" y="294" type="line" smooth="yes"/>
      <point x="103" y="476"/>
      <point x="173" y="531"/>
      <point x="230" y="531" type="curve" smooth="yes"/>
      <point x="281" y="531"/>
      <point x="303" y="500"/>
      <point x="315" y="440" type="curve" smooth="yes"/>
      <point x="323" y="398"/>
      <point x="323" y="345"/>
      <point x="323" y="277" type="curve" smooth="yes"/>
      <point x="323" y="214"/>
      <point x="320" y="142"/>
      <point x="299" y="89" type="curve" smooth="yes"/>
      <point x="283" y="48"/>
      <point x="258" y="19"/>
      <point x="217" y="19" type="curve" smooth="yes"/>
      <point x="122" y="19"/>
      <point x="103" y="97"/>
    </contour>
  </outline>
</glyph>
<glyph name="idotless" format="2">
  <advance width="204"/>
  <unicode hex="0131"/>
  <anchor x="105" y="0" name="bottom"/>
  <anchor x="104" y="555" name="top"/>
  <outline>
    <contour>
      <point x="122" y="0" type="line"/>
      <point x="122" y="0"/>
      <point x="120" y="142"/>
      <point x="120" y="285" type="curve"/>
      <point x="120" y="429"/>
      <point x="124" y="556"/>
      <point x="124" y="556" type="curve"/>
      <point x="88" y="556" type="line"/>
      <point x="88" y="556"/>
      <point x="89" y="432"/>
      <point x="89" y="286" type="curve"/>
      <point x="89" y="141"/>
      <point x="85" y="2"/>
      <point x="85" y="2" type="curve"/>
    </contour>
  </outline>
</glyph>
<glyph name="kgreenlandic" format="2">
  <advance width="388"/>
  <unicode hex="0138"/>
  <outline>
    <contour>
      <point x="341" y="0" type="curve"/>
      <point x="382" y="3" type="line"/>
      <point x="292" y="103"/>
      <point x="210" y="199"/>
      <point x="137" y="290" type="curve"/>
      <point x="213" y="386"/>
      <point x="289" y="478"/>
      <point x="358" y="559" type="curve"/>
      <point x="320" y="561" type="line"/>
      <point x="261" y="485"/>
      <point x="195" y="403"/>
      <point x="102" y="289" type="curve"/>
      <point x="180" y="197"/>
      <point x="270" y="88"/>
    </contour>
    <contour>
      <point x="78" y="0" type="curve"/>
      <point x="112" y="0" type="line"/>
      <point x="112" y="61"/>
      <point x="112" y="180"/>
      <point x="112" y="284" type="curve"/>
      <point x="112" y="359"/>
      <point x="113" y="473"/>
      <point x="113" y="559" type="curve"/>
      <point x="79" y="554" type="line"/>
      <point x="80" y="469"/>
      <point x="81" y="361"/>
      <point x="81" y="285" type="curve"/>
      <point x="81" y="179"/>
      <point x="79" y="60"/>
    </contour>
  </outline>
</glyph>
<glyph name="lcaron" format="2">
  <advance width="236"/>
  <unicode hex="013E"/>
  <outline>
    <contour>
      <point x="78" y="0" type="curve"/>
      <point x="112" y="6" type="line"/>
      <point x="112" y="64"/>
      <point x="112" y="180"/>
      <point x="112" y="284" type="curve"/>
      <point x="112" y="389"/>
      <point x="113" y="580"/>
      <point x="114" y="694" type="curve"/>
      <point x="78" y="694" type="line"/>
      <point x="79" y="581"/>
      <point x="81" y="392"/>
      <point x="81" y="285" type="curve"/>
      <point x="81" y="179"/>
      <point x="79" y="60"/>
    </contour>
    <contour>
      <point x="208" y="528" type="line"/>
      <point x="232" y="547"/>
      <point x="238" y="586"/>
      <point x="238" y="609" type="curve"/>
      <point x="238" y="636"/>
      <point x="236" y="676"/>
      <point x="235" y="698" type="curve"/>
      <point x="185" y="692" type="line"/>
      <point x="192" y="612" type="line"/>
      <point x="214" y="611" type="line"/>
      <point x="216" y="588"/>
      <point x="210" y="558"/>
      <point x="191" y="543" type="curve"/>
    </contour>
  </outline>
</glyph>
<glyph name="ldot" format="2">
  <advance width="224"/>
  <unicode hex="0140"/>
  <outline>
    <contour>
      <point x="78" y="0" type="curve"/>
      <point x="112" y="6" type="line"/>
      <point x="112" y="6"/>
      <point x="112" y="141"/>
      <point x="112" y="284" type="curve"/>
      <point x="112" y="428"/>
      <point x="114" y="694"/>
      <point x="114" y="694" type="curve"/>
      <point x="78" y="694" type="line"/>
      <point x="78" y="694"/>
      <point x="81" y="431"/>
      <point x="81" y="285" type="curve"/>
      <point x="81" y="140"/>
      <point x="78" y="0"/>
    </contour>
    <contour>
      <point x="230" y="316" type="line"/>
      <point x="228" y="393" type="line"/>
      <point x="184" y="390" type="line"/>
      <point x="188" y="318" type="line"/>
    </contour>
  </outline>
</glyph>
<glyph name="napostrophe" format="2">
  <advance width="410"/>
  <unicode hex="0149"/>
  <outline>
    <contour>
      <point x="84" y="604" type="line"/>
      <point x="108" y="625"/>
      <point x="118" y="666"/>
      <point x="118" y="692" type="curve"/>
      <point x="117" y="732"/>
      <point x="115" y="772"/>
      <point x="115" y="772" type="curve"/>
      <point x="67" y="765" type="line"/>
      <point x="75" y="695" type="line"/>
      <point x="95" y="694" type="line"/>
      <point x="96" y="647"/>
      <point x="67" y="617"/>
      <point x="67" y="617" type="curve"/>
    </contour>
    <component base="n"/>
  </outline>
</glyph>
<glyph name="Eng" format="2">
  <advance width="479"/>
  <unicode hex="014A"/>
  <outline>
    <contour>
      <point x="312" y="-156" type="line"/>
      <point x="382" y="-155"/>
      <point x="408" y="-104"/>
      <point x="408" y="-42" type="curve" smooth="yes"/>
      <point x="407" y="103"/>
      <point x="407" y="247"/>
      <point x="406" y="392" type="curve" smooth="yes"/>
      <point x="406" y="519"/>
      <point x="407" y="637"/>
      <point x="410" y="715" type="curve"/>
      <point x="367" y="715" type="line"/>
      <point x="369" y="600"/>
      <point x="369" y="492"/>
      <point x="370" y="382" type="curve" smooth="yes"/>
      <point x="370" y="283"/>
      <point x="371" y="182"/>
      <point x="371" y="72" type="curve"/>
      <point x="342" y="138"/>
      <point x="296" y="253"/>
      <point x="249" y="372" type="curve" smooth="yes"/>
      <point x="200" y="495"/>
      <point x="150" y="622"/>
      <point x="120" y="704" type="curve"/>
      <point x="69" y="704" type="line"/>
      <point x="72" y="616"/>
      <point x="73" y="486"/>
      <point x="74" y="355" type="curve" smooth="yes"/>
      <point x="74" y="225"/>
      <point x="74" y="93"/>
      <point x="72" y="1" type="curve"/>
      <point x="112" y="0" type="line"/>
      <point x="110" y="130"/>
      <point x="110" y="251"/>
      <point x="109" y="364" type="curve" smooth="yes"/>
      <point x="109" y="458"/>
      <point x="108" y="547"/>
      <point x="108" y="628" type="curve"/>
      <point x="125" y="587"/>
      <point x="172" y="472"/>
      <point x="225" y="339" type="curve" smooth="yes"/>
      <point x="274" y="216"/>
      <point x="323" y="93"/>
      <point x="372" y="-30" type="curve"/>
      <point x="370" y="-98"/>
      <point x="359" y="-128"/>
      <point x="307" y="-128" type="curve"/>
    </contour>
  </outline>
</glyph>
<glyph name="eng" format="2">
  <advance width="410"/>
  <unicode hex="014B"/>
  <outline>
    <contour>
      <point x="222" y="-156" type="line"/>
      <point x="294" y="-155"/>
      <point x="339" y="-112"/>
      <point x="343" y="-30" type="curve" smooth="yes"/>
      <point x="346" y="25"/>
      <point x="345" y="156"/>
      <point x="345" y="299" type="curve" smooth="yes"/>
      <point x="345" y="421" type="line" smooth="yes"/>
      <point x="345" y="520"/>
      <point x="306" y="562"/>
      <point x="241" y="562" type="curve" smooth="yes"/>
      <point x="181" y="562"/>
      <point x="135" y="523"/>
      <point x="109" y="452" type="curve"/>
      <point x="110" y="488"/>
      <point x="111" y="523"/>
      <point x="112" y="559" type="curve"/>
      <point x="73" y="556" type="line"/>
      <point x="75" y="524"/>
      <point x="76" y="421"/>
      <point x="77" y="285" type="curve" smooth="yes"/>
      <point x="77" y="152"/>
      <point x="75" y="51"/>
      <point x="73" y="0" type="curve"/>
      <point x="110" y="0" type="line"/>
      <point x="108" y="50"/>
      <point x="110" y="183"/>
      <point x="110" y="316" type="curve" smooth="yes"/>
      <point x="110" y="437"/>
      <point x="154" y="532"/>
      <point x="239" y="532" type="curve" smooth="yes"/>
      <point x="290" y="532"/>
      <point x="314" y="497"/>
      <point x="314" y="424" type="curve" smooth="yes"/>
      <point x="314" y="298" type="line" smooth="yes"/>
      <point x="314" y="154"/>
      <point x="312" y="9"/>
      <point x="310" y="-32" type="curve" smooth="yes"/>
      <point x="307" y="-94"/>
      <point x="279" y="-128"/>
      <point x="221" y="-127" type="curve"/>
    </contour>
  </outline>
</glyph>
<glyph name="OE" format="2">
  <advance width="654"/>
  <unicode hex="0152"/>
  <outline>
    <contour>
      <point x="237" y="-2" type="curve" smooth="yes"/>
      <point x="300" y="-2"/>
      <point x="320" y="0"/>
      <point x="368" y="0" type="curve" smooth="yes"/>
      <point x="602" y="0" type="line"/>
      <point x="602" y="25" type="line"/>
      <point x="373" y="30" type="line"/>
      <point x="370" y="216" type="line"/>
      <point x="595" y="220" type="line"/>
      <point x="597" y="248" type="line"/>
      <point x="370" y="251" type="line"/>
      <point x="369" y="350" type="line" smooth="yes"/>
      <point x="369" y="442"/>
      <point x="371" y="601"/>
      <point x="372" y="662" type="curve"/>
      <point x="592" y="663" type="line"/>
      <point x="592" y="693" type="line"/>
      <point x="382" y="693" type="line" smooth="yes"/>
      <point x="320" y="693"/>
      <point x="303" y="709"/>
      <point x="254" y="709" type="curve" smooth="yes"/>
      <point x="100" y="709"/>
      <point x="69" y="555"/>
      <point x="69" y="360" type="curve" smooth="yes"/>
      <point x="69" y="155"/>
      <point x="88" y="-2"/>
    </contour>
    <contour>
      <point x="252" y="30" type="curve" smooth="yes"/>
      <point x="110" y="30"/>
      <point x="105" y="157"/>
      <point x="105" y="349" type="curve" smooth="yes"/>
      <point x="105" y="508"/>
      <point x="121" y="679"/>
      <point x="247" y="679" type="curve" smooth="yes"/>
      <point x="272" y="679"/>
      <point x="300" y="671"/>
      <point x="330" y="656" type="curve"/>
      <point x="332" y="597"/>
      <point x="336" y="475"/>
      <point x="336" y="352" type="curve" smooth="yes"/>
      <point x="336" y="227"/>
      <point x="334" y="96"/>
      <point x="333" y="35" type="curve"/>
      <point x="302" y="32"/>
      <point x="275" y="30"/>
    </contour>
  </outline>
</glyph>
<glyph name="oe" format="2">
  <advance width="620"/>
  <unicode hex="0153"/>
  <outline>
    <contour>
      <point x="186" y="-10" type="curve" smooth="yes"/>
      <point x="265" y="-10"/>
      <point x="303" y="39"/>
      <point x="321" y="118" type="curve" smooth="yes"/>
      <point x="332" y="164"/>
      <point x="335" y="220"/>
      <point x="335" y="282" type="curve" smooth="yes"/>
      <point x="335" y="338"/>
      <point x="332" y="391"/>
      <point x="322" y="435" type="curve" smooth="yes"/>
      <point x="306" y="514"/>
      <point x="270" y="566"/>
      <point x="200" y="566" type="curve" smooth="yes"/>
      <point x="125" y="566"/>
      <point x="85" y="516"/>
      <point x="65" y="442" type="curve" smooth="yes"/>
      <point x="53" y="396"/>
      <point x="49" y="341"/>
      <point x="49" y="283" type="curve" smooth="yes"/>
      <point x="49" y="228"/>
      <point x="51" y="171"/>
      <point x="60" y="123" type="curve" smooth="yes"/>
      <point x="75" y="47"/>
      <point x="109" y="-10"/>
    </contour>
    <contour>
      <point x="189" y="20" type="curve" smooth="yes"/>
      <point x="130" y="20"/>
      <point x="103" y="64"/>
      <point x="91" y="130" type="curve" smooth="yes"/>
      <point x="84" y="168"/>
      <point x="82" y="214"/>
      <point x="82" y="263" type="curve" smooth="yes"/>
      <point x="82" y="323"/>
      <point x="84" y="382"/>
      <point x="95" y="431" type="curve" smooth="yes"/>
      <point x="109" y="493"/>
      <point x="139" y="537"/>
      <point x="200" y="537" type="curve" smooth="yes"/>
      <point x="252" y="537"/>
      <point x="279" y="491"/>
      <point x="292" y="430" type="curve" smooth="yes"/>
      <point x="301" y="386"/>
      <point x="303" y="334"/>
      <point x="302" y="286" type="curve" smooth="yes"/>
      <point x="300" y="227"/>
      <point x="298" y="173"/>
      <point x="290" y="129" type="curve" smooth="yes"/>
      <point x="277" y="63"/>
      <point x="250" y="20"/>
    </contour>
    <contour>
      <point x="446" y="-10" type="curve" smooth="yes"/>
      <point x="553" y="-10"/>
      <point x="586" y="51"/>
      <point x="586" y="158" type="curve" smooth="yes"/>
      <point x="586" y="167"/>
      <point x="585" y="177"/>
      <point x="585" y="187" type="curve"/>
      <point x="550" y="187" type="line"/>
      <point x="551" y="171"/>
      <point x="552" y="155"/>
      <point x="552" y="139" type="curve" smooth="yes"/>
      <point x="552" y="75"/>
      <point x="535" y="20"/>
      <point x="451" y="20" type="curve" smooth="yes"/>
      <point x="393" y="20"/>
      <point x="363" y="60"/>
      <point x="348" y="123" type="curve" smooth="yes"/>
      <point x="337" y="168"/>
      <point x="334" y="226"/>
      <point x="334" y="290" type="curve" smooth="yes"/>
      <point x="334" y="331"/>
      <point x="337" y="372"/>
      <point x="343" y="409" type="curve" smooth="yes"/>
      <point x="355" y="482"/>
      <point x="387" y="538"/>
      <point x="456" y="538" type="curve" smooth="yes"/>
      <point x="534" y="538"/>
      <point x="553" y="472"/>
      <point x="553" y="390" type="curve" smooth="yes"/>
      <point x="553" y="362"/>
      <point x="551" y="333"/>
      <point x="548" y="303" type="curve"/>
      <point x="577" y="276" type="line"/>
      <point x="581" y="311"/>
      <point x="584" y="347"/>
      <point x="584" y="383" type="curve" smooth="yes"/>
      <point x="584" y="480"/>
      <point x="560" y="565"/>
      <point x="461" y="565" type="curve" smooth="yes"/>
      <point x="377" y="565"/>
      <point x="332" y="509"/>
      <point x="314" y="422" type="curve" smooth="yes"/>
      <point x="306" y="384"/>
      <point x="302" y="339"/>
      <point x="302" y="291" type="curve" smooth="yes"/>
      <point x="302" y="223"/>
      <point x="305" y="158"/>
      <point x="318" y="107" type="curve" smooth="yes"/>
      <point x="336" y="36"/>
      <point x="373" y="-10"/>
    </contour>
    <contour>
      <point x="318" y="272" type="line"/>
      <point x="401" y="277"/>
      <point x="577" y="276"/>
      <point x="577" y="276" type="curve"/>
      <point x="579" y="306" type="line"/>
      <point x="318" y="304" type="line"/>
    </contour>
  </outline>
</glyph>
<glyph name="Schwa" format="2">
  <advance width="426"/>
  <unicode hex="018F"/>
  <outline>
    <contour>
      <point x="188" y="-12" type="curve" smooth="yes"/>
      <point x="287" y="-12"/>
      <point x="333" y="57"/>
      <point x="354" y="156" type="curve" smooth="yes"/>
      <point x="365" y="209"/>
      <point x="369" y="272"/>
      <point x="369" y="337" type="curve" smooth="yes"/>
      <point x="369" y="429"/>
      <point x="367" y="511"/>
      <point x="351" y="573" type="curve" smooth="yes"/>
      <point x="331" y="651"/>
      <point x="290" y="699"/>
      <point x="204" y="699" type="curve" smooth="yes"/>
      <point x="88" y="699"/>
      <point x="49" y="631"/>
      <point x="49" y="536" type="curve" smooth="yes"/>
      <point x="49" y="521"/>
      <point x="50" y="506"/>
      <point x="52" y="490" type="curve"/>
      <point x="85" y="493" type="line"/>
      <point x="83" y="510"/>
      <point x="82" y="526"/>
      <point x="82" y="541" type="curve" smooth="yes"/>
      <point x="82" y="615"/>
      <point x="108" y="667"/>
      <point x="201" y="667" type="curve" smooth="yes"/>
      <point x="270" y="667"/>
      <point x="302" y="627"/>
      <point x="319" y="555" type="curve" smooth="yes"/>
      <point x="331" y="503"/>
      <point x="333" y="434"/>
      <point x="333" y="352" type="curve" smooth="yes"/>
      <point x="333" y="281"/>
      <point x="330" y="218"/>
      <point x="320" y="166" type="curve" smooth="yes"/>
      <point x="303" y="75"/>
      <point x="266" y="19"/>
      <point x="193" y="19" type="curve" smooth="yes"/>
      <point x="99" y="19"/>
      <point x="73" y="89"/>
      <point x="73" y="194" type="curve" smooth="yes"/>
      <point x="73" y="237"/>
      <point x="77" y="286"/>
      <point x="83" y="339" type="curve"/>
      <point x="49" y="339" type="line"/>
      <point x="42" y="288"/>
      <point x="38" y="238"/>
      <point x="38" y="194" type="curve" smooth="yes"/>
      <point x="38" y="73"/>
      <point x="72" y="-12"/>
    </contour>
    <contour>
      <point x="55" y="312" type="line"/>
      <point x="350" y="314" type="line"/>
      <point x="349" y="346" type="line"/>
      <point x="267" y="341"/>
      <point x="49" y="339"/>
      <point x="49" y="339" type="curve"/>
    </contour>
  </outline>
</glyph>
<glyph name="Nhookleft" format="2">
  <advance width="479"/>
  <unicode hex="019D"/>
  <outline>
    <contour>
      <point x="6" y="-128" type="curve"/>
      <point x="11" y="-156" type="line"/>
      <point x="85" y="-155"/>
      <point x="108" y="-104"/>
      <point x="108" y="-42" type="curve" smooth="yes"/>
      <point x="108" y="-7"/>
      <point x="109" y="221"/>
      <point x="109" y="364" type="curve" smooth="yes"/>
      <point x="109" y="458"/>
      <point x="108" y="547"/>
      <point x="108" y="628" type="curve"/>
      <point x="125" y="587"/>
      <point x="172" y="472"/>
      <point x="225" y="339" type="curve" smooth="yes"/>
      <point x="270" y="226"/>
      <point x="316" y="112"/>
      <point x="361" y="-1" type="curve"/>
      <point x="408" y="3" type="line"/>
      <point x="406" y="111"/>
      <point x="405" y="255"/>
      <point x="406" y="391" type="curve" smooth="yes"/>
      <point x="406" y="518"/>
      <point x="407" y="637"/>
      <point x="410" y="715" type="curve"/>
      <point x="367" y="715" type="line"/>
      <point x="369" y="600"/>
      <point x="369" y="492"/>
      <point x="370" y="382" type="curve" smooth="yes"/>
      <point x="370" y="283"/>
      <point x="371" y="182"/>
      <point x="371" y="72" type="curve"/>
      <point x="342" y="138"/>
      <point x="296" y="253"/>
      <point x="249" y="372" type="curve" smooth="yes"/>
      <point x="200" y="495"/>
      <point x="150" y="622"/>
      <point x="120" y="704" type="curve"/>
      <point x="69" y="704" type="line"/>
      <point x="72" y="616"/>
      <point x="73" y="486"/>
      <point x="74" y="355" type="curve" smooth="yes"/>
      <point x="74" y="211"/>
      <point x="70" y="1"/>
      <point x="70" y="-40" type="curve" smooth="yes"/>
      <point x="70" y="-92"/>
      <point x="55" y="-128"/>
    </contour>
  </outline>
</glyph>
<glyph name="Uhorn" format="2">
  <advance width="455"/>
  <unicode hex="01AF"/>
  <anchor x="229" y="0" name="bottom"/>
  <anchor x="259" y="0" name="ogonek"/>
  <anchor x="230" y="693" name="top"/>
  <anchor x="326" y="693" name="topright"/>
  <outline>
    <contour>
      <point x="227" y="-10" type="curve"/>
      <point x="363" y="-10"/>
      <point x="390" y="94"/>
      <point x="390" y="182" type="curve" smooth="yes"/>
      <point x="390" y="212"/>
      <point x="390" y="308"/>
      <point x="389" y="422" type="curve"/>
      <point x="389" y="554"/>
      <point x="391" y="617"/>
      <point x="392" y="706" type="curve"/>
      <point x="349" y="707" type="line"/>
      <point x="351" y="645"/>
      <point x="354" y="551"/>
      <point x="355" y="424" type="curve"/>
      <point x="355" y="302"/>
      <point x="354" y="186"/>
      <point x="354" y="166" type="curve" smooth="yes"/>
      <point x="354" y="98"/>
      <point x="333" y="19"/>
      <point x="229" y="19" type="curve" smooth="yes"/>
      <point x="133" y="19"/>
      <point x="98" y="82"/>
      <point x="98" y="179" type="curve" smooth="yes"/>
      <point x="98" y="219"/>
      <point x="98" y="349"/>
      <point x="99" y="426" type="curve"/>
      <point x="100" y="494"/>
      <point x="101" y="607"/>
      <point x="104" y="695" type="curve"/>
      <point x="63" y="696" type="line"/>
      <point x="66" y="603"/>
      <point x="66" y="522"/>
      <point x="66" y="432" type="curve"/>
      <point x="66" y="364"/>
      <point x="65" y="250"/>
      <point x="65" y="180" type="curve" smooth="yes"/>
      <point x="65" y="66"/>
      <point x="102" y="-10"/>
    </contour>
    <contour>
      <point x="366" y="600" type="line"/>
      <point x="433" y="613"/>
      <point x="479" y="660"/>
      <point x="483" y="715" type="curve"/>
      <point x="484" y="741"/>
      <point x="485" y="769"/>
      <point x="485" y="782" type="curve"/>
      <point x="427" y="785" type="line"/>
      <point x="433" y="714" type="line"/>
      <point x="458" y="713" type="line"/>
      <point x="458" y="658"/>
      <point x="389" y="627"/>
      <point x="361" y="621" type="curve"/>
    </contour>
  </outline>
</glyph>
<glyph name="LJ" format="2">
  <advance width="736"/>
  <unicode hex="01C7"/>
  <outline>
    <contour>
      <point x="524" y="-6" type="curve" smooth="yes"/>
      <point x="654" y="-6"/>
      <point x="664" y="91"/>
      <point x="664" y="202" type="curve" smooth="yes"/>
      <point x="664" y="272"/>
      <point x="664" y="334"/>
      <point x="664" y="402" type="curve"/>
      <point x="664" y="492"/>
      <point x="664" y="607"/>
      <point x="666" y="700" type="curve"/>
      <point x="621" y="698" type="line"/>
      <point x="625" y="611"/>
      <point x="626" y="464"/>
      <point x="626" y="396" type="curve"/>
      <point x="627" y="319"/>
      <point x="627" y="227"/>
      <point x="627" y="187" type="curve" smooth="yes"/>
      <point x="627" y="86"/>
      <point x="612" y="25"/>
      <point x="529" y="25" type="curve" smooth="yes"/>
      <point x="442" y="25"/>
      <point x="427" y="96"/>
      <point x="427" y="185" type="curve" smooth="yes"/>
      <point x="427" y="222"/>
      <point x="429" y="257"/>
      <point x="433" y="298" type="curve"/>
      <point x="400" y="299" type="line"/>
      <point x="397" y="259"/>
      <point x="394" y="224"/>
      <point x="394" y="186" type="curve" smooth="yes"/>
      <point x="394" y="83"/>
      <point x="413" y="-6"/>
    </contour>
    <contour>
      <point x="70" y="-5" type="line"/>
      <point x="340" y="0" type="line"/>
      <point x="340" y="27" type="line"/>
      <point x="104" y="30" type="line"/>
    </contour>
    <contour>
      <point x="70" y="-5" type="curve"/>
      <point x="111" y="1" type="line"/>
      <point x="109" y="101"/>
      <point x="107" y="265"/>
      <point x="107" y="350" type="curve"/>
      <point x="107" y="435"/>
      <point x="109" y="602"/>
      <point x="110" y="704" type="curve"/>
      <point x="67" y="700" type="line"/>
      <point x="70" y="624"/>
      <point x="74" y="477"/>
      <point x="74" y="352" type="curve"/>
      <point x="74" y="227"/>
      <point x="72" y="75"/>
    </contour>
  </outline>
</glyph>
<glyph name="nhookleft" format="2">
  <advance width="410"/>
  <unicode hex="0272"/>
  <outline>
    <contour>
      <point x="348" y="-1" type="line"/>
      <point x="348" y="50"/>
      <point x="345" y="111"/>
      <point x="345" y="244" type="curve" smooth="yes"/>
      <point x="345" y="337"/>
      <point x="345" y="373"/>
      <point x="345" y="421" type="curve" smooth="yes"/>
      <point x="345" y="520"/>
      <point x="306" y="562"/>
      <point x="241" y="562" type="curve" smooth="yes"/>
      <point x="148" y="562"/>
      <point x="87" y="467"/>
      <point x="87" y="303" type="curve"/>
      <point x="110" y="316" type="line"/>
      <point x="110" y="437"/>
      <point x="154" y="532"/>
      <point x="239" y="532" type="curve" smooth="yes"/>
      <point x="290" y="532"/>
      <point x="314" y="497"/>
      <point x="314" y="424" type="curve" smooth="yes"/>
      <point x="314" y="379"/>
      <point x="314" y="315"/>
      <point x="314" y="243" type="curve" smooth="yes"/>
      <point x="315" y="113"/>
      <point x="311" y="46"/>
      <point x="308" y="0" type="curve"/>
    </contour>
    <contour>
      <point x="-13" y="-156" type="line"/>
      <point x="59" y="-155"/>
      <point x="104" y="-112"/>
      <point x="108" y="-30" type="curve" smooth="yes"/>
      <point x="111" y="25"/>
      <point x="110" y="173"/>
      <point x="110" y="316" type="curve"/>
      <point x="110" y="442"/>
      <point x="112" y="505"/>
      <point x="114" y="556" type="curve"/>
      <point x="76" y="556" type="line"/>
      <point x="77" y="492"/>
      <point x="77" y="416"/>
      <point x="77" y="286" type="curve"/>
      <point x="77" y="142"/>
      <point x="77" y="9"/>
      <point x="75" y="-32" type="curve" smooth="yes"/>
      <point x="72" y="-94"/>
      <point x="44" y="-128"/>
      <point x="-14" y="-127" type="curve"/>
    </contour>
  </outline>
</glyph>
<glyph name="doubleprimemod" format="2">
  <advance width="520"/>
  <unicode hex="02BA"/>
  <outline>
    <contour>
      <point x="295" y="533" type="line"/>
      <point x="309" y="551"/>
      <point x="349" y="607"/>
      <point x="370" y="630" type="curve"/>
      <point x="386" y="649"/>
      <point x="413" y="681"/>
      <point x="425" y="693" type="curve"/>
      <point x="377" y="721" type="line"/>
      <point x="368" y="705"/>
      <point x="343" y="666"/>
      <point x="326" y="639" type="curve" smooth="yes"/>
      <point x="308" y="611"/>
      <point x="277" y="563"/>
      <point x="265" y="545" type="curve"/>
    </contour>
    <contour>
      <point x="125" y="533" type="line"/>
      <point x="139" y="551"/>
      <point x="179" y="607"/>
      <point x="200" y="630" type="curve"/>
      <point x="216" y="649"/>
      <point x="243" y="681"/>
      <point x="255" y="693" type="curve"/>
      <point x="207" y="721" type="line"/>
      <point x="198" y="705"/>
      <point x="173" y="666"/>
      <point x="156" y="639" type="curve" smooth="yes"/>
      <point x="138" y="611"/>
      <point x="107" y="563"/>
      <point x="95" y="545" type="curve"/>
    </contour>
  </outline>
</glyph>
<glyph name="apostrophemod" format="2">
  <advance width="263"/>
  <unicode hex="02BC"/>
  <outline>
    <contour>
      <point x="133" y="502" type="line"/>
      <point x="149" y="529"/>
      <point x="157" y="564"/>
      <point x="157" y="607" type="curve" smooth="yes"/>
      <point x="157" y="700" type="line"/>
      <point x="105" y="695" type="line"/>
      <point x="107" y="603" type="line"/>
      <point x="129" y="601" type="line"/>
      <point x="130" y="569"/>
      <point x="122" y="541"/>
      <point x="109" y="511" type="curve"/>
    </contour>
  </outline>
</glyph>
<glyph name="caron" format="2">
  <advance width="305"/>
  <unicode hex="02C7"/>
  <anchor x="153" y="555" name="_top"/>
  <outline>
    <contour>
      <point x="176" y="636" type="line"/>
      <point x="265" y="700" type="line"/>
      <point x="257" y="713" type="line"/>
      <point x="154" y="664" type="line"/>
      <point x="49" y="715" type="line"/>
      <point x="41" y="698" type="line"/>
      <point x="132" y="638" type="line"/>
    </contour>
  </outline>
</glyph>
<glyph name="dotaccent" format="2">
  <advance width="246"/>
  <unicode hex="02D9"/>
  <anchor x="123" y="555" name="_top"/>
  <outline>
    <contour>
      <point x="100" y="650" type="line"/>
      <point x="140" y="650" type="line"/>
      <point x="144" y="717" type="line"/>
      <point x="100" y="719" type="line"/>
    </contour>
  </outline>
</glyph>
<glyph name="tilde" format="2">
  <advance width="305"/>
  <unicode hex="02DC"/>
  <anchor x="152" y="555" name="_top"/>
  <outline>
    <contour>
      <point x="60" y="645" type="line"/>
      <point x="64" y="661"/>
      <point x="76" y="667"/>
      <point x="96" y="667" type="curve" smooth="yes"/>
      <point x="130" y="667"/>
      <point x="163" y="645"/>
      <point x="203" y="645" type="curve" smooth="yes"/>
      <point x="243" y="645"/>
      <point x="268" y="663"/>
      <point x="272" y="695" type="curve"/>
      <point x="243" y="695" type="line"/>
      <point x="239" y="679"/>
      <point x="227" y="673"/>
      <point x="207" y="673" type="curve" smooth="yes"/>
      <point x="173" y="673"/>
      <point x="140" y="695"/>
      <point x="100" y="695" type="curve" smooth="yes"/>
      <point x="60" y="695"/>
      <point x="35" y="677"/>
      <point x="31" y="645" type="curve"/>
    </contour>
  </outline>
</glyph>
<glyph name="hungarumlaut" format="2">
  <advance width="269"/>
  <unicode hex="02DD"/>
  <anchor x="83" y="555" name="_top"/>
  <outline>
    <contour>
      <point x="155" y="619" type="line"/>
      <point x="168" y="630"/>
      <point x="186" y="646"/>
      <point x="205" y="661" type="curve" smooth="yes"/>
      <point x="224" y="676"/>
      <point x="242" y="691"/>
      <point x="257" y="702" type="curve"/>
      <point x="231" y="727" type="line"/>
      <point x="217" y="712"/>
      <point x="200" y="695"/>
      <point x="183" y="679" type="curve" smooth="yes"/>
      <point x="168" y="665"/>
      <point x="153" y="649"/>
      <point x="138" y="636" type="curve"/>
    </contour>
    <contour>
      <point x="31" y="619" type="line"/>
      <point x="44" y="630"/>
      <point x="62" y="646"/>
      <point x="81" y="661" type="curve" smooth="yes"/>
      <point x="100" y="676"/>
      <point x="118" y="691"/>
      <point x="133" y="702" type="curve"/>
      <point x="107" y="727" type="line"/>
      <point x="93" y="712"/>
      <point x="76" y="695"/>
      <point x="59" y="679" type="curve" smooth="yes"/>
      <point x="44" y="665"/>
      <point x="29" y="649"/>
      <point x="14" y="636" type="curve"/>
    </contour>
  </outline>
</glyph>
<glyph name="circumflexcomb" format="2">
  <unicode hex="0302"/>
  <anchor x="-152" y="555" name="_top"/>
  <outline>
    <contour>
      <point x="-48" y="628" type="line"/>
      <point x="-40" y="645" type="line"/>
      <point x="-131" y="705" type="line"/>
      <point x="-175" y="707" type="line"/>
      <point x="-264" y="643" type="line"/>
      <point x="-256" y="630" type="line"/>
      <point x="-153" y="679" type="line"/>
    </contour>
  </outline>
</glyph>
<glyph name="dotaccentcomb" format="2">
  <unicode hex="0307"/>
  <anchor x="-123" y="555" name="_top"/>
  <outline>
    <contour>
      <point x="-146" y="650" type="line"/>
      <point x="-106" y="650" type="line"/>
      <point x="-102" y="717" type="line"/>
      <point x="-146" y="719" type="line"/>
    </contour>
  </outline>
</glyph>
<glyph name="hookabovecomb" format="2">
  <unicode hex="0309"/>
  <anchor x="-156" y="555" name="_top"/>
  <outline>
    <contour>
      <point x="-177" y="628" type="line"/>
      <point x="-109" y="627"/>
      <point x="-83" y="650"/>
      <point x="-83" y="676" type="curve" smooth="yes"/>
      <point x="-83" y="710"/>
      <point x="-122" y="719"/>
      <point x="-175" y="719" type="curve" smooth="yes"/>
      <point x="-190" y="719"/>
      <point x="-207" y="718"/>
      <point x="-225" y="717" type="curve"/>
      <point x="-225" y="691" type="line"/>
      <point x="-209" y="693"/>
      <point x="-190" y="694"/>
      <point x="-175" y="694" type="curve" smooth="yes"/>
      <point x="-137" y="694"/>
      <point x="-113" y="691"/>
      <point x="-113" y="674" type="curve" smooth="yes"/>
      <point x="-113" y="657"/>
      <point x="-141" y="650"/>
      <point x="-179" y="650" type="curve"/>
    </contour>
  </outline>
</glyph>
<glyph name="ringcomb" format="2">
  <unicode hex="030A"/>
  <anchor x="-152" y="555" name="_top"/>
  <outline>
    <contour>
      <point x="-152" y="618" type="curve"/>
      <point x="-107" y="618"/>
      <point x="-76" y="642"/>
      <point x="-76" y="676" type="curve"/>
      <point x="-76" y="706"/>
      <point x="-107" y="727"/>
      <point x="-154" y="727" type="curve"/>
      <point x="-198" y="727"/>
      <point x="-231" y="708"/>
      <point x="-231" y="672" type="curve"/>
      <point x="-231" y="644"/>
      <point x="-211" y="617"/>
    </contour>
    <contour>
      <point x="-152" y="640" type="curve"/>
      <point x="-183" y="640"/>
      <point x="-205" y="648"/>
      <point x="-205" y="675" type="curve"/>
      <point x="-205" y="693"/>
      <point x="-186" y="705"/>
      <point x="-154" y="705" type="curve"/>
      <point x="-130" y="705"/>
      <point x="-104" y="699"/>
      <point x="-104" y="677" type="curve"/>
      <point x="-104" y="655"/>
      <point x="-125" y="640"/>
    </contour>
  </outline>
</glyph>
<glyph name="hungarumlautcomb" format="2">
  <unicode hex="030B"/>
  <anchor x="-186" y="555" name="_top"/>
  <outline>
    <contour>
      <point x="-114" y="619" type="line"/>
      <point x="-101" y="630"/>
      <point x="-83" y="646"/>
      <point x="-64" y="661" type="curve" smooth="yes"/>
      <point x="-45" y="676"/>
      <point x="-27" y="691"/>
      <point x="-12" y="702" type="curve"/>
      <point x="-38" y="727" type="line"/>
      <point x="-52" y="712"/>
      <point x="-69" y="695"/>
      <point x="-86" y="679" type="curve" smooth="yes"/>
      <point x="-101" y="665"/>
      <point x="-116" y="649"/>
      <point x="-131" y="636" type="curve"/>
    </contour>
    <contour>
      <point x="-238" y="619" type="line"/>
      <point x="-225" y="630"/>
      <point x="-207" y="646"/>
      <point x="-188" y="661" type="curve" smooth="yes"/>
      <point x="-169" y="676"/>
      <point x="-151" y="691"/>
      <point x="-136" y="702" type="curve"/>
      <point x="-162" y="727" type="line"/>
      <point x="-176" y="712"/>
      <point x="-193" y="695"/>
      <point x="-210" y="679" type="curve" smooth="yes"/>
      <point x="-225" y="665"/>
      <point x="-240" y="649"/>
      <point x="-255" y="636" type="curve"/>
    </contour>
  </outline>
</glyph>
<glyph name="caroncomb" format="2">
  <unicode hex="030C"/>
  <anchor x="-152" y="555" name="_top"/>
  <outline>
    <contour>
      <point x="-129" y="636" type="line"/>
      <point x="-40" y="700" type="line"/>
      <point x="-48" y="713" type="line"/>
      <point x="-151" y="664" type="line"/>
      <point x="-256" y="715" type="line"/>
      <point x="-264" y="698" type="line"/>
      <point x="-173" y="638" type="line"/>
    </contour>
  </outline>
</glyph>
<glyph name="commaturnedabovecomb" format="2">
  <unicode hex="0312"/>
  <anchor x="-123" y="555" name="_top"/>
  <outline>
    <contour>
      <point x="-151" y="645" type="curve"/>
      <point x="-104" y="650" type="line"/>
      <point x="-107" y="716" type="line"/>
      <point x="-127" y="718" type="line"/>
      <point x="-127" y="747"/>
      <point x="-119" y="783"/>
      <point x="-100" y="810" type="curve"/>
      <point x="-119" y="823" type="line"/>
      <point x="-139" y="796"/>
      <point x="-151" y="758"/>
      <point x="-151" y="718" type="curve" smooth="yes"/>
      <point x="-151" y="694"/>
      <point x="-151" y="669"/>
    </contour>
  </outline>
</glyph>
<glyph name="horncomb" format="2">
  <unicode hex="031B"/>
  <anchor x="-200" y="555" name="_topright"/>
  <outline>
    <contour>
      <point x="-142" y="473" type="line"/>
      <point x="-75" y="486"/>
      <point x="-29" y="533"/>
      <point x="-25" y="588" type="curve"/>
      <point x="-24" y="614"/>
      <point x="-23" y="642"/>
      <point x="-23" y="655" type="curve"/>
      <point x="-81" y="658" type="line"/>
      <point x="-75" y="587" type="line"/>
      <point x="-50" y="586" type="line"/>
      <point x="-50" y="531"/>
      <point x="-119" y="500"/>
      <point x="-147" y="494" type="curve"/>
    </contour>
  </outline>
</glyph>
<glyph name="dotbelowcomb" format="2">
  <unicode hex="0323"/>
  <anchor x="-145" y="0" name="_bottom"/>
  <outline>
    <contour>
      <point x="-161" y="-146" type="line"/>
      <point x="-121" y="-146" type="line"/>
      <point x="-117" y="-79" type="line"/>
      <point x="-161" y="-77" type="line"/>
    </contour>
  </outline>
</glyph>
